<?xml version="1.0" encoding="UTF-8"?>
<svg id="Layer_1" xmlns="http://www.w3.org/2000/svg" width="184" height="21.55" version="1.1" viewBox="0 0 184 21.55">
  <!-- Generator: Adobe Illustrator 29.2.0, SVG Export Plug-In . SVG Version: 2.1.0 Build 108)  -->
  <path d="M92.64,11.81c.21-.01.41-.03.6-.05,4.22-.43,5.09-3.72,5.09-5.5,0-1.03-.25-2.09-.73-2.98-.51-.94-1.3-1.66-2.27-2.09-.84-.39-2.11-.56-4.24-.56h-4.98v20.91h1.67v-9.72h2.98l6.65,9.72h1.91l-6.68-9.74h0ZM91.04,2.24c1.75,0,2.95.12,3.58.41.66.29,1.18.76,1.52,1.4.35.65.53,1.45.53,2.21,0,.29-.02.57-.07.84-.16.92-.89,2.79-3.39,3.05-.41.04-.88.08-1.36.08h-4.07V2.24h3.26Z"/>
  <path d="M161.56,17.34L144.6,0v21.55h1.69V4.1c.65.69,16.96,17.45,16.96,17.45V.64h-1.69v16.71h0Z"/>
  <path d="M182.31,17.34L165.35,0v21.55h1.69V4.1c.65.69,16.96,17.45,16.96,17.45V.64h-1.69v16.71h0Z"/>
  <path d="M1.37,2.22h11.97L0,21.55h15.89v-1.59H3.08l.02-.02c.39-.57,12.83-18.59,13.33-19.3H1.37v1.59h0Z"/>
  <rect x="17.86" y=".64" width="1.69" height="20.91"/>
  <polygon points="71.57 .64 71.57 21.55 83.92 21.55 83.92 19.95 73.25 19.95 73.25 11.82 83.24 11.82 83.24 10.23 73.25 10.23 73.25 2.24 83.92 2.24 83.92 .64 71.57 .64"/>
  <path d="M125.46,21.55h1.75s2.64-6.52,2.74-6.75h8.71c.09.23,2.74,6.75,2.74,6.75h1.75L134.31,0l-8.86,21.55h.01ZM130.59,13.18c.2-.48,3.4-8.41,3.72-9.2.32.79,3.5,8.72,3.7,9.2h-7.42Z"/>
  <polygon points="124.08 21.55 119.49 0 112.39 17.29 105.28 0 100.69 21.55 102.35 21.55 105.77 5.19 112.39 21.55 119 5.19 122.42 21.55 124.08 21.55"/>
  <polygon points="69.77 21.55 65.18 0 58.07 17.29 50.97 0 46.38 21.55 48.04 21.55 51.46 5.19 58.07 21.55 64.69 5.19 68.11 21.55 69.77 21.55"/>
  <polygon points="44.78 21.55 40.2 0 33.09 17.29 25.98 0 21.39 21.55 23.06 21.55 26.47 5.19 33.09 21.55 39.71 5.19 43.12 21.55 44.78 21.55"/>
</svg>