<?xml version="1.0" encoding="UTF-8"?>
<svg width="34px" height="34px" viewBox="0 0 34 34" version="1.1" xmlns="http://www.w3.org/2000/svg" xmlns:xlink="http://www.w3.org/1999/xlink">
    <!-- Generator: Sketch 54.1 (76490) - https://sketchapp.com -->
    <title>Artboard</title>
    <desc>Created with Sketch.</desc>
    <g id="Artboard" stroke="none" stroke-width="1" fill="none" fill-rule="evenodd">
        <path d="M17,5 C15.1915614,5 13.5469473,5.32790187 12.2832031,5.9296875 C11.019459,6.53147312 10,7.48609812 10,8.78710937 L10,16.0742187 C10,17.37523 11.019459,18.329855 12.2832031,18.9316406 C12.8967409,19.2238027 13.6067548,19.4550477 14.375,19.6152344 L14.375,27.2115385 C14.375,28.165901 15.1706349,28.9615385 16.125,28.9615385 L17.875,28.9615385 C18.8293651,28.9615385 19.625,28.165901 19.625,27.2115385 L19.625,19.6152344 C20.3932452,19.4550477 21.1032591,19.2238027 21.7167969,18.9316406 C22.980541,18.329855 24,17.37523 24,16.0742187 L24,8.78710937 C24,7.48609812 22.980541,6.53147312 21.7167969,5.9296875 C20.4530527,5.32790187 18.8084386,5 17,5 Z M17,6.75 C18.5848114,6.75 20.0144004,7.06303125 20.9648438,7.515625 C21.9152871,7.96821875 22.25,8.47228437 22.25,8.78710937 L22.25,16.0742187 C22.25,16.3890437 21.9152871,16.8931094 20.9648438,17.3457031 C20.0144004,17.7982969 18.5848114,18.125 17,18.125 C15.4151886,18.125 13.9855996,17.7982969 13.0351562,17.3457031 C12.0847129,16.8931094 11.75,16.3890437 11.75,16.0742187 L11.75,8.78710937 C11.75,8.47228437 12.0847129,7.96821875 13.0351562,7.515625 C13.9855996,7.06303125 15.4151886,6.75 17,6.75 Z M13.8691406,8.9375 C13.4127924,8.97330186 13.0611435,9.35475153 13.0625,9.8125 L13.0625,15.0625 C13.0625482,15.5457292 13.4542708,15.9374518 13.9375,15.9375 L20.0625,15.9375 C20.5457292,15.9374518 20.9374518,15.5457292 20.9375,15.0625 L20.9375,9.8125 C20.9402705,9.49851395 20.774603,9.20711147 20.5033779,9.04889684 C20.2321528,8.89068221 19.8969506,8.88991064 19.625,9.046875 C18.7444656,9.54838562 17.8666761,9.80748187 17,9.8125 C16.157732,9.81735625 15.3208571,9.58957625 14.375,9.046875 C14.2212648,8.96024707 14.0449314,8.92212091 13.8691406,8.9375 Z M14.8125,11.125 C15.5426591,11.3844725 16.2688176,11.5667175 17,11.5625 C17.7407212,11.558125 18.4756464,11.3755081 19.1875,11.125 L19.1875,14.1875 L14.8125,14.1875 L14.8125,11.125 Z M16.125,19.8476562 C16.4119366,19.8656869 16.7032849,19.875 17,19.875 C17.2967151,19.875 17.5880634,19.8656869 17.875,19.8476562 L17.875,27.2115385 L16.125,27.2115385 L16.125,19.8476562 Z" id="bottle-opener" fill="#393939" fill-rule="nonzero"></path>
    </g>
</svg>