<?xml version="1.0" encoding="UTF-8"?>
<svg width="34px" height="34px" viewBox="0 0 34 34" version="1.1" xmlns="http://www.w3.org/2000/svg" xmlns:xlink="http://www.w3.org/1999/xlink">
    <!-- Generator: Sketch 54.1 (76490) - https://sketchapp.com -->
    <title>Artboard</title>
    <desc>Created with Sketch.</desc>
    <g id="Artboard" stroke="none" stroke-width="1" fill="none" fill-rule="evenodd">
        <g id="breathable" transform="translate(5.000000, 1.000000)" fill="#393939" fill-rule="nonzero" stroke="#393939" stroke-width="0.2">
            <path d="M23.8971429,12.0685714 C23.8971429,5.52 18.5485714,0.171428571 12,0.171428571 C5.45142857,0.171428571 0.102857143,5.52 0.102857143,12.0685714 C0.102857143,17.5885714 3.87428571,22.2171429 8.94857143,23.5885714 L8.94857143,27.4971429 L7.2,27.4971429 C6.44571429,27.4971429 5.79428571,28.1142857 5.79428571,28.9028571 L5.79428571,31.3714286 C5.79428571,32.1257143 6.41142857,32.7771429 7.2,32.7771429 L16.2857143,32.7771429 C17.04,32.7771429 17.6914286,32.16 17.6914286,31.3714286 L17.6914286,28.9028571 C17.6914286,28.1485714 17.0742857,27.4971429 16.2857143,27.4971429 L14.5371429,27.4971429 L14.5371429,23.7257143 C19.8857143,22.56 23.8971429,17.76 23.8971429,12.0685714 Z M16.2857143,28.6285714 C16.4228571,28.6285714 16.5257143,28.7314286 16.5257143,28.8685714 L16.5257143,31.3371429 C16.5257143,31.4742857 16.4228571,31.5771429 16.2857143,31.5771429 L7.2,31.5771429 C7.06285714,31.5771429 6.96,31.4742857 6.96,31.3371429 L6.96,28.8685714 C6.96,28.7314286 7.06285714,28.6285714 7.2,28.6285714 L16.2857143,28.6285714 Z M10.1142857,27.4971429 L10.1142857,23.8285714 C10.7314286,23.9314286 11.3485714,23.9657143 12,23.9657143 C12.48,23.9657143 12.9257143,23.9314286 13.3714286,23.8971429 L13.3714286,27.4971429 L10.1142857,27.4971429 Z M12,22.8342857 C6.06857143,22.8342857 1.23428571,18 1.23428571,12.0685714 C1.23428571,6.13714286 6.06857143,1.33714286 12,1.33714286 C17.9314286,1.33714286 22.7657143,6.17142857 22.7657143,12.1028571 C22.7657143,18 17.9314286,22.8342857 12,22.8342857 Z" id="Shape"></path>
            <path d="M20.4685714,11.52 C19.6114286,10.5257143 18.0342857,10.0457143 15.7028571,10.08 C15.2914286,10.08 14.88,10.1142857 14.5371429,10.1485714 C14.4685714,10.0457143 14.3657143,9.94285714 14.2628571,9.84 C14.4685714,9.70285714 14.7085714,9.6 15.0514286,9.46285714 C15.5314286,9.25714286 16.08,9.01714286 16.6285714,8.64 C17.6914286,7.85142857 18.0342857,6.61714286 17.52,5.41714286 C16.7657143,3.66857143 14.2285714,2.19428571 10.2171429,2.88 C8.60571429,3.15428571 7.61142857,3.87428571 7.2,4.97142857 C6.75428571,6.20571429 7.13142857,7.81714286 8.33142857,9.80571429 C8.57142857,10.1828571 8.77714286,10.56 9.01714286,10.8685714 C8.98285714,10.9714286 8.94857143,11.1085714 8.91428571,11.2114286 C8.70857143,11.1085714 8.43428571,10.9028571 8.12571429,10.6628571 C7.71428571,10.3542857 7.23428571,9.97714286 6.61714286,9.70285714 C5.41714286,9.15428571 4.18285714,9.49714286 3.39428571,10.5257143 C2.22857143,12.0685714 2.22857143,15.0171429 4.86857143,18.1028571 C5.76,19.1657143 6.72,19.7142857 7.68,19.7142857 C7.85142857,19.7142857 8.02285714,19.7142857 8.19428571,19.68 C9.46285714,19.44 10.6971429,18.3085714 11.8285714,16.2857143 C12.0342857,15.9085714 12.2057143,15.5314286 12.3771429,15.2228571 C12.5142857,15.2228571 12.6171429,15.1885714 12.7542857,15.1542857 C12.7542857,15.3942857 12.72,15.6685714 12.6857143,16.0457143 C12.6171429,16.56 12.5485714,17.1771429 12.6171429,17.8285714 C12.7542857,19.1314286 13.6457143,20.0571429 14.9485714,20.2285714 C15.0857143,20.2628571 15.2228571,20.2628571 15.3257143,20.2628571 C17.1771429,20.2628571 19.4742857,18.7542857 20.7771429,15.1885714 C21.3257143,13.6457143 21.2228571,12.4114286 20.4685714,11.52 Z M12,14.1257143 C10.8685714,14.1257143 9.97714286,13.2 9.97714286,12.1028571 C9.97714286,10.9714286 10.9028571,10.08 12,10.08 C13.0971429,10.08 14.0228571,11.0057143 14.0228571,12.1028571 C14.0228571,13.2 13.1314286,14.1257143 12,14.1257143 Z M8.33142857,5.38285714 C8.57142857,4.69714286 9.29142857,4.25142857 10.4571429,4.04571429 C13.8171429,3.46285714 15.9428571,4.59428571 16.4914286,5.89714286 C16.8,6.58285714 16.5942857,7.26857143 15.9771429,7.71428571 C15.5657143,8.02285714 15.0857143,8.22857143 14.64,8.4 C14.1942857,8.60571429 13.68,8.81142857 13.3028571,9.15428571 C12.9257143,8.98285714 12.48,8.88 12.0342857,8.88 C11.1428571,8.88 10.32,9.25714286 9.77142857,9.84 C8.77714286,8.4 7.88571429,6.58285714 8.33142857,5.38285714 Z M7.98857143,18.5828571 C7.26857143,18.72 6.51428571,18.3085714 5.76,17.4171429 C3.56571429,14.8114286 3.49714286,12.3771429 4.32,11.2457143 C4.62857143,10.8342857 5.04,10.6285714 5.48571429,10.6285714 C5.69142857,10.6285714 5.93142857,10.6971429 6.17142857,10.8 C6.65142857,11.0057143 7.02857143,11.3142857 7.44,11.6228571 C7.85142857,11.9314286 8.29714286,12.3085714 8.84571429,12.4457143 C8.98285714,13.7485714 9.90857143,14.8457143 11.1428571,15.1885714 C10.3885714,16.6628571 9.22285714,18.3428571 7.98857143,18.5828571 Z M19.68,14.7771429 C18.5142857,18 16.4571429,19.2685714 15.0514286,19.0971429 C14.2971429,18.9942857 13.8171429,18.5142857 13.7485714,17.7257143 C13.68,17.2114286 13.7485714,16.7314286 13.8171429,16.2171429 C13.8857143,15.7371429 13.9542857,15.1885714 13.8514286,14.6742857 C14.6742857,14.0914286 15.2228571,13.1314286 15.2228571,12.0685714 C15.2228571,11.7942857 15.1885714,11.52 15.12,11.2457143 C16.8,11.1428571 18.8228571,11.3142857 19.6114286,12.2742857 C20.0571429,12.8228571 20.0914286,13.68 19.68,14.7771429 Z" id="Shape"></path>
        </g>
    </g>
</svg>