<?xml version="1.0" encoding="UTF-8"?>
<svg width="34px" height="34px" viewBox="0 0 34 34" version="1.1" xmlns="http://www.w3.org/2000/svg" xmlns:xlink="http://www.w3.org/1999/xlink">
    <!-- Generator: Sketch 54.1 (76490) - https://sketchapp.com -->
    <title>Artboard</title>
    <desc>Created with Sketch.</desc>
    <g id="Artboard" stroke="none" stroke-width="1" fill="none" fill-rule="evenodd">
        <g id="durable-water-repellent" transform="translate(2.000000, 5.000000)" fill="#393939" fill-rule="nonzero" stroke="#393939" stroke-width="0.2">
            <path d="M26.9651517,10.1751218 C26.2390375,10.1751218 25.6119389,9.94408543 25.0508506,9.48201275 C24.7538039,9.25097642 24.4897624,8.98693489 24.2257208,8.72289336 C24.0276897,8.52486221 23.8296586,8.35983625 23.5986222,8.22781549 C23.1695547,7.96377396 22.7734924,7.99677915 22.3774301,8.22781549 C22.179399,8.35983625 21.9813678,8.49185702 21.8163419,8.65688297 C21.5523004,8.9209245 21.2552536,9.18496603 20.9582069,9.41600237 C20.0010564,10.208127 18.9778954,10.3731529 17.8227138,9.91108024 C17.5586722,9.81206467 17.3276359,9.64703871 17.1296047,9.48201275 C16.832558,9.21797122 16.5355113,8.9539297 16.2384646,8.68988817 C16.0734386,8.52486221 15.8754075,8.35983625 15.6773763,8.22781549 C15.281314,7.96377396 14.9182569,7.93076877 14.4891894,8.16180511 C14.1591375,8.35983625 13.8290856,8.62387778 13.5650441,8.88791931 C13.201987,9.25097642 12.8389299,9.58102833 12.3768572,9.81206467 C11.4197067,10.3071425 10.4955613,10.2741373 9.53841077,9.77905948 C9.14234847,9.54802314 8.81229656,9.25097642 8.48224465,8.9209245 C8.21820312,8.65688297 7.95416159,8.42584664 7.65711487,8.22781549 C7.29405777,7.99677915 6.93100066,7.96377396 6.53493837,8.16180511 C6.20488646,8.32683106 5.94084493,8.59087259 5.6768034,8.82190893 C5.44576706,9.01994008 5.24773591,9.21797122 5.01669957,9.41600237 C4.22457499,10.0761062 3.33343482,10.3401477 2.3102739,10.0761062 C1.9142116,9.97709062 1.5511545,9.77905948 1.22110259,9.54802314 C0.924055867,9.3169868 0.627009147,9.05294527 0.362967617,8.78890374 C0.0989260877,8.49185702 0.0659208965,8.09579472 0.329962426,7.798748 C0.594003955,7.50170128 1.02307144,7.50170128 1.32011816,7.76574281 C1.5511545,7.96377396 1.74918565,8.16180511 1.94721679,8.35983625 C2.14524794,8.5578674 2.37628428,8.65688297 2.60732062,8.72289336 C3.13540368,8.85491412 3.63048154,8.75589855 4.05954903,8.35983625 C4.35659575,8.12879992 4.62063728,7.86475839 4.88467881,7.63372205 C5.2807411,7.27066494 5.70980859,6.97361822 6.20488646,6.77558708 C6.83198509,6.54455074 7.42607853,6.57755593 8.02017197,6.84159746 C8.48224465,7.03962861 8.84530175,7.36968052 9.17535366,7.69973243 C9.43939519,7.93076877 9.70343672,8.1948103 9.96747825,8.42584664 C10.4955613,8.85491412 11.0566496,8.88791931 11.650743,8.62387778 C12.1128157,8.39284145 12.4098624,7.99677915 12.7729195,7.69973243 C13.2349922,7.33667533 13.6640597,6.97361822 14.2251479,6.77558708 C14.8852517,6.57755593 15.4793452,6.61056112 16.0734386,6.94061303 C16.4695009,7.13864418 16.832558,7.40268571 17.1296047,7.73273762 C17.3606411,7.99677915 17.6576878,8.22781549 17.9217293,8.45885183 C18.4498124,8.88791931 19.1429214,8.9209245 19.7040097,8.5578674 C20.0670668,8.32683106 20.3971187,7.99677915 20.6941654,7.69973243 C21.0572225,7.36968052 21.4532848,7.0726338 21.8823523,6.87460265 C22.7074821,6.51154555 23.4666014,6.57755593 24.2257208,7.03962861 C24.6877935,7.33667533 25.0838558,7.69973243 25.4799181,8.09579472 C25.7439596,8.35983625 26.0410064,8.62387778 26.4040635,8.72289336 C26.9651517,8.85491412 27.4602296,8.75589855 27.8892971,8.35983625 C28.1533386,8.09579472 28.4503853,7.89776358 28.7144268,7.63372205 C29.0444788,7.30367014 29.5065514,7.40268571 29.7375878,7.66672724 C30.0016293,7.96377396 29.9686241,8.39284145 29.6715774,8.68988817 C29.3415255,8.98693489 29.0114736,9.28398161 28.6814217,9.54802314 C28.2523542,9.94408543 27.6582607,10.1751218 26.9651517,10.1751218 Z M26.8661361,22.2880269 C26.2390375,22.2880269 25.6119389,22.0569906 25.0508506,21.5949179 C24.7538039,21.3638816 24.4897624,21.0998401 24.2257208,20.8357985 C24.0276897,20.6377674 23.8296586,20.4727414 23.5986222,20.3407207 C23.1695547,20.0766791 22.7734924,20.1096843 22.3774301,20.3407207 C22.0803834,20.5057466 21.8493471,20.7367829 21.6183107,20.9678193 C21.3542692,21.2318608 21.0902277,21.4628972 20.793181,21.6939335 C19.9020408,22.3540373 18.9118851,22.4860581 17.8557189,22.0569906 C17.4926618,21.9249698 17.2286203,21.6939335 16.9315736,21.4628972 C16.5685165,21.1328452 16.2384646,20.7697881 15.8424023,20.4727414 C15.3143192,20.0436739 14.8852517,20.0436739 14.3241635,20.4397362 C13.8620908,20.7367829 13.5320389,21.1328452 13.1359766,21.4959023 C12.4758728,22.0239854 11.7497586,22.3870425 10.8916236,22.3210321 C10.5615717,22.2880269 10.2315198,22.2220166 9.90146787,22.0899958 C9.40639,21.8589595 8.97732252,21.5289075 8.61426541,21.1328452 C8.38322908,20.8688037 8.08618236,20.6707726 7.82214083,20.4397362 C7.39307334,20.1096843 6.93100066,20.0766791 6.46892799,20.3737258 C6.17188127,20.571757 5.87483455,20.8027933 5.61079302,21.0668349 C5.11571515,21.5289075 4.62063728,21.957975 3.96053346,22.1890114 C3.4324504,22.3540373 2.90436734,22.3540373 2.37628428,22.2550217 C1.94721679,22.1560062 1.5511545,21.9249698 1.1880974,21.6609283 C0.924055867,21.3968868 0.660014338,21.1658504 0.428978,20.9018089 C0.16493647,20.6377674 0.131931279,20.2086999 0.395972808,19.9116532 C0.627009147,19.6476116 1.05607663,19.5816013 1.35312335,19.8456428 C1.58415969,20.0436739 1.78219084,20.2747103 2.01322718,20.4727414 C2.64032581,21.0338297 3.4324504,21.0338297 4.09255422,20.5387518 C4.42260613,20.2747103 4.75265805,19.9776636 5.04970477,19.6806168 C5.61079302,19.185539 6.20488646,18.8224819 6.96400585,18.7564715 C7.29405777,18.7234663 7.62410968,18.7894767 7.9211564,18.8884922 C8.44923946,19.0865234 8.87830694,19.4165753 9.27436924,19.8126376 C9.53841077,20.0436739 9.76944711,20.3077155 10.0664938,20.5057466 C10.5945769,20.9348141 11.1556651,21.0008245 11.7827638,20.7037778 C12.2118313,20.4727414 12.508878,20.1096843 12.8719351,19.8126376 C13.4000181,19.3835701 13.9281012,18.9214974 14.6212102,18.7894767 C15.2153037,18.6574559 15.7763919,18.7894767 16.2714698,19.0865234 C16.6675321,19.3175597 17.0305892,19.6146064 17.3276359,19.9446584 C17.5586722,20.1756947 17.7897086,20.3737258 18.0537501,20.571757 C18.5818332,21.0008245 19.241937,21.0008245 19.8030252,20.6707726 C20.1990875,20.406731 20.5291394,20.0766791 20.8591913,19.7466272 C21.2552536,19.3835701 21.6843211,19.0865234 22.179399,18.8884922 C22.8395028,18.6244507 23.4996066,18.6904611 24.1267053,19.0535182 C24.5227676,19.2845545 24.8858247,19.5485961 25.1828714,19.8456428 C25.3809025,20.0436739 25.5789337,20.2417051 25.7769648,20.406731 C26.5360842,21.0668349 27.3282088,21.0668349 28.0873282,20.406731 C28.3513697,20.1756947 28.6154113,19.9446584 28.8794528,19.713622 C29.1434943,19.4825857 29.5395566,19.4825857 29.8035982,19.713622 C30.0676397,19.9446584 30.1006449,20.3077155 29.9356189,20.6047622 C29.8696085,20.7037778 29.8035982,20.7697881 29.7375878,20.8357985 C29.4735462,21.0668349 29.2425099,21.2978712 28.9784684,21.5289075 C28.3843749,21.9909802 27.7242711,22.2880269 26.8661361,22.2880269 Z M26.9321465,16.2150718 C26.2060323,16.2150718 25.5789337,15.9840354 25.0178454,15.4889576 C24.7207987,15.2579212 24.4567572,14.9938797 24.1927157,14.7298382 C23.9946845,14.531807 23.7636482,14.3667811 23.5326118,14.2017551 C23.1365495,13.9707188 22.7734924,14.0367291 22.3774301,14.2347603 C22.1463938,14.3667811 21.9483627,14.531807 21.7833367,14.696833 C21.48629,14.9938797 21.1892433,15.2579212 20.8591913,15.5219627 C19.935046,16.2480769 18.9448903,16.3800977 17.8557189,15.9840354 C17.525667,15.8520147 17.2616255,15.6539835 17.0305892,15.4559524 C16.6015217,15.0928953 16.2384646,14.6638278 15.7763919,14.3337759 C15.3143192,14.0037239 14.8852517,13.9707188 14.4231791,14.2677655 C14.1261323,14.4657966 13.8290856,14.696833 13.5980493,14.9608745 C13.201987,15.3569368 12.7399143,15.7199939 12.2118313,15.9510302 C11.3206911,16.3470925 10.4295509,16.2810821 9.57141596,15.8190095 C9.17535366,15.6209783 8.87830694,15.3239316 8.58126022,14.9938797 C8.31721869,14.7298382 8.05317716,14.4988018 7.75613044,14.2677655 C7.39307334,14.0037239 6.99701105,13.9707188 6.56794356,14.2017551 C6.23789165,14.3667811 5.97385012,14.6308226 5.70980859,14.8618589 C5.47877225,15.0598901 5.24773591,15.3239316 4.98369438,15.5219627 C4.05954903,16.2480769 3.0363881,16.4131029 1.94721679,15.9840354 C1.32011816,15.7199939 0.825040294,15.2579212 0.362967617,14.7298382 C0.131931279,14.4657966 0.16493647,14.0367291 0.428978,13.8056928 C0.693019529,13.5416513 1.08908182,13.5416513 1.38612854,13.7726876 C1.58415969,13.9707188 1.78219084,14.1687499 2.01322718,14.3667811 C2.673331,14.9608745 3.56447116,14.9608745 4.25758018,14.3337759 C4.58763209,14.0367291 4.917684,13.7396824 5.24773591,13.4756409 C5.70980859,13.0795786 6.23789165,12.7825319 6.83198509,12.6835163 C7.26105258,12.6175059 7.69012006,12.6835163 8.11918755,12.8485423 C8.58126022,13.0465734 8.94431733,13.3436201 9.27436924,13.673672 C9.53841077,13.9047084 9.76944711,14.1357447 10.0334886,14.3667811 C10.6275821,14.9278693 11.485717,14.9278693 12.1458209,14.3997862 C12.343852,14.2347603 12.5418832,14.0367291 12.7399143,13.8717032 C13.0039558,13.6076617 13.3010026,13.3766253 13.6310545,13.145589 C14.588205,12.5184903 15.5783608,12.4194748 16.5685165,13.1125838 C16.8655632,13.3106149 17.1296047,13.5086461 17.3606411,13.7726876 C17.5916774,14.0367291 17.8887241,14.2677655 18.1527657,14.4657966 C18.6478435,14.8618589 19.3409526,14.8948641 19.9020408,14.531807 C20.2650979,14.3007707 20.5621446,14.0037239 20.8921965,13.7066772 C21.2552536,13.3436201 21.6513159,13.0795786 22.1133886,12.8815474 C22.9055132,12.5184903 23.6976378,12.5845007 24.4567572,13.0795786 C24.8528195,13.3436201 25.2158766,13.6406668 25.5459285,13.9707188 C25.7439596,14.2017551 25.974996,14.3997862 26.2390375,14.5648122 C26.8001258,14.9278693 27.5922503,14.8948641 28.1863438,14.3337759 C28.4503853,14.1027395 28.7144268,13.8717032 28.9784684,13.6076617 C29.2755151,13.3436201 29.7375878,13.3766253 29.9686241,13.6406668 C30.2326656,13.9377136 30.1996605,14.3667811 29.9026137,14.6638278 C29.605567,14.9608745 29.2755151,15.224916 28.9454632,15.4889576 C28.2853594,15.9840354 27.6582607,16.2480769 26.9321465,16.2150718 Z M3.10239849,4.10216659 C2.40928947,4.10216659 1.78219084,3.90413544 1.22110259,3.47506796 C0.957061059,3.24403162 0.693019529,3.01299528 0.428978,2.74895375 C0.131931279,2.45190703 0.131931279,2.02283955 0.362967617,1.75879802 C0.627009147,1.4617513 1.05607663,1.4617513 1.38612854,1.72579283 C1.58415969,1.92382397 1.78219084,2.12185512 1.98022199,2.28688108 C2.64032581,2.84796933 3.39944521,2.84796933 4.05954903,2.31988627 C4.35659575,2.08884993 4.65364247,1.8248084 4.95068919,1.56076687 C5.47877225,1.09869419 6.0398605,0.702631898 6.73296952,0.603616325 C7.19504219,0.504600751 7.65711487,0.603616325 8.08618236,0.801647472 C8.51524984,0.999678619 8.84530175,1.29672534 9.20835886,1.59377206 C9.43939519,1.8248084 9.70343672,2.02283955 9.93447306,2.25387588 C10.5945769,2.88097452 11.485717,2.84796933 12.1458209,2.25387588 C12.343852,2.08884993 12.5418832,1.89081878 12.7399143,1.69278763 C13.1029714,1.39574091 13.4660285,1.065689 13.895096,0.867657854 C14.753231,0.438590369 15.6113659,0.438590369 16.4695009,0.999678619 C16.8985684,1.29672534 17.2616255,1.65978244 17.6576878,2.02283955 C17.9217293,2.25387588 18.1857709,2.51791741 18.548828,2.64993818 C19.076911,2.81496413 19.5389837,2.71594856 20.0010564,2.38589665 C20.3311083,2.15486031 20.5951498,1.89081878 20.8921965,1.59377206 C21.2882588,1.19770977 21.7503315,0.900663045 22.2784146,0.702631898 C22.9385184,0.47159556 23.5986222,0.504600751 24.2257208,0.867657854 C24.6217831,1.065689 24.9518351,1.32973053 25.281887,1.65978244 C25.4799181,1.85781359 25.6779493,2.05584474 25.8759804,2.22087069 C26.5690894,2.84796933 27.3942192,2.88097452 28.1203334,2.28688108 C28.3843749,2.05584474 28.6484165,1.8248084 28.8794528,1.59377206 C29.2095047,1.29672534 29.6715774,1.26372015 29.9356189,1.59377206 C30.1996605,1.92382397 30.1666553,2.35289146 29.8035982,2.64993818 C29.5395566,2.88097452 29.2755151,3.11201086 29.0114736,3.34304719 C27.8562919,4.36620812 26.1400219,4.33320293 25.0838558,3.37605238 C24.7868091,3.11201086 24.5227676,2.88097452 24.258726,2.61693299 C24.0606949,2.41890184 23.8296586,2.25387588 23.5986222,2.12185512 C23.2025599,1.89081878 22.8395028,1.95682916 22.4764457,2.1878655 C22.2784146,2.31988627 22.0803834,2.45190703 21.9153575,2.61693299 C21.6183107,2.91397971 21.2882588,3.17802124 20.9582069,3.44206277 C20.0340616,4.16817697 19.0109006,4.33320293 17.9217293,3.90413544 C17.5916774,3.77211468 17.2946307,3.57408353 17.0635944,3.34304719 C16.7335424,3.04600047 16.4364957,2.74895375 16.1064438,2.45190703 C15.9084127,2.28688108 15.6773763,2.12185512 15.4133348,2.02283955 C15.1162881,1.92382397 14.8522465,1.98983435 14.588205,2.12185512 C14.2581531,2.28688108 13.9941116,2.51791741 13.73007,2.78195894 C13.3670129,3.17802124 12.9379455,3.50807315 12.4758728,3.77211468 C11.5187222,4.26719255 10.5945769,4.23418736 9.63742634,3.73910949 C9.24136405,3.54107834 8.94431733,3.24403162 8.61426541,2.91397971 C8.35022388,2.64993818 8.05317716,2.41890184 7.75613044,2.1878655 C7.36006815,1.89081878 6.96400585,1.89081878 6.53493837,2.12185512 C6.20488646,2.31988627 5.94084493,2.5839278 5.6768034,2.81496413 C5.47877225,2.97999009 5.2807411,3.21102643 5.04970477,3.37605238 C4.45561132,3.83812506 3.82851269,4.13517178 3.10239849,4.10216659 Z" id="Combined-Shape"></path>
        </g>
    </g>
</svg>