<?xml version="1.0" encoding="UTF-8"?>
<svg width="34px" height="34px" viewBox="0 0 34 34" version="1.1" xmlns="http://www.w3.org/2000/svg" xmlns:xlink="http://www.w3.org/1999/xlink">
    <!-- Generator: Sketch 54.1 (76490) - https://sketchapp.com -->
    <title>Artboard</title>
    <desc>Created with Sketch.</desc>
    <g id="Artboard" stroke="none" stroke-width="1" fill="none" fill-rule="evenodd">
        <path d="M28,16.6417323 L28,18.8499712 C27.9998098,19.8003845 27.3402061,20.6216663 26.416786,20.821253 L20.9857609,21.9959555 L20.9857609,22.1875379 C20.9857609,24.1932275 20.1939772,26.1167694 18.7845933,27.5350061 C17.3752094,28.9532429 15.4636745,29.75 13.4705047,29.75 L13.3552707,29.75 C9.40214482,29.6652321 6.19041484,26.5125487 6.00811552,22.5379199 C5.82581619,18.563291 8.73530653,15.1263152 12.6638672,14.6754921 C12.7620132,14.6407777 12.865464,14.623712 12.9694876,14.6250757 L25.9959317,14.6250757 C27.102748,14.6250757 28,15.5279636 28,16.6417323 Z M25.9959317,18.8499712 L25.9959317,16.6417323 L13.1899351,16.6417323 C13.1416439,16.6469821 13.0929313,16.6469821 13.0446401,16.6417323 C10.0673072,16.8739519 7.81542843,19.4501225 7.96638762,22.4513011 C8.11734681,25.4524797 10.6162169,27.7866764 13.6016347,27.7151901 C16.5870525,27.6437038 18.9727626,25.1925451 18.9816925,22.1875379 L18.9816925,21.1792096 C18.9709972,20.6955217 19.3032073,20.2723612 19.7732995,20.1708813 L25.9959317,18.8499712 Z M18.375,10.7291667 C18.375,11.3619929 17.7593915,11.875 17,11.875 C16.2406085,11.875 15.625,11.3619929 15.625,10.7291667 L15.625,6.14583333 C15.625,5.51300706 16.2406085,5 17,5 C17.7593915,5 18.375,5.51300706 18.375,6.14583333 L18.375,10.7291667 Z M13.2209896,13.2499945 C12.8752816,13.251155 12.5520426,13.0673698 12.3601754,12.7605583 L10.2983451,9.46098844 C9.98235101,8.95529959 10.1104329,8.27206327 10.5844241,7.93493738 C11.0584152,7.5978115 11.6988247,7.73445875 12.0148188,8.24014757 L14.0766491,11.5397175 C14.2875064,11.8768898 14.3074508,12.310464 14.1285523,12.6680432 C13.9496537,13.0256224 13.6009106,13.249245 13.2209896,13.2499945 Z M21.6398215,12.7599153 C21.3238269,13.2655392 20.6834165,13.402169 20.2094247,13.0650863 C19.7354329,12.7280037 19.6073508,12.0448551 19.9233453,11.5392311 L21.9851785,8.24008467 C22.3011731,7.73446074 22.9415835,7.59783103 23.4155753,7.93491365 C23.8895671,8.27199627 24.0176492,8.95514491 23.7016547,9.46076886 L21.6398215,12.7599153 Z M10.125,22.1875 C10.125,20.2890212 11.6640212,18.75 13.5625,18.75 C15.4609788,18.75 17,20.2890212 17,22.1875 C17,24.0859788 15.4609788,25.625 13.5625,25.625 C11.6640212,25.625 10.125,24.0859788 10.125,22.1875 Z M13.5625,20.7142857 C12.7488662,20.7142857 12.0892857,21.3738662 12.0892857,22.1875 C12.0892857,23.0011338 12.7488662,23.6607143 13.5625,23.6607143 C14.3761338,23.6607143 15.0357143,23.0011338 15.0357143,22.1875 C15.0357143,21.3738662 14.3761338,20.7142857 13.5625,20.7142857 Z" id="emergency-whistle" fill="#393939" fill-rule="nonzero"></path>
    </g>
</svg>