<?xml version="1.0" encoding="UTF-8"?>
<svg width="34px" height="34px" viewBox="0 0 34 34" version="1.1" xmlns="http://www.w3.org/2000/svg" xmlns:xlink="http://www.w3.org/1999/xlink">
    <!-- Generator: Sketch 54.1 (76490) - https://sketchapp.com -->
    <title>Artboard</title>
    <desc>Created with Sketch.</desc>
    <g id="Artboard" stroke="none" stroke-width="1" fill="none" fill-rule="evenodd">
        <g id="goose-down" transform="translate(11.000000, 2.000000)" fill="#393939" fill-rule="nonzero" stroke="#393939" stroke-width="0.25">
            <path d="M10.3944327,10.4402104 L8.35405309,12.750846 C8.21043991,12.9134651 8.17561454,13.1449036 8.26505493,13.3423736 C8.35455061,13.5398435 8.55161798,13.6667845 8.76886194,13.6667845 L10.3944327,13.6667845 L10.3944327,15.782597 L8.90628394,16.9769015 C8.66842115,17.1678093 8.63072132,17.5149396 8.82209501,17.7522233 C8.93126978,17.8876565 9.09152174,17.95802 9.25315568,17.95802 C9.37476807,17.95802 9.49720966,17.918151 9.59930878,17.8362074 L10.3944327,17.1980833 L10.3944327,17.883245 C10.3944327,18.4713536 10.1702237,19.029464 9.76315384,19.4547882 L6.30272836,23.0704018 L6.30272836,6.34561778 C6.30272836,6.04105857 6.05524712,5.79417976 5.74994473,5.79417976 C5.4446976,5.79417976 5.1971611,6.04105857 5.1971611,6.34561778 L5.1971611,23.0704018 L1.73684616,19.4547882 C1.32977629,19.029464 1.10556726,18.4712985 1.10556726,17.883245 L1.10556726,15.7198986 L2.54341273,15.7198986 C2.76557648,15.7198986 2.96618166,15.5871674 3.05263702,15.3830251 C3.13909238,15.1788276 3.09453803,14.9428672 2.93964804,14.7839979 L1.10556726,12.9029878 L1.10556726,9.08494124 L2.82472433,10.4671206 C2.92687873,10.5492849 3.04948616,10.5892642 3.17126437,10.5892642 C3.33273249,10.5892642 3.49276333,10.5190109 3.60199338,10.3838535 C3.79358819,10.14668 3.75616474,9.79954975 3.51846777,9.60842134 L1.10556726,7.66846242 L1.10556726,5.73594791 C1.10556726,3.1812459 3.18900873,1.10287602 5.74994473,1.10287602 C8.31093598,1.10287602 10.3944327,3.1812459 10.3944327,5.73594791 L10.3944327,10.4402104 Z M11.5,10.6484334 L11.5,5.73594791 C11.5,2.57312005 8.92054578,0 5.74994473,0 C2.57939896,0 0,2.57312005 0,5.73594791 L0,13.1269267 C0,13.2705212 0.0561628151,13.4084358 0.15654832,13.5113893 L1.23458695,14.6170225 L0.552783629,14.6170225 C0.247481241,14.6170225 0,14.8639013 0,15.1684605 L0,17.883245 C0,18.7562817 0.332775732,19.5848724 0.937189358,20.2163792 L5.1971611,24.6674766 L5.1971611,27.5996931 C5.1971611,27.9042523 5.4446976,28.1511311 5.74994473,28.1511311 C6.05524712,28.1511311 6.30272836,27.9042523 6.30272836,27.5996931 L6.30272836,24.6674766 L10.5627554,20.2163792 C11.167169,19.5849276 11.5,18.7563368 11.5,17.883245 L11.5,13.1153465 C11.5,12.8107873 11.2524635,12.5639085 10.9472164,12.5639085 L9.99250377,12.5639085 L11.3620252,11.012934 C11.4509128,10.9122414 11.5,10.7826534 11.5,10.6484334 L11.5,10.6484334 Z" id="Shape"></path>
        </g>
    </g>
</svg>