<?xml version="1.0" encoding="UTF-8"?>
<svg width="34px" height="34px" viewBox="0 0 34 34" version="1.1" xmlns="http://www.w3.org/2000/svg" xmlns:xlink="http://www.w3.org/1999/xlink">
    <!-- Generator: Sketch 54.1 (76490) - https://sketchapp.com -->
    <title>Artboard</title>
    <desc>Created with Sketch.</desc>
    <g id="Artboard" stroke="none" stroke-width="1" fill="none" fill-rule="evenodd">
        <path d="M28.4871622,21.1193694 C28.4871622,21.1193694 28.481982,21.1193694 28.4871622,21.1193694 L28.0934685,21.1193694 C27.9380631,16.7274775 25.4878378,12.7466216 21.7581081,10.9560811 C21.322973,10.7477477 20.8774775,10.5731982 20.4216216,10.4324324 L20.1263514,8.4786036 C20.0849099,8.2027027 19.8725225,8 19.6135135,8 L15.3761261,8 C15.1222973,8 14.9047297,8.2027027 14.8632883,8.4786036 L14.568018,10.4268018 C13.9722973,10.6126126 13.3921171,10.8603604 12.8326577,11.1587838 C9.34121622,13.0506757 7.06711712,16.8682432 6.90653153,21.1193694 L6.51801802,21.1193694 C6.23310811,21.1193694 6.00518018,21.3671171 6,21.6711712 C6,21.6711712 6,21.6768018 6,21.6768018 L6,24.8806306 C6,25.1959459 6.22792793,25.4493243 6.51801802,25.454955 L28.481982,25.454955 C28.7720721,25.4493243 29,25.1959459 29,24.8806306 L29,21.6768018 C29,21.3671171 28.7720721,21.1193694 28.4871622,21.1193694 Z M15.1585586,11.4290541 C15.3605856,11.3727477 15.5108108,11.1925676 15.5418919,10.9673423 L15.8164414,9.12612613 L19.1731982,9.12612613 L19.4477477,10.9673423 C19.4788288,11.1869369 19.6342342,11.3671171 19.8310811,11.4234234 C20.2403153,11.536036 20.6391892,11.6768018 21.0277027,11.8457207 C21.0173423,11.8851351 21.0121622,11.9245495 21.0121622,11.963964 L20.8101351,15.4605856 C20.7583333,16.3952703 20.0486486,17.1216216 19.1887387,17.115991 L15.7905405,17.115991 C14.9306306,17.115991 14.2209459,16.3896396 14.1691441,15.4605856 L13.9619369,11.8400901 C14.3608108,11.6768018 14.7545045,11.536036 15.1585586,11.4290541 Z M9.42927928,15.9786036 C10.3047297,14.463964 11.5220721,13.2195946 12.9673423,12.3637387 L13.1486486,15.5337838 C13.2315315,17.0596847 14.3970721,18.2533784 15.8060811,18.2477477 L19.2042793,18.2477477 C20.6132883,18.2477477 21.7736486,17.0596847 21.8617117,15.5337838 L22.043018,12.3581081 C25.0216216,14.1148649 26.9279279,17.4425676 27.0626126,21.1193694 L7.94256757,21.1193694 C8.02027027,19.295045 8.53310811,17.5213964 9.42927928,15.9786036 Z M27.963964,24.3288288 L7.03603604,24.3288288 L7.03603604,22.2454955 L27.963964,22.2454955 L27.963964,24.3288288 Z" id="helmet-holder" stroke="#393939" stroke-width="0.5" fill="#393939" fill-rule="nonzero"></path>
    </g>
</svg>