<?xml version="1.0" encoding="UTF-8"?>
<svg width="34px" height="34px" viewBox="0 0 34 34" version="1.1" xmlns="http://www.w3.org/2000/svg" xmlns:xlink="http://www.w3.org/1999/xlink">
    <!-- Generator: Sketch 54.1 (76490) - https://sketchapp.com -->
    <title>Artboard</title>
    <desc>Created with Sketch.</desc>
    <g id="Artboard" stroke="none" stroke-width="1" fill="none" fill-rule="evenodd">
        <path d="M23.1027041,11.3593295 C22.0230553,10.8792431 21.1413954,10.2928483 20.4415646,9.62279964 C19.3836237,8.60988084 18.8696915,7.58914222 18.6924416,6.7890625 L14.3113643,6.7890625 C14.1341144,7.58914222 13.6201821,8.60988084 12.5622414,9.62279964 C11.8615752,10.2936481 10.9786457,10.8806428 9.89723496,11.3610481 L9.08423833,29.1015625 L13.3869381,29.1015625 L15.9747538,14.1569264 C16.0659995,13.6299829 16.9340184,13.6299829 17.0252641,14.1569264 L19.6130799,29.1015625 L23.9157796,29.1015625 L23.1027041,11.3593295 Z M23.0530565,10.2759612 L22.893262,6.7890625 L19.798359,6.7890625 C19.8287907,6.88461602 19.8662185,6.98970922 19.9116953,7.10307882 C20.1695166,7.74580521 20.5943099,8.39093527 21.225874,8.99562241 C21.722632,9.47124028 22.3279473,9.9014707 23.0530565,10.2759612 Z M9.94686959,10.2779638 C10.6736997,9.90300478 11.2802882,9.47208832 11.7779319,8.99562241 C12.4094961,8.39093527 12.8342892,7.74580521 13.0921106,7.10307882 C13.1375873,6.98970922 13.1750152,6.88461602 13.2054469,6.7890625 L10.1067559,6.7890625 L9.94686959,10.2779638 Z M10.125009,5.859375 L22.875009,5.859375 L22.875009,4.9296875 L10.125009,4.9296875 L10.125009,5.859375 Z M23.406259,4 C23.6996603,4 23.937509,4.20811764 23.937509,4.46484375 L23.937509,6.20456991 C23.937509,6.2958255 23.9412039,6.45275499 23.945635,6.549445 L24.9995824,29.5477815 C25.0116724,29.8116016 24.7705098,30.03125 24.468759,30.03125 L19.156259,30.03125 C18.8935906,30.03125 18.6703529,29.8632836 18.6310038,29.6360424 L16.5030426,17.3470664 L14.3690141,29.6360424 C14.3296649,29.8632836 14.1064273,30.03125 13.843759,30.03125 L8.53125895,30.03125 C8.22950808,30.03125 7.98834543,29.8116016 8.00043554,29.5477815 L9.054383,6.549445 C9.0587728,6.45365458 9.06250895,6.29390581 9.06250895,6.20456991 L9.06250895,4.46484375 C9.06250895,4.20811764 9.30035768,4 9.59375895,4 L23.406259,4 Z" id="hip-belt-pockets" stroke="#393939" stroke-width="0.5" fill="#393939" fill-rule="nonzero"></path>
    </g>
</svg>