<?xml version="1.0" encoding="UTF-8"?>
<svg width="34px" height="34px" viewBox="0 0 34 34" version="1.1" xmlns="http://www.w3.org/2000/svg" xmlns:xlink="http://www.w3.org/1999/xlink">
    <!-- Generator: Sketch 54.1 (76490) - https://sketchapp.com -->
    <title>Artboard</title>
    <desc>Created with Sketch.</desc>
    <g id="Artboard" stroke="none" stroke-width="1" fill="none" fill-rule="evenodd">
        <g id="hooded" transform="translate(0.000000, 1.000000)" fill="#393939" fill-rule="nonzero">
            <path d="M24.252,10.4 C23.6911864,9.83535613 22.9278218,9.51848777 22.132,9.52 L21.8,9.52 C22.712,8.52 23.18,7.52 23.18,6.52 C23.18,3.06490661 20.3790934,0.264 16.924,0.264 C13.4689066,0.264 10.668,3.06490661 10.668,6.52 C10.668,7.516 11.132,8.52 12.044,9.52 L11.712,9.52 C10.918951,9.52062085 10.15886,9.83732543 9.6,10.4 L0.868,19.12 C-0.146726483,20.1352538 -0.146726483,21.7807462 0.868,22.796 L1.476,23.404 C2.4912538,24.4187265 4.1367462,24.4187265 5.152,23.404 L10.12,18.44 L10.12,28.272 C10.1222027,29.707027 11.284973,30.8697973 12.72,30.872 L21.12,30.872 C22.555027,30.8697973 23.7177973,29.707027 23.72,28.272 L23.72,18.436 L28.692,23.408 C29.7081643,24.4205251 31.3518357,24.4205251 32.368,23.408 L32.976,22.8 C33.9907265,21.7847462 33.9907265,20.1392538 32.976,19.124 L24.252,10.4 Z M11.852,6.52 C11.852,3.7276483 14.1156483,1.464 16.908,1.464 C19.7003517,1.464 21.964,3.7276483 21.964,6.52 C21.9510665,6.95591123 21.827161,7.38132009 21.604,7.756 C21.4424467,5.28233385 19.388936,3.35856158 16.91,3.35856158 C14.431064,3.35856158 12.3775533,5.28233385 12.216,7.756 C11.9970426,7.38018561 11.8772872,6.95484775 11.868,6.52 L11.852,6.52 Z M20.42,8.064 C20.42,9.412 18.344,10.768 17.124,11.4 L16.908,11.508 L16.676,11.392 C15.456,10.756 13.4,9.392 13.4,8.064 C13.4638933,6.17158294 15.0165046,4.67050738 16.91,4.67050738 C18.8034954,4.67050738 20.3561067,6.17158294 20.42,8.064 L20.42,8.064 Z M32.128,21.952 L31.52,22.56 C31.2566755,22.8287545 30.8962563,22.9802041 30.52,22.9802041 C30.1437437,22.9802041 29.7833245,22.8287545 29.52,22.56 L24.232,17.248 C23.9459716,16.9612463 23.5152211,16.8753397 23.1410734,17.0304314 C22.7669257,17.185523 22.5232754,17.5509822 22.524,17.956 L22.524,28.272 C22.524,29.0451986 21.8971986,29.672 21.124,29.672 L12.724,29.672 C11.9508014,29.672 11.324,29.0451986 11.324,28.272 L11.324,17.956 C11.3298876,17.5445366 11.0831158,17.1714748 10.7021497,17.0159062 C10.3211835,16.8603377 9.8838123,16.9540279 9.6,17.252 L4.304,22.556 C4.04144496,22.8185818 3.68532784,22.966101 3.314,22.966101 C2.94267216,22.966101 2.58655504,22.8185818 2.324,22.556 L1.716,21.948 C1.44724552,21.6846755 1.2957959,21.3242563 1.2957959,20.948 C1.2957959,20.5717437 1.44724552,20.2113245 1.716,19.948 L10.44,11.248 C10.7764881,10.9092137 11.2345069,10.7190927 11.712,10.72 L12.544,10.72 L12.544,14.852 C12.544,15.1833708 12.8126292,15.452 13.144,15.452 C13.4753708,15.452 13.744,15.1833708 13.744,14.852 L13.744,11.004 C14.525557,11.5642394 15.3493569,12.0630663 16.208,12.496 C16.436,12.612 16.608,12.692 16.68,12.724 C16.8364596,12.7943316 17.0155404,12.7943316 17.172,12.724 C17.244,12.692 17.412,12.616 17.636,12.5 C18.3416035,12.1428559 19.0242603,11.7420789 19.68,11.3 L19.68,17.9 C19.68,18.2313708 19.9486292,18.5 20.28,18.5 C20.6113708,18.5 20.88,18.2313708 20.88,17.9 L20.88,10.7 L22.136,10.7 C22.6134931,10.6990927 23.0715119,10.8892137 23.408,11.228 L32.128,19.972 C32.3905818,20.234555 32.538101,20.5906722 32.538101,20.962 C32.538101,21.3333278 32.3905818,21.689445 32.128,21.952 L32.128,21.952 Z" id="Shape"></path>
            <path d="M20.704,22.428 C20.1760158,22.428 19.748,21.9999842 19.748,21.472 C19.748,21.1406292 19.4793708,20.872 19.148,20.872 L14.7,20.872 C14.3686292,20.872 14.1,21.1406292 14.1,21.472 C14.1,21.9999842 13.6719842,22.428 13.144,22.428 C12.8126292,22.428 12.544,22.6966292 12.544,23.028 L12.544,24.472 C12.5462015,25.6861134 13.5298866,26.6697985 14.744,26.672 L19.104,26.672 C20.3181134,26.6697985 21.3017985,25.6861134 21.304,24.472 L21.304,23.028 C21.304,22.6966292 21.0353708,22.428 20.704,22.428 L20.704,22.428 Z M20.104,24.472 C20.104,25.0242847 19.6562847,25.472 19.104,25.472 L14.744,25.472 C14.1917153,25.472 13.744,25.0242847 13.744,24.472 L13.744,23.544 C14.4468307,23.3331653 14.9949411,22.7805375 15.2,22.076 L18.62,22.076 C18.8273429,22.7834373 19.3805627,23.3366571 20.088,23.544 L20.104,24.472 Z" id="Shape"></path>
        </g>
    </g>
</svg>