<?xml version="1.0" encoding="UTF-8"?>
<svg width="34px" height="34px" viewBox="0 0 34 34" version="1.1" xmlns="http://www.w3.org/2000/svg" xmlns:xlink="http://www.w3.org/1999/xlink">
    <!-- Generator: Sketch 54.1 (76490) - https://sketchapp.com -->
    <title>Artboard</title>
    <desc>Created with Sketch.</desc>
    <g id="Artboard" stroke="none" stroke-width="1" fill="none" fill-rule="evenodd">
        <g id="hydration-compatible" transform="translate(10.000000, 1.000000)" fill="#393939" fill-rule="nonzero" stroke="#393939" stroke-width="0.5">
            <path d="M9.26495969,3.27032967 C9.30506775,3.27032967 9.30506775,3.27032967 9.26495969,3.27032967 L9.26495969,1.15824176 C9.30506775,0.510989011 8.66333894,0 7.94139402,0 L5.37447878,0 C4.61242582,0 4.01080506,0.510989011 4.01080506,1.15824176 L4.01080506,3.27032967 C4.01080506,3.27032967 4.01080506,3.27032967 4.01080506,3.3043956 C2.96799575,4.42857143 0,7.8010989 0,9.60659341 L0,26.6395604 C0,28.8879121 2.12572668,30.6934066 4.77285802,30.6934066 L8.50290673,30.6934066 C11.1500381,30.6934066 13.2757648,28.8879121 13.2757648,26.6395604 L13.2757648,9.60659341 C13.3158728,7.76703297 10.307769,4.39450549 9.26495969,3.27032967 Z M1.16313347,12.7065934 L12.1527393,12.7065934 L12.1527393,20.7120879 L1.16313347,20.7120879 L1.16313347,12.7065934 Z M5.37447878,0.987912088 L7.94139402,0.987912088 C8.06171818,0.987912088 8.14193428,1.05604396 8.14193428,1.15824176 L8.14193428,2.75934066 L5.17393853,2.75934066 L5.17393853,1.15824176 C5.17393853,1.05604396 5.25415463,0.987912088 5.37447878,0.987912088 Z M5.05361438,3.74725275 L8.26225843,3.74725275 C9.505608,5.04175824 12.1527393,8.17582418 12.1527393,9.57252747 L12.1527393,11.7527473 L1.16313347,11.7527473 L1.16313347,9.57252747 C1.16313347,8.17582418 3.81026481,5.04175824 5.05361438,3.74725275 Z M8.54301478,29.6714286 L4.81296608,29.6714286 C2.80756354,29.6714286 1.20324152,28.2747253 1.20324152,26.6054945 L1.20324152,21.7 L12.1928474,21.7 L12.1928474,26.6395604 C12.1527393,28.3087912 10.5484173,29.6714286 8.54301478,29.6714286 Z" id="Shape"></path>
            <path d="M7.11208791,14.1788462 C6.94175824,13.9403846 6.53296703,13.9403846 6.36263736,14.1788462 C6.05604396,14.5876374 5,15.9502747 5,16.7337912 C5,17.6876374 5.78351648,18.4711538 6.73736264,18.4711538 C7.69120879,18.4711538 8.47472527,17.6876374 8.47472527,16.7337912 C8.47472527,15.9502747 7.41868132,14.5876374 7.11208791,14.1788462 Z M6.73736264,17.5173077 C6.32857143,17.5173077 5.98791209,17.1766484 5.98791209,16.7678571 C5.98791209,16.5293956 6.32857143,15.9162088 6.73736264,15.3370879 C7.14615385,15.9162088 7.48681319,16.5293956 7.48681319,16.7678571 C7.48681319,17.1766484 7.14615385,17.5173077 6.73736264,17.5173077 Z" id="Shape"></path>
        </g>
    </g>
</svg>