<?xml version="1.0" encoding="UTF-8"?>
<svg width="34px" height="34px" viewBox="0 0 34 34" version="1.1" xmlns="http://www.w3.org/2000/svg" xmlns:xlink="http://www.w3.org/1999/xlink">
    <!-- Generator: Sketch 54.1 (76490) - https://sketchapp.com -->
    <title>Artboard</title>
    <desc>Created with Sketch.</desc>
    <g id="Artboard" stroke="none" stroke-width="1" fill="none" fill-rule="evenodd">
        <g id="insulated" transform="translate(11.000000, 4.000000)" fill="#393939" fill-rule="nonzero">
            <path d="M9.02552083,0.0419791667 L3.56822917,0.0419791667 C3.10645833,0.0419791667 2.72864583,0.419791667 2.72864583,0.8815625 L2.72864583,15.9520833 C1.0075,17.0855208 0,18.8066667 0,20.7796875 C0,24.0960417 2.81260417,26.8246875 6.296875,26.8246875 C9.78114583,26.8246875 12.59375,24.0960417 12.59375,20.7796875 C12.59375,18.8066667 11.58625,17.0855208 9.86510417,15.9520833 L9.86510417,0.8815625 C9.86510417,0.419791667 9.48729167,0.0419791667 9.02552083,0.0419791667 Z M10.9145833,20.7796875 C10.9145833,23.1725 8.85760417,25.1455208 6.296875,25.1455208 C3.73614583,25.1455208 1.67916667,23.1725 1.67916667,20.7796875 C1.67916667,19.2684375 2.47677083,18.0090625 3.98802083,17.1694792 C4.23989583,17.0015625 4.4078125,16.7496875 4.4078125,16.4138542 L4.4078125,1.72114583 L8.1859375,1.72114583 L8.1859375,4.6596875 L6.50677083,4.6596875 L6.50677083,6.33885417 L8.1859375,6.33885417 L8.1859375,8.85760417 L6.50677083,8.85760417 L6.50677083,10.5367708 L8.1859375,10.5367708 L8.1859375,13.0555208 L6.50677083,13.0555208 L6.50677083,14.7346875 L8.1859375,14.7346875 L8.1859375,16.4558333 C8.1859375,16.7496875 8.35385417,17.0435417 8.60572917,17.2114583 C10.1169792,17.9670833 10.9145833,19.2684375 10.9145833,20.7796875 Z" id="Shape"></path>
        </g>
    </g>
</svg>