<?xml version="1.0" encoding="UTF-8"?>
<svg width="34px" height="34px" viewBox="0 0 34 34" version="1.1" xmlns="http://www.w3.org/2000/svg" xmlns:xlink="http://www.w3.org/1999/xlink">
    <!-- Generator: Sketch 54.1 (76490) - https://sketchapp.com -->
    <title>Artboard</title>
    <desc>Created with Sketch.</desc>
    <g id="Artboard" stroke="none" stroke-width="1" fill="none" fill-rule="evenodd">
        <path d="M24.4824696,16.1341881 C25.9288444,18.6451319 25.9062953,21.7414725 24.4235041,24.2310846 C22.8643662,26.9869578 19.9429537,28.6907075 16.7766075,28.6907075 C13.6102614,28.6907075 10.6888489,26.9869578 9.12971099,24.2310846 C7.64595661,21.7420352 7.62222075,18.6456919 9.06764203,16.1341881 L9.11419375,16.0597053 L16.0162627,6.3893605 C16.1910654,6.14499243 16.4730515,6 16.7735041,6 C17.0739566,6 17.3559428,6.14499243 17.5307455,6.3893605 L24.4359179,16.0597053 L24.4824696,16.1341881 Z M22.8066075,23.3031536 L22.8066075,23.3000502 C23.9613458,21.4047921 23.9934512,19.0313667 22.8904006,17.1055674 L16.7735041,8.53384326 L10.6535041,17.0962571 C9.54649531,19.0257643 9.57981011,21.4053927 10.7404006,23.3031536 C11.9671586,25.481796 14.2732205,26.8298047 16.7735041,26.8298047 C19.2737877,26.8298047 21.5798496,25.481796 22.8066075,23.3031536 Z M14.6910903,22.6048777 L14.6941938,22.6079812 C15.2083899,22.6079812 15.6252282,23.0248195 15.6252282,23.5390157 C15.6252282,24.0532118 15.2083899,24.4700502 14.6941938,24.4700502 C13.2150228,24.4700502 12.0159179,23.2709452 12.0159179,21.7917743 C12.0159179,21.2775781 12.4327562,20.8607398 12.9469524,20.8607398 C13.4611485,20.8607398 13.8779869,21.2775781 13.8779869,21.7917743 C13.8796884,22.2401322 14.2427324,22.6031762 14.6910903,22.6048777 Z" id="internal-hydration-sleeve" fill="#393939" fill-rule="nonzero"></path>
    </g>
</svg>