<?xml version="1.0" encoding="UTF-8"?>
<svg width="34px" height="34px" viewBox="0 0 34 34" version="1.1" xmlns="http://www.w3.org/2000/svg" xmlns:xlink="http://www.w3.org/1999/xlink">
    <!-- Generator: Sketch 54.1 (76490) - https://sketchapp.com -->
    <title>Artboard</title>
    <desc>Created with Sketch.</desc>
    <g id="Artboard" stroke="none" stroke-width="1" fill="none" fill-rule="evenodd">
        <path d="M26.862069,11.7103448 C28.0344828,11.8344828 29,12.8344828 28.9931034,14.0413793 L28.9931034,27.0344828 C28.9931034,28.3241379 27.9310345,29.3793103 26.6413793,29.3793103 L7.35172414,29.3793103 C6.06206897,29.3793103 5,28.3241379 5,27.0344828 L5,14.0413793 C5,12.8344828 5.96551724,11.8344828 7.13793103,11.7103448 L7.13793103,10.1931034 C7.13793103,8.90344828 8.16551724,7.86206897 9.45517241,7.86206897 L9.89655172,7.86206897 L9.89655172,6.34482759 C9.89655172,5.05517241 10.9655172,4 12.2551724,4 L21.7448276,4 C23.0413793,4 24.1034483,5.05517241 24.1034483,6.34482759 L24.1034483,7.86206897 L24.5448276,7.86206897 C25.8413793,7.86206897 26.862069,8.90344828 26.862069,10.1931034 L26.862069,11.7103448 Z M11.8275862,6.34482759 L11.8275862,7.86206897 L22.1724138,7.86206897 L22.1724138,6.34482759 C22.1724138,6.11724138 21.9724138,5.93103448 21.7448276,5.93103448 L12.2551724,5.93103448 C12.0275862,5.93103448 11.8275862,6.11724138 11.8275862,6.34482759 Z M9.06896552,10.1931034 L9.06896552,11.7241379 L24.9310345,11.7241379 L24.9310345,10.1931034 C24.9310345,9.96551724 24.7724138,9.79310345 24.5448276,9.79310345 L9.45517241,9.79310345 C9.22758621,9.79310345 9.06896552,9.96551724 9.06896552,10.1931034 Z M27.0689655,27.0344828 L27.0689655,14.0689655 C27.0689655,13.8413793 26.8827586,13.6551724 26.6551724,13.6551724 L7.34482759,13.6551724 C7.11724138,13.6551724 6.93103448,13.8413793 6.93103448,14.0689655 L6.93103448,27.0344828 C6.93103448,27.262069 7.11724138,27.4482759 7.34482759,27.4482759 L26.6551724,27.4482759 C26.8827586,27.4482759 27.0689655,27.262069 27.0689655,27.0344828 Z M13.6896552,18 L20.3103448,18 L20.3103448,19.9310345 L13.6896552,19.9310345 L13.6896552,18 Z" id="internal-organization" fill="#393939" fill-rule="nonzero"></path>
    </g>
</svg>