<?xml version="1.0" encoding="UTF-8"?>
<svg width="34px" height="34px" viewBox="0 0 34 34" version="1.1" xmlns="http://www.w3.org/2000/svg" xmlns:xlink="http://www.w3.org/1999/xlink">
    <!-- Generator: Sketch 54.1 (76490) - https://sketchapp.com -->
    <title>Artboard</title>
    <desc>Created with Sketch.</desc>
    <g id="Artboard" stroke="none" stroke-width="1" fill="none" fill-rule="evenodd">
        <path d="M27.9331627,10.4051627 C28.057816,10.4874772 28.1328143,10.626877 28.1328143,10.776256 C28.1328143,10.9256351 28.057816,11.0650349 27.9331627,11.1473494 L16.8111983,18.4785138 C16.662657,18.5763148 16.4701573,18.5763148 16.3216161,18.4785138 L5.19965161,11.1473494 C5.07499836,11.0650349 5,10.9256351 5,10.776256 C5,10.626877 5.07499836,10.4874772 5.19965161,10.4051627 L16.3216161,3.07356714 C16.4700707,2.97547762 16.6627436,2.97547762 16.8111983,3.07356714 L27.9331627,10.4051627 Z M16.5664072,17.5753094 L26.8806294,10.776256 L16.5664072,3.97677603 L6.25218494,10.776256 L16.5664072,17.5753094 Z M27.9331627,16.3539494 C28.057816,16.4362638 28.1328143,16.5756636 28.1328143,16.7250427 C28.1328143,16.8744218 28.057816,17.0138215 27.9331627,17.096136 L16.8111983,24.4273094 C16.662657,24.5251103 16.4701573,24.5251103 16.3216161,24.4273094 L5.19965161,17.096136 C5.07499836,17.0138215 5,16.8744218 5,16.7250427 C5,16.5756636 5.07499836,16.4362638 5.19965161,16.3539494 L8.03083383,14.4876294 C8.2357652,14.3529768 8.51102712,14.4096848 8.64604927,14.6143729 C8.78107142,14.819061 8.72486016,15.0944248 8.52041605,15.229816 L6.25218494,16.7250427 L16.5664072,23.5240871 L26.8806472,16.7250249 L24.7178872,15.2992471 C24.5134431,15.1638559 24.4572318,14.8884921 24.5922539,14.683804 C24.7272761,14.4791159 25.002538,14.4224079 25.2074694,14.5570605 L27.9331627,16.3539494 Z M28.1328116,22.9663627 C28.13272,23.115718 28.0577447,23.2550768 27.9331627,23.337456 L16.8111983,30.6690516 C16.662657,30.7668526 16.4701573,30.7668526 16.3216161,30.6690516 L5.19965161,23.337456 C5.07499836,23.2551415 5,23.1157418 5,22.9663627 C5,22.8169836 5.07499836,22.6775838 5.19965161,22.5952694 L8.03083383,20.7289494 C8.2357652,20.5942968 8.51102712,20.6510048 8.64604927,20.8556929 C8.78107142,21.060381 8.72486016,21.3357448 8.52041605,21.471136 L6.25218494,22.9663627 L16.5664072,29.7658427 L26.8806427,22.9663271 L24.7178827,21.5409938 C24.5134386,21.4056025 24.4572273,21.1302387 24.5922495,20.9255507 C24.7272717,20.7208626 25.0025336,20.6641545 25.2074649,20.7988071 L27.9331583,22.5952516 C28.057826,22.6775613 28.1328284,22.8169742 28.1328116,22.9663627 Z" id="lay-flat" stroke="#393939" stroke-width="0.7" fill="#393939" fill-rule="nonzero"></path>
    </g>
</svg>