<?xml version="1.0" encoding="UTF-8"?>
<svg width="34px" height="34px" viewBox="0 0 34 34" version="1.1" xmlns="http://www.w3.org/2000/svg" xmlns:xlink="http://www.w3.org/1999/xlink">
    <!-- Generator: Sketch 54.1 (76490) - https://sketchapp.com -->
    <title>Artboard</title>
    <desc>Created with Sketch.</desc>
    <g id="Artboard" stroke="none" stroke-width="1" fill="none" fill-rule="evenodd">
        <g id="lightweight" transform="translate(2.000000, 11.000000)" fill="#393939" fill-rule="nonzero" stroke="#393939" stroke-width="0.2">
            <path d="M28.8,2.55789474 C27.3157895,1.32631579 24.7894737,1.92631579 23.8421053,2.36842105 C22.3578947,3.09473684 21.4421053,4.07368421 20.6842105,4.89473684 C20.4947368,5.08421053 20.3368421,5.27368421 20.1473684,5.46315789 C19.9894737,5.62105263 19.9894737,5.84210526 20.0842105,6.03157895 L20.6842105,6.88421053 L19.4526316,6.63157895 C19.2947368,6.6 19.1684211,6.66315789 19.0421053,6.75789474 C19.0421053,6.78947368 17.5578947,8.33684211 16.1052632,9.25263158 C15.9473684,9.34736842 15.7578947,9.47368421 15.6,9.56842105 C12.8842105,9.53684211 8.21052632,7.26315789 5.49473684,5.81052632 L5.65263158,5.81052632 C5.65263158,5.81052632 5.65263158,5.81052632 5.65263158,5.81052632 C5.90526316,5.81052632 6.09473684,5.62105263 6.06315789,5.36842105 C6.06315789,5.11578947 5.87368421,4.92631579 5.62105263,4.92631579 L4.70526316,4.92631579 L5.71578947,4.32631579 C5.93684211,4.2 6,3.94736842 5.87368421,3.72631579 C5.74736842,3.50526316 5.49473684,3.44210526 5.27368421,3.56842105 L3.94736842,4.35789474 L4.32631579,3.56842105 C4.42105263,3.34736842 4.32631579,3.09473684 4.13684211,3 C3.91578947,2.90526316 3.66315789,3 3.56842105,3.18947368 L3.09473684,4.10526316 C2.08421053,2.17894737 2.02105263,0.726315789 2.02105263,0.694736842 C2.02105263,0.442105263 1.83157895,0.252631579 1.57894737,0.252631579 C1.32631579,0.252631579 1.13684211,0.442105263 1.13684211,0.694736842 C1.13684211,0.852631579 1.2,2.65263158 2.52631579,4.92631579 L0.536842105,4.95789474 C0.536842105,4.95789474 0.536842105,4.95789474 0.536842105,4.95789474 C0.284210526,4.95789474 0.0947368421,5.14736842 0.126315789,5.4 C0.126315789,5.65263158 0.315789474,5.84210526 0.568421053,5.84210526 L1.48421053,5.84210526 L0.852631579,6.22105263 C0.631578947,6.34736842 0.568421053,6.6 0.694736842,6.82105263 C0.789473684,6.94736842 0.947368421,7.01052632 1.10526316,7.01052632 C1.16842105,7.01052632 1.26315789,6.97894737 1.32631579,6.94736842 L2.71578947,6.12631579 C3.03157895,10.6105263 6.69473684,11.7157895 6.97894737,11.7789474 C6.97894737,11.7789474 6.97894737,11.7789474 7.01052632,11.7789474 C7.01052632,11.7789474 7.01052632,11.7789474 7.01052632,11.7789474 C7.01052632,11.7789474 7.01052632,11.7789474 7.01052632,11.7789474 L7.01052632,11.7789474 C7.01052632,11.7789474 7.01052632,11.7789474 7.01052632,11.7789474 L7.01052632,11.7789474 C7.07368421,11.7789474 10.3578947,12.5368421 14.3368421,12.7894737 C14.3684211,12.7894737 14.4,12.8210526 14.4315789,12.8210526 C14.5578947,12.8210526 14.6526316,12.8210526 14.7789474,12.8210526 C15.5684211,12.8526316 16.3578947,12.8842105 17.1789474,12.8842105 C17.4,12.8842105 17.6210526,12.8842105 17.8421053,12.8842105 C24.4421053,12.7578947 28.4842105,10.7052632 29.4947368,6.94736842 C30.0631579,4.89473684 29.8421053,3.41052632 28.8,2.55789474 Z M11.0526316,10.9578947 C7.95789474,9.56842105 5.90526316,7.89473684 4.57894737,6.28421053 C6.85263158,7.51578947 10.9894737,9.6 14.0842105,10.2315789 C13.1368421,10.5789474 12.1263158,10.8315789 11.0526316,10.9578947 Z M3.63157895,6.53684211 C4.83157895,8.05263158 6.63157895,9.63157895 9.28421053,11.0526316 C8.62105263,11.0526316 7.92631579,11.0210526 7.2,10.9263158 C6.85263158,10.8315789 4.07368421,10.0105263 3.63157895,6.53684211 Z M28.6736842,6.72631579 C27.8210526,9.85263158 24.6947368,11.2421053 21.0947368,11.7473684 C26.2421053,9.63157895 27.6631579,5.11578947 27.6631579,5.05263158 C27.7263158,4.83157895 27.6,4.57894737 27.3789474,4.51578947 C27.1578947,4.45263158 26.9052632,4.57894737 26.8421053,4.8 C26.7473684,5.08421053 24.5684211,12 15.0947368,11.9368421 C13.9894737,11.8736842 12.9473684,11.7789474 11.9684211,11.6842105 C13.6736842,11.4 15.1894737,10.8315789 16.5789474,9.94736842 C17.8421053,9.15789474 19.0736842,7.92631579 19.5157895,7.48421053 L21.6315789,7.89473684 C21.8210526,7.92631579 21.9789474,7.86315789 22.0736842,7.70526316 C22.1684211,7.54736842 22.1684211,7.35789474 22.0736842,7.23157895 L21.0631579,5.81052632 C21.1578947,5.71578947 21.2526316,5.58947368 21.3473684,5.49473684 C22.0736842,4.70526316 22.8947368,3.78947368 24.2210526,3.15789474 C25.0736842,2.74736842 27.1894737,2.33684211 28.2315789,3.22105263 C28.9894737,3.85263158 29.1473684,5.02105263 28.6736842,6.72631579 Z" id="Shape"></path>
        </g>
    </g>
</svg>