<?xml version="1.0" encoding="UTF-8"?>
<svg width="34px" height="34px" viewBox="0 0 34 34" version="1.1" xmlns="http://www.w3.org/2000/svg" xmlns:xlink="http://www.w3.org/1999/xlink">
    <!-- Generator: Sketch 54.1 (76490) - https://sketchapp.com -->
    <title>Artboard</title>
    <desc>Created with Sketch.</desc>
    <g id="Artboard" stroke="none" stroke-width="1" fill="none" fill-rule="evenodd">
        <g id="media-compatible" transform="translate(9.000000, 2.000000)" fill="#393939" fill-rule="nonzero" stroke="#393939" stroke-width="0.35">
            <path d="M15.9039963,2.83333333 L15.904,2.7535 C15.908,2.4655 15.9145,1.9835 15.587,1.652 C15.3005,1.3615 14.7935,1.214 14.0805,1.214 L2.9195,1.214 C2.2065,1.214 1.6995,1.3615 1.4125,1.652 C1.0855,1.9835 1.092,2.4655 1.096,2.7535 L1.09647239,2.83333333 L15.9039963,2.83333333 Z M15.9039531,3.77777778 L1.0965,3.77777778 L1.0965,21.7222222 L15.9031307,21.7222222 L15.9039531,3.77777778 Z M15.9030874,22.6666667 L1.0965,22.6666667 L1.0965,24.5735 C1.0965,28.6285 1.1835,28.7865 3.424,28.7865 L13.576,28.7865 C15.816,28.7865 15.903,28.629 15.903,24.5735 L15.9030874,22.6666667 Z M13.576,29.786 L3.4245,29.786 C0.097,29.786 0.097,28.4725 0.097,24.573 L0.096,2.767 C0.0915,2.4115 0.08,1.5785 0.7005,0.9495 C1.182,0.461 1.929,0.2135 2.9195,0.2135 L14.081,0.2135 C15.071,0.2135 15.818,0.461 16.2995,0.9495 C16.92,1.5785 16.909,2.4115 16.904,2.767 L16.9035,2.838 L16.9035,24.5735 C16.9035,28.4725 16.9035,29.786 13.576,29.786 Z M8.5,27.3646111 C7.5235,27.3646111 6.7295,26.5701111 6.7295,25.5941111 C6.7295,24.6186111 7.5235,23.8246111 8.5,23.8246111 C9.476,23.8246111 10.2705,24.6186111 10.2705,25.5941111 C10.2705,26.5701111 9.476,27.3646111 8.5,27.3646111 Z M8.5,24.8246111 C8.075,24.8246111 7.7295,25.1696111 7.7295,25.5941111 C7.7295,26.0191111 8.075,26.3646111 8.5,26.3646111 C8.925,26.3646111 9.2705,26.0191111 9.2705,25.5941111 C9.2705,25.1696111 8.925,24.8246111 8.5,24.8246111 Z" id="Combined-Shape"></path>
        </g>
    </g>
</svg>