<?xml version="1.0" encoding="UTF-8"?>
<svg width="34px" height="34px" viewBox="0 0 34 34" version="1.1" xmlns="http://www.w3.org/2000/svg" xmlns:xlink="http://www.w3.org/1999/xlink">
    <!-- Generator: Sketch 54.1 (76490) - https://sketchapp.com -->
    <title>Artboard</title>
    <desc>Created with Sketch.</desc>
    <g id="Artboard" stroke="none" stroke-width="1" fill="none" fill-rule="evenodd">
        <g id="medium-impact" transform="translate(2.000000, 12.000000)" fill="#393939" fill-rule="nonzero">
            <path d="M30,0 L30,8.49135484 L0,8.49135484 L0,0 L30,0 Z M2.14296774,2.14296774 L14.2203871,2.14296774 L14.2203871,6.3483871 L2.14296774,6.3483871 L2.14296774,2.14296774 Z M15.7796129,2.14296774 L17.5954839,2.14296774 L17.5954839,6.3483871 L15.7796129,6.3483871 L15.7796129,2.14296774 Z M19.1539355,2.14296774 L20.9698065,2.14296774 L20.9698065,6.3483871 L19.1539355,6.3483871 L19.1539355,2.14296774 L19.1539355,2.14296774 Z M22.5290323,2.14296774 L24.3445161,2.14296774 L24.3445161,6.3483871 L22.5290323,6.3483871 L22.5290323,2.14296774 Z M25.9037419,2.14296774 L27.8570323,2.14296774 L27.8570323,6.3483871 L25.9037419,6.3483871 L25.9037419,2.14296774 Z M28.7891613,1.21083871 L1.21045161,1.21083871 L1.21045161,7.28090323 L28.7891613,7.28090323 L28.7891613,1.21083871 Z" id="Shape"></path>
        </g>
    </g>
</svg>