<?xml version="1.0" encoding="UTF-8"?>
<svg width="34px" height="34px" viewBox="0 0 34 34" version="1.1" xmlns="http://www.w3.org/2000/svg" xmlns:xlink="http://www.w3.org/1999/xlink">
    <!-- Generator: Sketch 54.1 (76490) - https://sketchapp.com -->
    <title>Artboard</title>
    <desc>Created with Sketch.</desc>
    <g id="Artboard" stroke="none" stroke-width="1" fill="none" fill-rule="evenodd">
        <g id="non-hooded" transform="translate(3.000000, 5.000000)" fill="#393939" fill-rule="nonzero" stroke="#393939" stroke-width="0.3">
            <path d="M10.5367965,0.047186563 C10.5103009,0.0531888156 10.484465,0.0618007778 10.4596672,0.0728963224 L8.86566215,0.869898864 C8.85671754,0.878085708 8.84813924,0.886664003 8.8399524,0.895608623 L8.78853288,0.921318383 C8.77958826,0.929505227 8.77100996,0.938083522 8.76282312,0.947028142 L5.52339348,2.54103322 C5.49437426,2.56320559 5.46843657,2.58914327 5.44626421,2.6181625 L3.77512987,4.28929686 C3.72955972,4.33222195 3.69438701,4.38498101 3.67229083,4.44355542 L1.28128325,15.1131056 L1.25557349,15.1131056 C1.21298861,15.1063696 1.16960957,15.1063696 1.12702469,15.1131056 C0.956345886,15.1430095 0.82270178,15.2766536 0.792797825,15.4473324 L0.458570958,17.0670473 C0.410539003,17.2868436 0.54797902,17.504457 0.767088066,17.5555327 L5.60052276,18.5067938 C5.81146276,18.5395988 6.01244914,18.4056078 6.06329842,18.1982767 L6.42323505,16.6042716 C6.46899239,16.4210921 6.38418738,16.2302809 6.21755698,16.1414959 L7.34878637,11.8479661 L7.34878637,22.5946456 C7.34880909,22.8218219 7.5329662,23.005979 7.76014252,23.0060017 L20.1522464,23.0060017 C20.3794227,23.005979 20.5635798,22.8218219 20.5636025,22.5946456 L20.5636025,11.9765149 L21.6434124,16.2186252 C21.4875365,16.3044929 21.4045443,16.4808513 21.4377343,16.6556911 L21.7462514,18.2496962 C21.7641341,18.3653901 21.8304591,18.4679862 21.9286139,18.5317868 C22.0267686,18.5955874 22.1474559,18.6145493 22.2604466,18.5839231 L27.0938813,17.6583718 C27.3129903,17.607296 27.4504304,17.3896827 27.4023984,17.1698863 L27.0938813,15.5501715 C27.0428056,15.3310624 26.8251922,15.1936224 26.6053959,15.2416544 L26.5796861,15.2416544 L24.1629688,4.44355542 C24.1408726,4.38498101 24.1056999,4.33222195 24.0601297,4.28929686 L22.4147052,2.6181625 C22.3846788,2.58722283 22.3499756,2.5611954 22.3118661,2.54103322 L19.1495658,0.998447661 C19.1258753,0.978456789 19.1000013,0.961207477 19.0724365,0.947028142 L19.0467267,0.921318383 C19.0381589,0.921050534 19.0295848,0.921050534 19.021017,0.921318383 L18.9953072,0.895608623 C18.9705094,0.884513079 18.9446735,0.875901116 18.9181779,0.869898864 L17.3755924,0.0728963224 C17.2392273,0.0146489153 17.0820677,0.0342938618 16.9642362,0.124315841 L13.8533554,2.36106491 L10.8967331,0.124315841 C10.79559,0.0433691571 10.6622271,0.0147913985 10.5367965,0.047186563 Z M10.6139258,0.947028142 L13.0820626,2.79813082 L12.3107699,3.23519673 L9.79121348,1.35838429 L10.6139258,0.947028142 Z M17.2470436,0.947028142 L18.0440461,1.35838429 L15.5244897,3.26090649 L14.6246482,2.79813082 L17.2470436,0.947028142 Z M8.94279143,1.76974044 L12.0279625,4.08361879 C12.1622576,4.18653642 12.3458695,4.19673708 12.4907382,4.10932855 L13.8019359,3.31232601 L15.3702312,4.10932855 C15.5087622,4.18543 15.6786437,4.17543697 15.8072971,4.08361879 L18.8924682,1.76974044 L21.9262197,3.28661625 L23.391676,4.77778229 L25.7312641,15.3187836 L22.4147052,15.9615276 L20.5636025,8.68566572 L20.5636025,8.65995596 L20.5378927,8.58282668 C20.4763335,8.40228339 20.298743,8.2877358 20.1088803,8.3061096 C19.9190177,8.3244834 19.7666875,8.47095882 19.7408902,8.65995596 L19.7408902,22.2089992 L8.17149866,22.2089992 L8.17149866,8.762795 L8.17149866,8.65995596 C8.20699642,8.43277024 8.05160263,8.2198232 7.82441691,8.18432543 C7.59723119,8.14882766 7.38428415,8.30422144 7.34878637,8.53140716 L5.42055445,15.9615276 L2.10399553,15.2930739 L4.4435836,4.77778229 L5.90903987,3.28661625 L5.96045939,3.26090649 L8.94279143,1.76974044 Z M1.48696132,16.0129471 L5.52339348,16.8356594 L5.36913493,17.6069522 L1.35841252,16.8356594 L1.48696132,16.0129471 Z M26.374008,16.1414959 L26.5025568,16.9127887 L22.4918344,17.7097913 L22.3375759,16.887079 L26.374008,16.1414959 Z" id="Shape"></path>
        </g>
    </g>
</svg>