<?xml version="1.0" encoding="UTF-8"?>
<svg width="34px" height="34px" viewBox="0 0 34 34" version="1.1" xmlns="http://www.w3.org/2000/svg" xmlns:xlink="http://www.w3.org/1999/xlink">
    <!-- Generator: Sketch 54.1 (76490) - https://sketchapp.com -->
    <title>Artboard</title>
    <desc>Created with Sketch.</desc>
    <g id="Artboard" stroke="none" stroke-width="1" fill="none" fill-rule="evenodd">
        <g id="packable-stowable" transform="translate(5.000000, 3.000000)" fill="#393939" fill-rule="nonzero" stroke="#393939" stroke-width="0.7">
            <path d="M23.3667556,7.75607556 L12.2447911,0.42448 C12.0963365,0.326390482 11.9036635,0.326390482 11.7552089,0.42448 L0.633244444,7.75607556 C0.508591199,7.83839003 0.433592838,7.97778982 0.433592838,8.12716889 C0.433592838,8.27654795 0.508591199,8.41594774 0.633244444,8.49826222 L11.7552089,15.8294267 C11.9037501,15.9272276 12.0962499,15.9272276 12.2447911,15.8294267 L23.3667556,8.49826222 C23.4914088,8.41594774 23.5664072,8.27654795 23.5664072,8.12716889 C23.5664072,7.97778982 23.4914088,7.83839003 23.3667556,7.75607556 L23.3667556,7.75607556 Z M12,14.9262222 L1.68577778,8.12716889 L12,1.32768889 L22.3142222,8.12716889 L12,14.9262222 Z" id="Shape"></path>
            <path d="M23.3667556,13.7048622 L20.6410622,11.9079733 C20.4361308,11.7733207 20.1608689,11.8300288 20.0258468,12.0347169 C19.8908246,12.2394049 19.9470359,12.5147687 20.15148,12.65016 L22.31424,14.0759378 L12,20.875 L1.68577778,14.0759556 L3.95400889,12.5807289 C4.15845299,12.4453376 4.21466426,12.1699738 4.07964211,11.9652858 C3.94461996,11.7605977 3.66935804,11.7038896 3.46442667,11.8385422 L0.633244444,13.7048622 C0.508591199,13.7871767 0.433592838,13.9265765 0.433592838,14.0759556 C0.433592838,14.2253346 0.508591199,14.3647344 0.633244444,14.4470489 L11.7552089,21.7782222 C11.9037501,21.8760232 12.0962499,21.8760232 12.2447911,21.7782222 L23.3667556,14.4470489 C23.4914088,14.3647344 23.5664072,14.2253346 23.5664072,14.0759556 C23.5664072,13.9265765 23.4914088,13.7871767 23.3667556,13.7048622 L23.3667556,13.7048622 Z" id="Path"></path>
            <path d="M23.5664044,20.3172756 C23.5664213,20.167887 23.4914188,20.0284742 23.3667511,19.9461644 L20.6410578,18.14972 C20.4361264,18.0150674 20.1608645,18.0717755 20.0258423,18.2764635 C19.8908202,18.4811516 19.9470315,18.7565154 20.1514756,18.8919067 L22.3142356,20.31724 L12,27.1167556 L1.68577778,20.3172756 L3.95400889,18.8220489 C4.15845299,18.6866576 4.21466426,18.4112938 4.07964211,18.2066058 C3.94461996,18.0019177 3.66935804,17.9452096 3.46442667,18.0798622 L0.633244444,19.9461822 C0.508591199,20.0284967 0.433592838,20.1678965 0.433592838,20.3172756 C0.433592838,20.4666546 0.508591199,20.6060544 0.633244444,20.6883689 L11.7552089,28.0199644 C11.9037501,28.1177654 12.0962499,28.1177654 12.2447911,28.0199644 L23.3667556,20.6883689 C23.4913375,20.6059896 23.5663128,20.4666309 23.5664044,20.3172756 Z" id="Path"></path>
        </g>
    </g>
</svg>