<?xml version="1.0" encoding="UTF-8"?>
<svg width="34px" height="34px" viewBox="0 0 34 34" version="1.1" xmlns="http://www.w3.org/2000/svg" xmlns:xlink="http://www.w3.org/1999/xlink">
    <!-- Generator: Sketch 54.1 (76490) - https://sketchapp.com -->
    <title>Artboard</title>
    <desc>Created with Sketch.</desc>
    <g id="Artboard" stroke="none" stroke-width="1" fill="none" fill-rule="evenodd">
        <g id="recycled-content" transform="translate(3.000000, 3.000000)" fill="#393939" fill-rule="nonzero" stroke="#393939" stroke-width="0.4">
            <path d="M0.595809494,16.2836568 C0.266788792,16.2836568 6.48131104e-05,16.0169328 6.48131104e-05,15.6879121 C-0.0211789976,8.93727191 5.18240038,3.32000797 11.9149584,2.82578448 L10.1277244,1.03855044 C9.97341606,0.886370498 9.91201631,0.663427922 9.96665384,0.453703019 C10.0212914,0.243978117 10.1836654,0.0793330897 10.3926113,0.0217881258 C10.6015571,-0.0357568381 10.825331,0.0225407104 10.9796393,0.174720649 L13.7438946,2.97472065 C13.9748789,3.20708339 13.9748789,3.58235791 13.7438946,3.81472065 L10.9796393,6.6087632 C10.8285235,6.76094315 10.6076998,6.82094393 10.4003502,6.76616382 C10.1930007,6.71138372 10.0306266,6.55014514 9.97439278,6.34318509 C9.91815896,6.13622505 9.97660864,5.91498569 10.1277244,5.76280576 L11.8434691,4.02918873 C5.80203306,4.55568181 1.17175363,9.6236107 1.19155417,15.6879121 C1.19155417,15.8459135 1.1287884,15.9974434 1.0170646,16.1091672 C0.905340798,16.220891 0.753810807,16.2836568 0.595809494,16.2836568 Z M18.5515542,25.8155717 C13.3212793,28.8668548 6.62036314,27.3311196 3.24091588,22.3066355 L5.57623503,22.9381249 C5.78438504,23.0019357 6.01076676,22.947121 6.16667122,22.7951603 C6.32257569,22.6431997 6.38317139,22.4182964 6.32471357,22.2085801 C6.26625575,21.9988638 6.0980552,21.8377368 5.88602226,21.7883377 L2.10304354,20.7815292 C1.95019967,20.7404579 1.78729486,20.7618928 1.65027758,20.8411036 C1.51217553,20.9200044 1.41135797,21.0508527 1.37027758,21.2045079 L0.363469068,25.0172738 C0.280228848,25.3346893 0.469346732,25.6596524 0.786447792,25.7440824 C0.837858993,25.750823 0.889930208,25.750823 0.941341409,25.7440824 C1.21828453,25.7535687 1.46520107,25.5708505 1.53708609,25.3032313 L2.19240524,22.8308909 C5.87938533,28.4827391 13.3540999,30.24458 19.1770861,26.8342951 C19.3892402,26.7392614 19.5267374,26.5295033 19.5292521,26.2970501 C19.5317668,26.064597 19.3988396,25.8519134 19.188791,25.7523123 C18.9787424,25.6527112 18.7299442,25.6843877 18.5515542,25.8334441 L18.5515542,25.8155717 Z M27.4043201,21.1449334 C27.362551,20.9923979 27.2618445,20.8627304 27.1243937,20.7845064 C26.9869428,20.7062823 26.8240289,20.6859219 26.6715542,20.7279121 L24.2170861,21.3891887 C27.1861366,15.3070623 24.9815259,7.96441194 19.1532563,4.52365682 C18.968582,4.40625975 18.7344109,4.3995586 18.5433253,4.50620276 C18.3522397,4.61284692 18.2350021,4.81566792 18.2379638,5.03447814 C18.2409255,5.25328836 18.3636096,5.45286192 18.5575116,5.55429512 C23.7885989,8.64367236 25.8136026,15.2036523 23.2341074,20.7040824 L22.6383627,18.3568483 C22.5949828,18.1395788 22.4346138,17.9643301 22.2220357,17.9018929 C22.0094576,17.8394556 21.7797902,17.9001449 21.6258062,18.0594458 C21.4718221,18.2187466 21.4189609,18.4503411 21.4885755,18.6606781 L22.5013414,22.4794015 C22.5418229,22.6330366 22.6419957,22.764137 22.7795956,22.8435646 C22.9171956,22.9229922 23.0808219,22.9441661 23.2341074,22.9023802 L27.0111286,21.8776994 C27.3191876,21.7804481 27.4936066,21.4553944 27.4043201,21.1449334 Z" id="Shape"></path>
        </g>
    </g>
</svg>