<?xml version="1.0" encoding="UTF-8"?>
<svg width="34px" height="34px" viewBox="0 0 34 34" version="1.1" xmlns="http://www.w3.org/2000/svg" xmlns:xlink="http://www.w3.org/1999/xlink">
    <!-- Generator: Sketch 54.1 (76490) - https://sketchapp.com -->
    <title>Artboard</title>
    <desc>Created with Sketch.</desc>
    <g id="Artboard" stroke="none" stroke-width="1" fill="none" fill-rule="evenodd">
        <g id="reflective" transform="translate(4.000000, 3.000000)" fill="#393939" fill-rule="nonzero" stroke="#393939" stroke-width="0.35">
            <path d="M17.4114903,24.6535091 L17.4070366,24.6535091 C17.2528349,24.6535091 17.1047569,24.5906037 16.9973171,24.4798211 C16.8898774,24.3690414 16.832538,24.2187387 16.8375493,24.064537 L16.8392193,23.9275911 C16.8392193,23.9120038 16.8392193,23.8646857 16.8392193,23.8496546 C16.832538,22.1834982 16.4417458,13.8699704 9.36684155,13.8699704 C9.05175686,13.8699704 8.79679528,13.6150088 8.79679528,13.2999242 C8.79679528,12.9848409 9.05175689,12.7298793 9.36684155,12.7298793 C16.4417458,12.7298793 16.832538,4.41635088 16.8392193,2.75019375 C16.8392193,2.73516333 16.8392193,2.68784524 16.8392193,2.67225792 L16.8375493,2.53531345 C16.832538,2.38111247 16.8898773,2.23080758 16.9973171,2.12002718 C17.2121981,1.89846634 17.6041041,1.89846634 17.8189837,2.12002718 C17.9264234,2.23080758 17.9859889,2.38111247 17.980979,2.53531345 L17.9793091,2.67225788 C17.9793091,2.67559853 17.9793091,2.67893846 17.9793091,2.6822784 C17.9787529,2.69174201 17.9787529,2.70176252 17.9776391,2.71122617 C17.9787529,2.72402971 17.9793091,2.7368333 17.9793091,2.75019375 C17.9859889,4.41635088 18.376225,12.7298793 25.4511292,12.7298793 C25.7662125,12.7298793 26.0211741,12.9848409 26.0211741,13.2999242 C26.0211741,13.6150089 25.7662125,13.8699704 25.4511292,13.8699704 C18.376225,13.8699704 17.9859889,22.1834982 17.9793091,23.8496546 C17.9793091,23.8502108 17.9793091,23.8502108 17.9793091,23.8502108 C17.9793091,23.8507698 17.9793091,23.851326 17.9793091,23.8518822 L17.9793091,23.8518822 C17.9793091,23.8641295 17.9787529,23.8763769 17.9776391,23.8886243 C17.9787529,23.9014278 17.9793091,23.9142314 17.9793091,23.9275911 L17.980979,24.064537 C17.9859889,24.2187387 17.928651,24.3690414 17.8212113,24.4798211 C17.71377,24.5906036 17.565692,24.6535091 17.4114903,24.6535091 Z M12.5443966,13.2999241 C15.4074259,14.4466952 16.7662927,17.1282443 17.4092642,19.5414735 C18.0522343,17.1282443 19.4105464,14.4466951 22.2735743,13.2999241 C19.4105464,12.1531545 18.0522343,9.47160399 17.4092642,7.05837621 C16.7662927,9.47160399 15.4074259,12.1531545 12.5443966,13.2999241 Z" id="Shape"></path>
            <path d="M4.1952405,11.0447956 C4.19301362,11.0447956 4.19023059,11.0447956 4.18800372,11.0447956 C3.88349715,11.0414557 3.63577231,10.7992977 3.6257525,10.493678 C3.6251956,10.4780907 3.62296876,10.4101753 3.62463873,10.3016218 C3.61294825,9.73547301 3.49437488,7.95853548 2.49234195,6.9414728 C2.00412975,6.44602312 1.38008619,6.20497887 0.584583649,6.20497887 C0.269500365,6.20497887 0.0145387892,5.95001725 0.0145387892,5.634934 C0.0145387892,5.31985001 0.269500402,5.06488844 0.584583649,5.06488844 C1.3895498,5.06488844 2.01860398,4.81827737 2.50904304,4.31113792 C3.55115661,3.233396 3.6218557,1.34011196 3.62408183,0.904784625 C3.62408183,0.891980373 3.62408183,0.880290597 3.62408183,0.869156275 C3.62408183,0.8351986 3.62352563,0.815715182 3.62352563,0.814044508 C3.61517509,0.579123923 3.75211952,0.363686793 3.96811355,0.270720547 C4.18188001,0.178310834 4.43405859,0.226742358 4.59883699,0.394304533 C4.70126685,0.498404728 4.75971855,0.644812774 4.76305919,0.790664288 L4.76528536,0.790664288 C4.76584226,0.839652381 4.76639913,0.910351433 4.76417229,0.998863972 C4.77975961,1.59674354 4.9116934,3.32914602 5.89646908,4.32839521 C6.38468127,4.82384418 7.00872413,5.06488844 7.80422738,5.06488844 C8.11931066,5.06488844 8.37427224,5.31985005 8.37427224,5.634934 C8.37427224,5.95001729 8.11931062,6.20497887 7.80422738,6.20497887 C6.99926052,6.20497887 6.36965018,6.45158993 5.87921183,6.95873009 C4.83542829,8.03814198 4.76584226,9.93532286 4.76417229,10.3667534 C4.76417229,10.3778869 4.76417229,10.3884643 4.76417229,10.3984842 C4.76417229,10.4335549 4.7647292,10.4535959 4.7647292,10.4558235 C4.77307904,10.6901865 4.6361346,10.9056236 4.42014127,10.9985899 C4.34777222,11.0297645 4.27150636,11.0447956 4.1952405,11.0447956 Z M2.68105821,5.63493404 C2.91375263,5.78356896 3.12974596,5.96059471 3.32903961,6.16656752 C3.70869827,6.55903044 3.98871078,7.02107793 4.19412743,7.4948166 C4.40010025,7.02107793 4.68011279,6.55903044 5.05977212,6.16656752 C5.25850816,5.96059471 5.47505839,5.78356892 5.70775281,5.63493404 C5.47505839,5.48629912 5.25850816,5.30927338 5.05977212,5.10385672 C4.68011275,4.71083761 4.40065711,4.24934561 4.19468359,3.7767207 C3.98425707,4.25992299 3.69645089,4.73032107 3.30398868,5.12890766 C3.11193251,5.32374689 2.90428899,5.4924228 2.68105821,5.63493404 Z" id="Shape"></path>
            <path d="M9.82944524,26.5551437 C9.82610531,26.5551437 9.82220917,26.5551437 9.81886924,26.5551437 C9.51603192,26.5501324 9.26997776,26.3079743 9.25995795,26.004026 C9.25940034,25.9906635 9.25773038,25.931098 9.25940034,25.8347932 C9.2460406,25.1372661 9.05454059,23.9376109 8.3959832,23.2695899 C8.03302421,22.9005086 7.5659654,22.721256 6.96919964,22.721256 C6.65411636,22.721256 6.39915478,22.4662944 6.39915478,22.1512112 C6.39915478,21.8361279 6.6541164,21.5811663 6.96919964,21.5811663 C7.57264669,21.5811663 8.04360163,21.3974585 8.40823058,21.020026 C9.29224492,20.106507 9.25884415,18.3540642 9.25828799,18.3362508 C9.24993673,18.1018864 9.38688117,17.8864492 9.6028745,17.793483 C9.81942543,17.7005167 10.0693771,17.7500624 10.2341562,17.9170676 C10.3365861,18.0211675 10.3950378,18.1664617 10.3978216,18.3123136 L10.3994916,18.3123136 C10.4000477,18.3540642 10.4000477,18.4152996 10.3983778,18.4921224 C10.4161912,19.192988 10.610475,20.3726036 11.2612387,21.0328324 C11.6241977,21.4019136 12.0912551,21.5811663 12.6880209,21.5811663 C13.0031056,21.5811663 13.2580671,21.8361279 13.2580671,22.1512111 C13.2580671,22.4662944 13.0031055,22.721256 12.6880209,22.721256 C12.0845752,22.721256 11.6136203,22.9049609 11.2489913,23.2823934 C10.364977,24.1959124 10.3983778,25.9483567 10.3989339,25.9661715 C10.4072852,26.2005345 10.2703408,26.4159702 10.054346,26.5089379 C9.98197696,26.5401125 9.90515565,26.5551437 9.82944524,26.5551437 Z M8.84021727,22.1512112 C8.97716171,22.2508559 9.10631246,22.3638631 9.22822577,22.489674 C9.47762129,22.7474193 9.6741312,23.0413506 9.82833288,23.3469703 C9.98309077,23.0413506 10.1796007,22.7474193 10.4289948,22.489674 C10.5509095,22.3638631 10.6800603,22.2508559 10.8170047,22.1512112 C10.6800603,22.0515636 10.5509095,21.9385564 10.4289948,21.8127455 C10.1801569,21.5550001 9.98364697,21.2616279 9.82944524,20.9565644 C9.67023365,21.2694229 9.46704387,21.5700313 9.20818616,21.8327879 C9.09239511,21.9508037 8.96992423,22.0565749 8.84021727,22.1512112 Z" id="Shape"></path>
        </g>
    </g>
</svg>