<?xml version="1.0" encoding="UTF-8"?>
<svg width="34px" height="34px" viewBox="0 0 34 34" version="1.1" xmlns="http://www.w3.org/2000/svg" xmlns:xlink="http://www.w3.org/1999/xlink">
    <!-- Generator: Sketch 54.1 (76490) - https://sketchapp.com -->
    <title>Artboard</title>
    <desc>Created with Sketch.</desc>
    <g id="Artboard" stroke="none" stroke-width="1" fill="none" fill-rule="evenodd">
        <g id="reversible" transform="translate(5.000000, 6.000000)" fill="#393939" fill-rule="nonzero" stroke="#393939" stroke-width="0.3">
            <path d="M12.5113636,0.0399981818 C12.4090485,0.0496761116 12.3115549,0.0879928568 12.2301136,0.150534545 L7.32102273,3.68770909 C7.18167689,3.7903077 7.09944158,3.95282347 7.09944158,4.12560409 C7.09944158,4.29838471 7.18167689,4.46090048 7.32102273,4.56349909 L12.2301136,8.10067364 C12.3844008,8.24675123 12.6097237,8.29003724 12.8073506,8.21156466 C13.0049776,8.13309209 13.1388627,7.94717383 13.1503405,7.73527524 C13.1618182,7.52337666 13.0487951,7.32414671 12.8607955,7.22488364 L9.31534091,4.67403545 L18.8181818,4.67403545 C19.9187201,4.67403545 20.9507048,5.00180727 21.6903409,5.62635273 C22.429977,6.25089818 22.9090909,7.16173636 22.9090909,8.48329909 C22.9090909,9.82176 22.4863364,10.6474418 21.8267045,11.1957055 C21.1670727,11.7439418 20.2119578,12.0204873 19.0909091,12.0204873 C18.894072,12.0175146 18.7108984,12.1205782 18.6116097,12.2901679 C18.5123209,12.4597575 18.5123209,12.6695625 18.6116097,12.8391521 C18.7108984,13.0087418 18.894072,13.1118054 19.0909091,13.1088327 C20.3873149,13.1088327 21.6077455,12.7918418 22.5255682,12.0289691 C23.4433909,11.2661509 24,10.0631509 24,8.48329909 C24,6.88654091 23.3719094,5.61567273 22.3977273,4.79307545 C21.4235452,3.97047818 20.1350981,3.58567364 18.8181818,3.58567364 L9.31534091,3.58567364 L12.8607955,1.02632455 C13.0588226,0.885399916 13.1393998,0.630698211 13.0583399,0.401893766 C12.9772799,0.173089321 12.7541715,0.0254742045 12.5113636,0.0399981818 L12.5113636,0.0399981818 Z M4.90909091,7.66702909 C3.61268509,7.66702909 2.39225427,7.97553545 1.47443182,8.73838364 C0.556609282,9.50123455 0,10.7127327 0,12.29256 C0,13.8893236 0.628090255,15.1516964 1.60227273,15.9742964 C2.57645509,16.7968964 3.86490245,17.1901964 5.18181818,17.1901964 L14.6846591,17.1901964 L11.1392045,19.7410418 C10.9511956,19.8403 10.8381638,20.0395334 10.8496397,20.251438 C10.8611155,20.4633426 10.9950057,20.6492661 11.1926397,20.7277371 C11.3902736,20.806208 11.6156021,20.7629129 11.7698864,20.6168236 L16.6789773,17.07966 C16.8183307,16.9770621 16.9005714,16.8145417 16.9005714,16.6417555 C16.9005714,16.4689692 16.8183307,16.3064488 16.6789773,16.2038509 L11.7698864,12.6666873 C11.667393,12.5888311 11.5405892,12.5496741 11.4119318,12.5561509 C11.1831375,12.5742213 10.9901502,12.7332302 10.9291163,12.9539594 C10.8680824,13.1746886 10.9520573,13.4099232 11.1392045,13.5424691 L14.6846591,16.1018236 L5.18181818,16.1018236 C4.08127936,16.1018236 3.04929491,15.7655509 2.30965909,15.1410055 C1.57002327,14.51646 1.09090909,13.6141418 1.09090909,12.29256 C1.09090909,10.9540964 1.51366336,10.1199327 2.17329545,9.57166091 C2.83292755,9.02340818 3.78804218,8.75539091 4.90909091,8.75539091 C5.10579722,8.75815983 5.28876072,8.65504938 5.38792379,8.48554106 C5.48708685,8.31603273 5.48708685,8.10638727 5.38792379,7.93687894 C5.28876072,7.76737062 5.10579722,7.66426017 4.90909091,7.66702909 Z" id="Shape"></path>
        </g>
    </g>
</svg>