<?xml version="1.0" encoding="UTF-8"?>
<svg width="34px" height="34px" viewBox="0 0 34 34" version="1.1" xmlns="http://www.w3.org/2000/svg" xmlns:xlink="http://www.w3.org/1999/xlink">
    <!-- Generator: Sketch 54.1 (76490) - https://sketchapp.com -->
    <title>Artboard</title>
    <desc>Created with Sketch.</desc>
    <g id="Artboard" stroke="none" stroke-width="1" fill="none" fill-rule="evenodd">
        <path d="M28.817,17.564697 C29.1431818,17.564697 29.4079091,17.8290303 29.408303,18.1552121 L29.408303,24.3991515 C29.408303,25.6333636 28.4041515,26.6375152 27.1695455,26.6375152 L26.6436364,26.6375152 C26.5459394,27.945 25.2802121,28.9838182 23.7336061,28.9838182 L9.67469697,28.9838182 C8.12809091,28.9838182 6.86236364,27.945 6.76466667,26.6375152 L6.23875758,26.6375152 C5.00415152,26.6375152 4,25.6333636 4,24.3991515 L4,18.1552121 C4,17.8290303 4.26433333,17.564303 4.59090909,17.564303 L6.75481818,17.564303 L6.75481818,12.7799091 C6.16981818,12.0672727 5.81763636,11.1564848 5.81763636,10.1645455 L5.81763636,5.59090909 C5.81763636,5.26433333 6.0819697,5 6.40854545,5 L26.9993636,5 C27.3255455,5 27.5902727,5.26433333 27.5902727,5.59090909 L27.5902727,10.1653333 C27.5902727,11.1572727 27.2380909,12.0680606 26.6530909,12.780697 L26.6530909,17.564697 L28.817,17.564697 Z M6.99945455,6.18181818 L6.99945455,10.1645455 C6.99945455,10.999303 7.35006061,11.7521212 7.90945455,12.2886667 L7.93663636,12.2886667 L7.93663636,12.3138788 C8.46372727,12.806697 9.16927273,13.1112121 9.94612121,13.1112121 L14.0690909,13.1112121 L14.0690909,12.9796364 C14.0690909,12.6530606 14.3334242,12.3887273 14.66,12.3887273 L18.748303,12.3887273 C19.0744848,12.3887273 19.3392121,12.6530606 19.3392121,12.9796364 L19.3392121,13.1112121 L23.4625758,13.1112121 C24.2394242,13.1112121 24.9445758,12.8070909 25.4712727,12.3142727 L25.4712727,12.2890606 L25.4988485,12.2890606 C26.0582424,11.7525152 26.4084545,10.999697 26.4084545,10.1653333 L26.4084545,6.18181818 L6.99945455,6.18181818 Z M5.18181818,24.3991515 C5.18181818,24.9817879 5.65612121,25.455697 6.23836364,25.455303 L6.75481818,25.4553033 L6.75481818,18.7461212 L5.18181818,18.7461212 L5.18181818,24.3991515 Z M25.4712727,26.476 L25.4712727,13.7675152 C24.8760303,14.1007879 24.1917576,14.2926364 23.4625758,14.2926364 L19.3392121,14.2926364 L19.3392121,14.4242121 C19.3392121,14.7507879 19.0744848,15.0151212 18.748303,15.0151212 L14.66,15.0151212 C14.3334242,15.0151212 14.0690909,14.7507879 14.0690909,14.4242121 L14.0690909,14.2926364 L9.94612121,14.2926364 C9.21654545,14.2926364 8.53187879,14.1007879 7.93663636,13.7675152 L7.93663636,26.476 C7.93663636,27.2071515 8.71624242,27.802 9.67430303,27.802 L23.7336061,27.802 C24.6916667,27.802 25.4712727,27.2071515 25.4712727,26.476 Z M28.2260909,24.3991515 L28.225697,24.3991515 L28.225697,18.7465152 L26.652697,18.7465152 L26.652697,25.455697 L27.1691515,25.455697 C27.7521818,25.455697 28.2260909,24.9817879 28.2260909,24.3991515 Z M23.350697,18.3935455 C23.6768788,18.3935455 23.9416061,18.6582727 23.9416061,18.9844545 L23.9416061,24.5413636 C23.9416061,25.5656061 23.1084242,26.3987879 22.0841818,26.3987879 L11.3241212,26.3987879 C10.2998788,26.3987879 9.46669697,25.5656061 9.46669697,24.5413636 L9.46669697,18.9844545 C9.46669697,18.6582727 9.7310303,18.3935455 10.0576061,18.3935455 L23.350697,18.3935455 Z M22.7597879,24.5413636 L22.7597879,19.5753636 L10.6485152,19.5753636 L10.6485152,24.5413636 C10.6485152,24.9136364 10.9514545,25.2169697 11.3241212,25.2169697 L22.0841818,25.2169697 C22.4564545,25.2169697 22.7597879,24.9136364 22.7597879,24.5413636 Z" id="roll-top" stroke="#393939" stroke-width="0.3" fill="#393939" fill-rule="nonzero"></path>
    </g>
</svg>