<?xml version="1.0" encoding="UTF-8"?>
<svg width="34px" height="34px" viewBox="0 0 34 34" version="1.1" xmlns="http://www.w3.org/2000/svg" xmlns:xlink="http://www.w3.org/1999/xlink">
    <!-- Generator: Sketch 54.1 (76490) - https://sketchapp.com -->
    <title>Artboard</title>
    <desc>Created with Sketch.</desc>
    <g id="Artboard" stroke="none" stroke-width="1" fill="none" fill-rule="evenodd">
        <path d="M32.790674,20.5454594 C32.7895343,20.5358193 32.7912676,20.5267966 32.7898905,20.5171091 C32.7887745,20.5092261 32.7839308,20.5031476 32.7822687,20.4954783 C32.4891971,18.8652899 30.9227612,18.3821955 28.9851598,17.7913035 C28.2427814,17.5649999 27.4065432,17.306547 26.5379421,16.9599328 C26.6413945,16.6659828 26.5732256,16.2933452 26.1115719,15.9624495 C25.8566569,15.779716 25.6135188,15.7063947 25.3893759,15.7440052 C25.2571696,15.7664194 25.0660783,15.8405006 24.9000606,16.0775602 L24.8443811,16.1653416 C24.6149433,16.0398311 24.3855055,15.9109251 24.1649479,15.7732577 L24.1046145,15.7352912 C24.3005496,15.4272847 24.3095248,14.9710921 23.756552,14.5742832 C23.5016369,14.3915498 23.2588787,14.3178486 23.033976,14.3562188 C22.9017697,14.3786331 22.7110583,14.4527142 22.5454205,14.6897738 L22.5128913,14.7408233 L21.5362788,14.1296303 C21.6925378,13.824473 21.6638314,13.4044188 21.150036,13.0360551 C20.895121,12.8533217 20.6535025,12.7796204 20.4270802,12.8176108 C20.2979369,12.8398826 20.1132327,12.9131327 19.9503491,13.1373705 L18.9481645,12.5089394 C19.0897259,12.2063227 19.0476754,11.7981405 18.547699,11.438942 C18.2916443,11.2562085 18.0481263,11.183647 17.8243633,11.2212575 C17.7005861,11.2426508 17.5254982,11.3144525 17.3680521,11.5181043 L15.2444406,10.1848815 C14.7741204,9.88969596 14.1670351,9.9527599 13.7681367,10.339882 C12.8028027,11.278243 10.3235543,13.4615467 8.16190433,13.4615467 C6.75208353,13.4615467 6.51388422,12.6067645 6.26124857,11.702215 C6.05344151,10.9576047 5.81828141,10.1142188 4.81457714,10.1142188 C4.38756595,10.1142188 3.98410874,10.3239261 3.6159829,10.7380206 C3.06726019,11.3547459 2.61667126,12.439892 2.31438701,13.7256507 C2.31220258,13.7314679 2.30757249,13.7355281 2.30569671,13.7415353 C2.3009954,13.756589 2.30353601,13.771524 2.30106663,13.7866489 C1.93320159,15.3834296 1.7929461,17.2800726 1.98125936,18.978881 L1.08354807,21.4246979 C0.868902764,22.008989 1.07822942,22.6574838 1.59223848,23.0024359 C2.46335653,23.586727 3.97385134,24.2830896 6.22401802,24.2830896 L28.1998991,24.2827097 C28.2169948,24.2838494 28.2998137,24.2876485 28.4316401,24.2876485 C29.0751961,24.2876485 30.8907536,24.1903932 31.9837351,23.1559168 C32.549411,22.6206332 32.835858,21.9204716 32.835858,21.074807 C32.8358588,20.884428 32.8174335,20.7111684 32.790674,20.5454594 Z M25.3050375,16.6728685 L25.4494007,16.4453065 C25.471815,16.4137745 25.4911901,16.3974387 25.4999278,16.396299 C25.5018273,16.395919 25.5041068,16.3955392 25.5067661,16.3955392 C25.5360186,16.3955392 25.6100997,16.4168137 25.7259702,16.4996326 C25.9698681,16.674768 25.9182013,16.7488491 25.8912281,16.7879792 L25.7457252,17.0159211 C25.7020363,17.0786051 25.6370729,17.1196347 25.5637516,17.1321715 C25.4927097,17.1443284 25.4201482,17.1279925 25.3612632,17.0854434 C25.3608833,17.0854434 25.3608833,17.0850634 25.3608833,17.0850634 C25.2339956,16.9946465 25.2055028,16.8149523 25.3050375,16.6728685 Z M24.5889436,16.7808085 C24.564986,17.1005446 24.6987831,17.4244595 24.9752815,17.6226265 C25.1356006,17.7377372 25.3232728,17.7977619 25.5162636,17.7977619 C25.5690702,17.7977619 25.6218767,17.7932031 25.6746833,17.7844653 C25.8639938,17.7521498 26.0347365,17.6639885 26.17333,17.5273421 C27.1110261,17.9091685 28.0031338,18.1835299 28.7925489,18.4238424 C30.8360483,19.0472161 31.9276289,19.4383739 32.1354122,20.6240043 C32.1535526,20.7765592 32.1076556,20.898342 31.9852555,21.0163019 C30.9464814,22.0134291 25.6115006,21.9011915 19.1497744,20.7700297 C20.0030608,20.0921636 21.5098044,18.6483652 22.6432931,16.2486116 C22.7983411,16.3537023 22.9770143,16.4095956 23.1612436,16.4095956 C23.2140502,16.4095956 23.2672366,16.4050368 23.3200432,16.396299 C23.4510148,16.3739322 23.5723939,16.3237375 23.6812599,16.2505824 L23.8142972,16.3336149 C24.0661018,16.4908236 24.3271429,16.6393896 24.5889436,16.7808085 Z M22.9503974,15.2847022 L23.0951405,15.0575201 C23.1171748,15.0256082 23.1365499,15.0096523 23.1452877,15.0081327 C23.1680819,15.0039537 23.2448223,15.0210494 23.3709502,15.1114663 C23.6152279,15.2869816 23.5635611,15.3606828 23.5362081,15.3998129 L23.391085,15.6277548 C23.3473962,15.6904388 23.2828126,15.7318483 23.2087315,15.7443851 C23.1376896,15.7561621 23.0647482,15.7394463 23.0058632,15.697657 C22.8797354,15.6064802 22.8508627,15.426786 22.9503974,15.2847022 Z M22.2400021,15.3452018 C22.2309319,15.4175733 22.2296972,15.4898499 22.2370578,15.5618178 C22.2341373,15.5675876 22.2289137,15.5712204 22.2263018,15.5772276 C20.8600512,18.729332 18.7264198,20.2903306 18.2518495,20.608737 C15.5507614,20.1142455 12.4132357,19.7043062 9.63994158,19.3919545 C9.42384787,18.4356431 8.92325415,17.6026816 8.28176385,16.8888198 C9.81811618,16.7795026 13.2892688,16.0679439 17.0317903,12.2025237 C16.986938,12.539759 17.1192393,12.8900061 17.4114086,13.0998789 C17.4117885,13.0998789 17.4117885,13.0998789 17.4117885,13.0998789 C17.5717277,13.2146096 17.7593999,13.2746343 17.9523907,13.2746343 C18.0048174,13.2746343 18.0576239,13.2704554 18.1104305,13.2613377 C18.2782765,13.2326788 18.4299291,13.157268 18.5595235,13.0460751 L19.6426751,13.7245822 C19.565531,14.0837569 19.6995656,14.4711157 20.0133657,14.6962322 C20.1736848,14.8113428 20.361357,14.8713675 20.5543478,14.8713675 C20.6067745,14.8713675 20.659581,14.8668087 20.7123876,14.8580709 C20.8705223,14.831074 21.0136983,14.7615993 21.1384015,14.6610436 L22.2133852,15.3333298 C22.2218617,15.3386722 22.2312406,15.3407379 22.2400021,15.3452018 Z M2.62151503,18.7113104 C2.48493984,17.2647102 2.59048171,15.6648428 2.87025666,14.2758929 C4.0791558,14.7182427 8.09667973,16.3904342 8.93814159,19.3141218 C5.90971941,18.9832024 3.42747968,18.7759414 2.62151503,18.7113104 Z M20.3431216,13.746854 L20.4882447,13.5189121 C20.5102791,13.4870002 20.5296541,13.4710443 20.538012,13.4699045 C20.5399115,13.4695246 20.5425709,13.4691448 20.5452302,13.4691448 C20.5744827,13.4691448 20.6485638,13.4904193 20.7644343,13.5732382 C21.0083322,13.7479937 20.9566653,13.8216949 20.9289324,13.8615847 L20.7841893,14.0891468 C20.7405004,14.1518308 20.675537,14.1936201 20.6018358,14.205777 C20.5288944,14.2183139 20.4582324,14.2015981 20.3993474,14.1590489 C20.3989675,14.1590489 20.3989675,14.1590489 20.3989675,14.1590489 C20.2724596,14.0682521 20.2439669,13.8885579 20.3431216,13.746854 Z M17.7407846,12.1501208 L17.8862875,11.9221789 C17.9083219,11.8906469 17.927697,11.874691 17.9360549,11.8731714 C17.9569495,11.8697522 18.0344498,11.8849483 18.1620973,11.976505 C18.406375,12.1516404 18.3547082,12.2253416 18.3269753,12.2652315 L18.182612,12.4927935 C18.1385433,12.5554775 18.0735798,12.5968869 17.9998786,12.6094238 C17.9269371,12.6215807 17.8558952,12.604485 17.7970102,12.5626957 C17.6705026,12.4715189 17.6420098,12.2918247 17.7407846,12.1501208 Z M4.1098567,11.1775686 C4.34729622,10.9108765 4.58435583,10.7752511 4.81457714,10.7752511 C5.27274042,10.7752511 5.40076778,11.0784139 5.62415089,11.8800096 C5.88856352,12.8263485 6.25023138,14.1225783 8.16190433,14.1225783 C10.5659326,14.1225783 13.20588,11.8089677 14.2293392,10.8140012 C14.4082736,10.6403854 14.6806642,10.6126525 14.8926502,10.7448588 L16.5275637,11.7709299 C12.2558133,16.1611864 8.31761718,16.2594388 7.62909008,16.2407286 C5.96366564,14.7537637 3.80638524,13.9023769 3.01839516,13.6244539 C3.28883874,12.5628856 3.66382698,11.6790171 4.1098567,11.1775686 Z M31.5305114,22.6741995 C30.4227136,23.7250118 28.2568854,23.6209183 28.2181353,23.622058 L25.7092545,23.622058 L25.7092545,23.3063584 C25.7092545,23.123625 25.5614721,22.9758426 25.3787387,22.9758426 C25.1960052,22.9758426 25.0482229,23.123625 25.0482229,23.3063584 L25.0482229,23.622058 L24.2990538,23.622058 L24.2990538,23.3063584 C24.2990538,23.123625 24.1512714,22.9758426 23.968538,22.9758426 C23.7858045,22.9758426 23.6380222,23.123625 23.6380222,23.3063584 L23.6380222,23.622058 L22.888853,23.622058 L22.888853,23.3063584 C22.888853,23.123625 22.7410707,22.9758426 22.5583372,22.9758426 C22.3756038,22.9758426 22.2278214,23.123625 22.2278214,23.3063584 L22.2278214,23.622058 L21.4786523,23.622058 L21.4786523,23.3063584 C21.4786523,23.123625 21.33087,22.9758426 21.1481365,22.9758426 C20.9654031,22.9758426 20.8176207,23.123625 20.8176207,23.3063584 L20.8176207,23.622058 L20.0684516,23.622058 L20.0684516,23.3063584 C20.0684516,23.123625 19.9206693,22.9758426 19.7379358,22.9758426 C19.5552024,22.9758426 19.40742,23.123625 19.40742,23.3063584 L19.40742,23.622058 L18.6582509,23.622058 L18.6582509,23.3063584 C18.6582509,23.123625 18.5104686,22.9758426 18.3277351,22.9758426 C18.1450016,22.9758426 17.9972193,23.123625 17.9972193,23.3063584 L17.9972193,23.622058 L13.017448,23.622058 L13.017448,23.3063584 C13.017448,23.123625 12.8696657,22.9758426 12.6869322,22.9758426 C12.5041988,22.9758426 12.3564164,23.123625 12.3564164,23.3063584 L12.3564164,23.622058 L11.6072473,23.622058 L11.6072473,23.3063584 C11.6072473,23.123625 11.459465,22.9758426 11.2767315,22.9758426 C11.0939981,22.9758426 10.9462157,23.123625 10.9462157,23.3063584 L10.9462157,23.622058 L10.1970466,23.622058 L10.1970466,23.3063584 C10.1970466,23.123625 10.0492643,22.9758426 9.86653006,22.9758426 C9.6837966,22.9758426 9.53601426,23.123625 9.53601426,23.3063584 L9.53601426,23.622058 L8.78684515,23.622058 L8.78684515,23.3063584 C8.78684515,23.123625 8.6390628,22.9758426 8.45632934,22.9758426 C8.27359589,22.9758426 8.12581354,23.123625 8.12581354,23.3063584 L8.12581354,23.622058 L7.37664443,23.622058 L7.37664443,23.3063584 C7.37664443,23.123625 7.22886209,22.9758426 7.04612863,22.9758426 C6.86339517,22.9758426 6.71561283,23.123625 6.71561283,23.3063584 L6.71561283,23.622058 L6.22401806,23.622058 C6.13443215,23.622058 6.05346528,23.6146024 5.96644368,23.6122993 L5.96644368,23.3063584 C5.96644368,23.123625 5.81866133,22.9758426 5.63592787,22.9758426 C5.45319442,22.9758426 5.30541207,23.123625 5.30541207,23.3063584 L5.30541207,23.5740478 C3.72852882,23.4218253 2.63153493,22.9032811 1.96074458,22.4530959 C1.70051089,22.2787203 1.5952777,21.9497241 1.70430991,21.6526398 L2.54266132,19.3683768 C4.06578787,19.4899221 12.2901704,20.1773094 18.2620114,21.2826141 C21.5075245,21.8828612 25.2571692,22.362299 28.1296174,22.362299 C29.8719485,22.362299 31.2890587,22.1846942 32.0770255,21.7521032 C31.9775862,22.1067191 31.8031157,22.4156991 31.5305114,22.6741995 Z" id="rubber" stroke="#393939" stroke-width="0.6" fill="#393939" fill-rule="nonzero"></path>
    </g>
</svg>