<?xml version="1.0" encoding="UTF-8"?>
<svg width="34px" height="34px" viewBox="0 0 34 34" version="1.1" xmlns="http://www.w3.org/2000/svg" xmlns:xlink="http://www.w3.org/1999/xlink">
    <!-- Generator: Sketch 54.1 (76490) - https://sketchapp.com -->
    <title>Artboard</title>
    <desc>Created with Sketch.</desc>
    <g id="Artboard" stroke="none" stroke-width="1" fill="none" fill-rule="evenodd">
        <path d="M32.6015837,14.3776239 L30.6095022,14.3776239 L30.6095022,13.7054957 C30.6095022,13.4851714 30.4314101,13.3070794 30.2110859,13.3070794 C29.9907617,13.3070794 29.8126696,13.4851714 29.8126696,13.7054957 L29.8126696,14.3780224 L22.4897781,14.3780224 L22.4897781,4.17258896 C22.4897781,3.16260365 21.1598645,1 20.3717971,1 C19.4622127,1 18.2538161,3.17694664 18.2538161,4.17258896 L18.2538161,14.3776239 L16.0625265,14.3776239 L16.0625265,4.17258896 C16.0625265,3.16260365 14.7326129,1 13.944147,1 C13.0345626,1 11.826166,3.17694664 11.826166,4.17258896 L11.826166,14.3776239 L7.10294081,14.3776239 L7.10294081,13.7054957 C7.10294081,13.4851714 6.92484873,13.3070794 6.70452452,13.3070794 L2.59047785,13.3070794 C1.78049752,13.3070794 1.12111855,13.9660599 1.12111855,14.7764387 C1.12111855,15.5868174 1.78009911,16.245798 2.59047785,16.245798 L6.70452452,16.245798 C6.92484873,16.245798 7.10294081,16.0677059 7.10294081,15.8473817 L7.10294081,15.174855 L11.8257676,15.174855 L11.8257676,18.9024378 L4.18733036,18.9024378 L4.18733036,18.2299111 C4.18733036,18.0095869 4.00923828,17.8314948 3.78891407,17.8314948 C3.56858986,17.8314948 3.39049777,18.0095869 3.39049777,18.2299111 L3.39049777,18.9024378 L1.3984163,18.9024378 C1.17809208,18.9024378 1,19.0805299 1,19.3008541 C1,19.5211783 1.17809208,19.6992704 1.3984163,19.6992704 L3.39049777,19.6992704 L3.39049777,20.3717971 C3.39049777,20.5921213 3.56858986,20.7702134 3.78891407,20.7702134 C4.00923828,20.7702134 4.18733036,20.5921213 4.18733036,20.3717971 L4.18733036,19.6992704 L11.8257676,19.6992704 L11.8257676,31.5521552 C11.8257676,32.2808586 12.4182126,32.8733036 13.1465176,32.8733036 L14.7409796,32.8733036 C15.469683,32.8733036 16.062128,32.2808586 16.062128,31.5521552 L16.062128,19.6992704 L18.2534177,19.6992704 L18.2534177,31.5521552 C18.2534177,32.2808586 18.8458627,32.8733036 19.5741677,32.8733036 L21.1686297,32.8733036 C21.8969347,32.8733036 22.4893797,32.2808586 22.4893797,31.5521552 L22.4893797,19.6992704 L26.8966608,19.6992704 L26.8966608,20.3717971 C26.8966608,20.5921213 27.0747529,20.7702134 27.2950771,20.7702134 L31.4091237,20.7702134 C32.2191041,20.7702134 32.878483,20.1112328 32.878483,19.3008541 C32.878483,18.4904754 32.2195025,17.8314948 31.4091237,17.8314948 L27.2954755,17.8314948 C27.0751513,17.8314948 26.8970592,18.0095869 26.8970592,18.2299111 L26.8970592,18.9024378 L22.4897781,18.9024378 L22.4897781,15.174855 L29.8126696,15.174855 L29.8126696,15.8473817 C29.8126696,16.0677059 29.9907617,16.245798 30.2110859,16.245798 C30.4314101,16.245798 30.6095022,16.0677059 30.6095022,15.8473817 L30.6095022,15.174855 L32.6015837,15.174855 C32.8219079,15.174855 33,14.9967629 33,14.7764387 C33,14.5561144 32.8219079,14.3776239 32.6015837,14.3776239 Z M6.30610822,15.4485669 L2.59047785,15.4485669 C2.21955228,15.4485669 1.91795114,15.1469658 1.91795114,14.7760402 C1.91795114,14.4051147 2.21955228,14.1035135 2.59047785,14.1035135 L6.30610822,14.1035135 L6.30610822,15.4485669 Z M27.6938918,18.6283274 L31.4095221,18.6283274 C31.7804477,18.6283274 32.0820489,18.9299285 32.0820489,19.3008541 C32.0820489,19.6717797 31.7804477,19.9733808 31.4095221,19.9733808 L27.6938918,19.9733808 L27.6938918,18.6283274 Z M19.0502503,4.17258896 C19.0502503,3.38890411 19.9992779,1.99006449 20.3558605,1.80958191 C20.7232003,2.03548395 21.6925471,3.46022062 21.6925471,4.17258896 L21.6925471,14.3776239 L19.0498518,14.3776239 L19.0498518,4.17258896 L19.0502503,4.17258896 Z M12.6226002,4.17258896 C12.6226002,3.38890411 13.5716278,1.99006449 13.9282104,1.80958191 C14.2955502,2.03548395 15.2652955,3.46022062 15.2652955,4.17258896 L15.2652955,14.3776239 L12.6222017,14.3776239 L12.6222017,4.17258896 L12.6226002,4.17258896 Z M12.6226002,15.1744565 L15.2656939,15.1744565 L15.2656939,18.9020394 L12.6226002,18.9020394 L12.6226002,15.1744565 Z M15.2652955,31.5521552 C15.2652955,31.8414054 15.0298314,32.076471 14.7409796,32.076471 L13.1465176,32.076471 C12.8572674,32.076471 12.6226002,31.841007 12.6226002,31.5521552 L12.6226002,19.6992704 L15.2656939,19.6992704 L15.2656939,31.5521552 L15.2652955,31.5521552 Z M16.062128,18.9024378 L16.062128,15.174855 L18.2534177,15.174855 L18.2534177,18.9024378 L16.062128,18.9024378 Z M21.6929455,31.5521552 C21.6929455,31.8414054 21.4578799,32.076471 21.1690281,32.076471 L19.5745661,32.076471 C19.2853159,32.076471 19.0506487,31.841007 19.0506487,31.5521552 L19.0506487,19.6992704 L21.693344,19.6992704 L21.693344,31.5521552 L21.6929455,31.5521552 Z M21.6929455,18.9024378 L19.0502503,18.9024378 L19.0502503,15.174855 L21.6929455,15.174855 L21.6929455,18.9024378 Z" id="ski-carrier" stroke="#393939" stroke-width="0.6" fill="#393939" fill-rule="nonzero"></path>
    </g>
</svg>