<?xml version="1.0" encoding="UTF-8"?>
<svg width="34px" height="34px" viewBox="0 0 34 34" version="1.1" xmlns="http://www.w3.org/2000/svg" xmlns:xlink="http://www.w3.org/1999/xlink">
    <!-- Generator: Sketch 54.1 (76490) - https://sketchapp.com -->
    <title>Artboard</title>
    <desc>Created with Sketch.</desc>
    <g id="Artboard" stroke="none" stroke-width="1" fill="none" fill-rule="evenodd">
        <g id="soft" transform="translate(8.000000, 4.000000)" fill="#393939" fill-rule="nonzero" stroke="#393939" stroke-width="0.2">
            <path d="M17.3527946,20.7683807 C17.7140211,19.6124561 17.8918556,18.8233152 17.897413,18.3453849 C17.897413,18.3231555 17.897413,18.3064836 17.8918556,18.2842542 C17.8918556,17.9786011 17.8918556,17.7785372 17.8918556,17.7507506 L17.8918556,6.46937081 C17.8918556,5.56908336 17.1582881,4.83551581 16.2580006,4.83551581 C16.0746088,4.83551581 15.9023315,4.86885979 15.7356116,4.92443309 L15.7356116,4.87997445 C15.7356116,4.3131268 15.5188758,3.77962312 15.118748,3.37949537 C14.7186202,2.97936761 14.1851166,2.75707442 13.6182689,2.75707442 C13.2570425,2.75707442 12.912488,2.85154903 12.6123922,3.01271159 L12.6123922,2.53478122 C12.6123922,1.36774194 11.6620888,0.417438518 10.4950495,0.417438518 C9.32801022,0.417438518 8.3777068,1.36774194 8.3777068,2.53478122 L8.3777068,2.86266369 C8.06649633,2.69594379 7.71082721,2.60146918 7.33292878,2.60702651 C6.18811881,2.62925583 5.2767167,3.54065794 5.25448738,4.6854679 C5.25448738,4.69102523 5.25448738,4.69102523 5.25448738,4.69658256 L5.25448738,14.5941872 C4.82101565,13.9050782 4.29862664,13.1326094 3.7540083,12.5101884 C3.03711274,11.6877036 2.04790802,11.4598531 0.975343341,11.8766528 C0.630788885,12.0100287 0.358479719,12.2712233 0.208431811,12.6157777 C0.0583839029,12.9547748 0.052826573,13.3326733 0.186202491,13.6772277 C0.213989141,13.7550303 0.25289045,13.8272756 0.29179176,13.8939636 C0.647460875,14.4830406 1.0976046,15.4778026 1.57553497,16.5336953 C2.74257426,19.1011817 4.05966145,22.0132226 5.52679655,22.9357394 C6.43264133,23.502587 8.36103481,25.5310125 9.0279144,26.2701373 C9.139061,26.3923986 9.28910891,26.4535292 9.43915682,26.4535292 C9.57253274,26.4535292 9.70590866,26.4035133 9.81149792,26.3090386 C10.0393485,26.1034174 10.0560204,25.7533057 9.85039923,25.5254551 C9.75036729,25.4143085 7.33848611,22.7690195 6.12143085,22.002108 C4.93771958,21.2574257 3.58173108,18.2675822 2.58696902,16.0835516 C2.07569467,14.9498563 1.63110827,13.9717662 1.24209518,13.3271159 C1.23098052,13.3160013 1.22542319,13.2993293 1.21986586,13.2826573 C1.18096455,13.1881827 1.2087512,13.1103801 1.22542319,13.0714788 C1.24209518,13.0325775 1.28655382,12.9603322 1.3754711,12.9269882 C2.21462791,12.604663 2.65921431,12.9603322 2.91485149,13.2548706 C4.12079208,14.6386458 5.30450335,16.9227084 5.31561801,16.9449377 C5.43232194,17.1727882 5.69351645,17.2894922 5.93803897,17.2283615 C6.18811881,17.1672309 6.36039604,16.9449377 6.36039604,16.6893005 L6.36039604,4.69658256 C6.3715107,4.15752156 6.80498243,3.72404982 7.34960077,3.71293516 C7.3551581,3.71293516 7.36071543,3.71293516 7.36627276,3.71293516 C7.91089109,3.71293516 8.36103481,4.15196423 8.37214947,4.69658256 L8.37214947,10.0149473 L8.37214947,11.3487065 L8.37214947,11.4209518 C8.37214947,11.7266049 8.62222932,11.9766848 8.92788247,11.9766848 C9.23353561,11.9766848 9.48361546,11.7266049 9.48361546,11.4209518 L9.48361546,11.3487065 L9.48361546,10.0149473 L9.48361546,4.69102523 L9.48361546,2.52922389 C9.48361546,1.9734909 9.93375918,1.52334717 10.4894922,1.52334717 C11.0452252,1.52334717 11.4953689,1.9734909 11.4953689,2.52922389 L11.4953689,4.87441712 L11.4953689,10.5206643 L11.4953689,11.9655701 C11.4953689,12.2712233 11.7454487,12.5213031 12.0511019,12.5213031 C12.356755,12.5213031 12.6068349,12.2712233 12.6068349,11.9655701 L12.6068349,10.5206643 L12.6068349,4.87441712 C12.6068349,4.31868413 13.0569786,3.8685404 13.6127116,3.8685404 C13.8794634,3.8685404 14.1351006,3.97412967 14.3240498,4.16307889 C14.512999,4.35202811 14.6185883,4.60766528 14.6185883,4.87441712 L14.6185883,6.46381348 L14.6185883,11.8599808 L14.6185883,13.4827212 C14.6185883,13.7883743 14.8686682,14.0384542 15.1743213,14.0384542 C15.4799744,14.0384542 15.7300543,13.7883743 15.7300543,13.4827212 L15.7300543,11.8599808 L15.7300543,6.46381348 C15.7300543,6.17483232 15.9634622,5.94142447 16.2524433,5.94142447 C16.5414245,5.94142447 16.7748323,6.17483232 16.7748323,6.46381348 L16.7748323,17.7507506 L16.7748323,18.3398275 C16.7748323,18.3509422 16.7748323,18.3620569 16.7748323,18.3787288 C16.7414883,19.2012137 15.9301182,21.5741935 15.6189077,22.3522197 C15.4855318,22.6801022 15.4244011,23.2469499 16.1135101,24.7418716 C16.4580645,25.4976685 16.8415203,26.1423187 16.8581923,26.1701054 C16.9637815,26.34794 17.1471734,26.4424146 17.3361226,26.4424146 C17.4305973,26.4424146 17.5306292,26.4201852 17.6195465,26.3646119 C17.8862983,26.2090067 17.9696583,25.8700096 17.814053,25.6032577 C17.8084957,25.5977004 17.4639412,25.0030661 17.1471734,24.3250719 C16.6025551,23.1524752 16.6470137,22.7912488 16.6525711,22.7634622 C16.7803897,22.441137 17.0804855,21.6242095 17.3527946,20.7683807 Z" id="Combined-Shape"></path>
        </g>
    </g>
</svg>