<?xml version="1.0" encoding="UTF-8"?>
<svg width="34px" height="34px" viewBox="0 0 34 34" version="1.1" xmlns="http://www.w3.org/2000/svg" xmlns:xlink="http://www.w3.org/1999/xlink">
    <!-- Generator: Sketch 54.1 (76490) - https://sketchapp.com -->
    <title>Artboard</title>
    <desc>Created with Sketch.</desc>
    <g id="Artboard" stroke="none" stroke-width="1" fill="none" fill-rule="evenodd">
        <g id="stretch" transform="translate(2.000000, 8.000000)" fill="#393939" fill-rule="nonzero">
            <path d="M14.9257702,0.960816576 C14.5744974,0.999418024 14.3109207,1.2999879 14.3185212,1.65329359 L14.3185212,16.6534111 C14.3150454,16.8993 14.4442347,17.1280128 14.6566204,17.2519715 C14.869006,17.3759303 15.1316834,17.3759303 15.344069,17.2519715 C15.5564546,17.1280128 15.685644,16.8993 15.6821682,16.6534111 L15.6821682,1.65329359 C15.6863981,1.45693102 15.6057526,1.26828035 15.4608848,1.13565496 C15.3160171,1.00302958 15.1209974,0.939310649 14.9257702,0.960816576 L14.9257702,0.960816576 Z M4.6877639,4.36993419 C4.53750069,4.39164284 4.39877986,4.46287786 4.29358467,4.57235055 L0.202643537,8.66329169 C0.0731883752,8.79137384 0.000344685451,8.96591663 0.000344685451,9.1480256 C0.000344685451,9.33013457 0.0731883752,9.50467736 0.202643537,9.63275951 L4.29358467,13.7237006 C4.46562889,13.9006459 4.71985601,13.9708192 4.9583074,13.9071812 C5.19675879,13.8435433 5.38221386,13.6560276 5.44321317,13.4168876 C5.50421249,13.1777476 5.43123449,12.9243114 5.252399,12.7542328 L2.32268855,9.83517587 L12.2730506,9.83517587 C12.6332651,9.84028954 12.9655276,9.5135938 12.9655276,9.15335235 C12.9655276,8.79311089 12.6332651,8.46644924 12.2730506,8.47152882 L2.32268855,8.47152882 L5.252399,5.54181837 C5.46940017,5.33801156 5.52910246,5.016986 5.3998812,4.74879095 C5.27065995,4.48059589 4.98238763,4.32723083 4.6877639,4.36993419 L4.6877639,4.36993419 Z M25.1531231,4.36993419 C24.8877203,4.3957635 24.661725,4.5739266 24.5746562,4.82596792 C24.4875874,5.07800924 24.5554227,5.35767745 24.7482904,5.54181837 L27.6780008,8.47152882 L17.7276388,8.47152882 L17.6637178,8.47152882 C17.306667,8.4882335 16.9971181,8.82824184 17.0138548,9.18531282 C17.0305901,9.54234971 17.3705947,9.85198282 17.7276388,9.83517587 L27.6780008,9.83517587 L24.7482904,12.7542328 C24.5694549,12.9243114 24.4964769,13.1777476 24.5574762,13.4168876 C24.6184755,13.6560276 24.8039306,13.8435433 25.042382,13.9071812 C25.2808334,13.9708192 25.5350605,13.9006459 25.7071047,13.7237006 L29.7980458,9.63275951 C29.927501,9.50467736 30.0003447,9.33013457 30.0003447,9.1480256 C30.0003447,8.96591663 29.927501,8.79137384 29.7980458,8.66329169 L25.7071047,4.57235055 C25.5626842,4.42437643 25.3589221,4.3499249 25.1531231,4.36993419 Z" id="Shape"></path>
        </g>
    </g>
</svg>