<?xml version="1.0" encoding="UTF-8"?>
<svg width="34px" height="34px" viewBox="0 0 34 34" version="1.1" xmlns="http://www.w3.org/2000/svg" xmlns:xlink="http://www.w3.org/1999/xlink">
    <!-- Generator: Sketch 54.1 (76490) - https://sketchapp.com -->
    <title>Artboard</title>
    <desc>Created with Sketch.</desc>
    <g id="Artboard" stroke="none" stroke-width="1" fill="none" fill-rule="evenodd">
        <g id="synthetic" transform="translate(5.000000, 5.000000)" fill="#393939" fill-rule="nonzero" stroke="#393939" stroke-width="0.2">
            <path d="M2.58282319,19.457662 L6.15578175,14.5298793 C5.47182928,13.8063374 5.052,12.8307717 5.052,11.759 C5.052,10.5601116 5.57714023,9.48178515 6.40930706,8.7416663 L4.52326312,5.61168445 C4.29747703,5.67762666 4.05878783,5.713 3.812,5.713 C2.411,5.713 1.271,4.573 1.271,3.172 C1.271,1.771 2.411,0.631 3.812,0.631 C5.213,0.631 6.353,1.771 6.353,3.172 C6.353,3.85795423 6.07971308,4.48134013 5.63631076,4.93898618 L7.50774472,8.04396808 C7.99391472,7.83610728 8.52880043,7.721 9.09,7.721 C10.563531,7.721 11.8552107,8.5145726 12.5601019,9.6970706 L18.9262614,7.40792213 C18.9201293,7.33608469 18.917,7.26340194 18.917,7.19 C18.917,5.789 20.057,4.649 21.458,4.649 C22.859,4.649 23.999,5.789 23.999,7.19 C23.999,8.591 22.859,9.73 21.458,9.73 C20.5919421,9.73 19.8256215,9.29474742 19.3666805,8.63141186 L13.03673,10.9075402 C13.0958608,11.1821104 13.127,11.4669788 13.127,11.759 C13.127,13.985 11.316,15.796 9.09,15.796 C8.40314397,15.796 7.7558596,15.6237301 7.18907398,15.3201467 L3.63586017,20.221536 C3.86515982,20.5467324 4,20.9429752 4,21.37 C4,22.471 3.102,23.368 2,23.368 C0.898,23.368 0.001,22.472 0.001,21.37 C0.001,20.268 0.898,19.371 2,19.371 C2.20260779,19.371 2.39831986,19.4013209 2.58282319,19.457662 Z M4.40789928,4.26132946 C4.42177559,4.2514062 4.43614548,4.24195142 4.451,4.233 C4.46557376,4.22418028 4.4803455,4.21599899 4.49528363,4.20844782 C4.83077663,3.98606218 5.052,3.60484223 5.052,3.173 C5.052,2.489 4.497,1.932 3.812,1.932 C3.128,1.932 2.572,2.489 2.572,3.173 C2.572,3.857 3.129,4.414 3.812,4.414 C4.02800127,4.414 4.23107622,4.3586157 4.40789928,4.26132946 Z M20.2996962,7.63366314 C20.4784396,8.09955787 20.9306643,8.431 21.458,8.431 C22.143,8.431 22.698,7.874 22.698,7.191 C22.698,6.506 22.142,5.95 21.458,5.95 C20.774,5.95 20.218,6.507 20.218,7.191 C20.218,7.32821688 20.240416,7.4602825 20.2817684,7.58374148 C20.2849922,7.59173087 20.2880708,7.59981767 20.291,7.608 C20.294089,7.61653285 20.296987,7.62508879 20.2996962,7.63366314 Z M7.33805683,13.8601646 C7.36300791,13.8736598 7.38737702,13.88893 7.411,13.906 C7.44541765,13.9310418 7.4766661,13.9588302 7.50466177,13.9888471 C7.95229539,14.3080472 8.49964332,14.496 9.09,14.496 C10.599,14.496 11.826,13.268 11.826,11.759 C11.827,10.25 10.599,9.021 9.09,9.021 C8.57153706,9.021 8.08643735,9.16577044 7.67291237,9.41701885 C7.65155485,9.43388588 7.62890497,9.44959473 7.605,9.464 C7.591026,9.47251749 7.57685717,9.48043277 7.56252416,9.48775528 C6.83321958,9.98005235 6.353,10.814342 6.353,11.759 C6.353,12.6022021 6.73642747,13.3576655 7.33805683,13.8601646 Z M2,20.671 C1.615,20.671 1.302,20.984 1.302,21.37 C1.302,21.755 1.615,22.068 2,22.068 C2.385,22.068 2.698,21.755 2.698,21.37 C2.699,20.984 2.385,20.671 2,20.671 Z" id="Combined-Shape"></path>
        </g>
    </g>
</svg>