<?xml version="1.0" encoding="UTF-8"?>
<svg width="34px" height="34px" viewBox="0 0 34 34" version="1.1" xmlns="http://www.w3.org/2000/svg" xmlns:xlink="http://www.w3.org/1999/xlink">
    <!-- Generator: Sketch 54.1 (76490) - https://sketchapp.com -->
    <title>Artboard</title>
    <desc>Created with Sketch.</desc>
    <g id="Artboard" stroke="none" stroke-width="1" fill="none" fill-rule="evenodd">
        <path d="M17.4097456,29.2717568 C16.9698251,29.2717568 16.612035,28.9126868 16.612035,28.4727663 C16.612035,28.0328458 16.9698251,27.6746105 17.4097456,27.6746105 C17.8496661,27.6746105 18.2070111,28.0328458 18.2070111,28.4727663 C18.2070111,28.9126868 17.8496661,29.2717568 17.4097456,29.2717568 Z M26.4875437,3 C27.2222099,3 27.8194913,3.5981717 27.8194913,4.33372814 L27.8194913,30.1585533 C27.8194913,30.8932194 27.2221542,31.4896661 26.4874881,31.4896661 L8.33239269,31.4896661 C7.5972814,31.4896661 7,30.8932194 7,30.1585533 L7,4.33372814 C7,3.5981717 7.5972814,3 8.33239269,3 L26.4875437,3 Z M26.8057711,30.4767806 L26.8057711,26.5390859 L8.01377583,26.5390859 L8.01377583,30.4767806 L26.8057711,30.4767806 Z M26.8057711,25.52531 L26.8057711,7.31846582 L8.01377583,7.31846582 L8.01377583,25.52531 L26.8057711,25.52531 Z M26.8057711,6.30385533 L26.8057711,4.01550079 L8.01377583,4.01550079 L8.01377583,6.30385533 L26.8057711,6.30385533 Z" id="tablet-sleeve" stroke="#393939" stroke-width="0.6" fill="#393939" fill-rule="nonzero"></path>
    </g>
</svg>