<?xml version="1.0" encoding="UTF-8"?>
<svg width="34px" height="34px" viewBox="0 0 34 34" version="1.1" xmlns="http://www.w3.org/2000/svg" xmlns:xlink="http://www.w3.org/1999/xlink">
    <!-- Generator: Sketch 54.1 (76490) - https://sketchapp.com -->
    <title>Artboard</title>
    <desc>Created with Sketch.</desc>
    <g id="Artboard" stroke="none" stroke-width="1" fill="none" fill-rule="evenodd">
        <g id="thumbholes" transform="translate(4.000000, 2.000000)" fill="#393939" fill-rule="nonzero">
            <path d="M7.14049754,28.7929464 C7.02075054,29.7304778 5.60131054,29.3391096 5.72689885,28.4132608 C6.08029852,25.6707626 4.24904568,23.144393 3.91609061,20.4749112 C3.73500979,19.0087406 4.12637802,17.5893006 4.10301275,16.1289714 C4.06504419,14.5897844 3.25018049,13.3368219 2.40318954,12.0926215 C1.65550098,10.9710886 0.802668712,9.77361865 0.58069867,8.45348103 C0.379173237,7.34655148 0.790986078,5.94171477 2.0965204,5.83365041 C3.32611761,5.72558604 4.09717144,6.8880081 4.64625522,7.79925354 C5.09019531,8.55278342 5.55165934,9.29463066 5.99852008,10.0452399 L5.6597237,5.94463543 C5.54581802,4.61573583 5.03178214,2.15654142 7.02951251,2.0105085 C9.02724289,1.86447558 9.62889853,4.37040053 10.0903626,5.8482537 C10.3025971,6.54337041 10.4914663,7.24432843 10.6569703,7.95112778 L11.3988175,4.44049633 C11.6821214,3.09407279 12.0296798,0.106239197 14.1559191,0.836403808 C16.0426645,1.47310735 15.6366929,4.16303378 15.5841211,5.68761748 C15.5636765,6.33892432 15.5315492,6.99023115 15.4760567,7.62985535 C15.9346001,6.68064135 16.4106674,5.73726868 16.918862,4.82018193 C17.6110581,3.54385419 19.5795818,2.39311476 20.5930503,4.06665205 C21.0253078,4.78513402 20.9230847,5.70514143 20.7420039,6.47035395 C20.4879066,7.67074457 20.1432689,8.8565319 19.8044725,10.0364779 C19.2086582,12.1335107 18.5193828,14.2013368 17.7600116,16.2457978 C18.4337676,16.0980807 19.0802449,15.8457969 19.6759636,15.4981092 C21.3290563,14.5050853 23.8349812,12.8111034 25.5961382,14.6832455 C26.3496681,15.4835059 25.8531562,16.2487184 25.1638808,16.867898 C23.9722521,17.9427003 22.7806235,19.0175026 21.6182014,20.1215115 C19.4364696,22.1922584 17.3277542,24.341863 15.2862139,26.5528014 L15.0554819,27.899225 C14.9503113,28.2880993 14.5517856,28.5199214 14.1617604,28.4191022 C13.7774168,28.3096242 13.5471317,27.9172391 13.6389626,27.5283013 L13.8054401,26.5265155 C13.7236342,26.2788614 13.7867157,26.0062592 13.968997,25.8197161 C15.6590847,23.97386 17.3988235,22.175708 19.1882136,20.42526 C20.0605169,19.5763219 20.9435293,18.7361459 21.8372508,17.9047318 C22.1789679,17.5922213 24.4483195,15.7551271 24.3431758,15.5448397 C24.1591743,15.1797574 23.0989753,15.3520763 22.8331954,15.4192514 C22.3557598,15.5623759 21.9027795,15.7770492 21.4896925,16.055955 C20.6567227,16.6421174 19.756602,17.126496 18.808528,17.4987602 C17.0882602,18.0507647 15.1547843,17.8521599 13.5951527,18.868549 C12.8182576,19.4001089 12.0822516,18.1091778 12.8708294,17.595142 C13.8499674,17.0282532 14.935885,16.6702584 16.0601884,16.5437049 C17.3255347,13.2455771 18.3762441,9.86906337 19.2057376,6.43530605 C19.2933573,6.0731444 19.5007241,5.52698127 19.3955804,5.15313699 C19.2261822,4.55732267 18.8114487,4.64494242 18.458049,5.03923131 C17.9235685,5.62628366 17.637344,6.54921172 17.2897856,7.25893173 L14.8101466,12.2737023 C14.4129371,13.0739627 13.3352141,12.4869103 13.4608024,11.7246185 C13.7386061,10.0664883 13.924837,8.39431075 14.0186482,6.71568926 C14.0536961,6.1432402 14.4100164,2.31717764 13.6944551,2.22663723 C12.9788938,2.13609682 12.4560959,6.25130456 12.3334282,6.83543625 L11.249864,12.019605 C11.0717038,12.9045645 9.89175779,12.5949747 9.80705869,11.8326828 C9.63885666,10.2684904 9.34486558,8.72039784 8.9279405,7.20343922 C8.74491257,6.52974067 8.53754582,5.86090988 8.30584025,5.19694687 C8.15396602,4.79973732 7.3537056,2.78448299 6.92728947,3.68988711 C6.71700206,4.13966851 7.03535383,5.25243938 7.07332239,5.7285067 L7.28945112,8.2169077 L7.67497803,13.0359941 C7.69682868,13.2500704 7.61106133,13.4610429 7.4460371,13.5991483 C7.28101286,13.7372536 7.05822817,13.784502 6.85135235,13.7252695 C6.60593363,13.723195 6.38058465,13.5893243 6.26137934,13.3747905 C5.41244129,11.965086 4.57129166,10.5592758 3.73793045,9.15735972 C3.46216335,8.58823142 3.11256634,8.05794382 2.69817604,7.58020416 C1.79569258,6.71860991 2.01766262,8.31913074 2.19582279,8.79519807 C3.0457344,11.0587084 5.11356057,12.7059597 5.47864288,15.1914401 C5.6597237,16.4181166 5.3997851,17.6068246 5.3296893,18.8451838 C5.27362479,20.0733786 5.46225488,21.3004669 5.8846144,22.4551176 C6.57973111,24.563833 7.42964272,26.5411188 7.14049754,28.7929464 Z M14.2610628,15.5565224 C12.1915561,14.9363897 9.95592691,15.2263312 8.1130768,16.3538621 C7.30405441,16.8416121 6.58265177,15.5652843 7.39167416,15.0775344 C9.56621698,13.7617054 12.1940146,13.4214379 14.6319864,14.140003 C15.5403112,14.4057829 15.1635463,15.8223023 14.2610628,15.5565224 Z" id="Combined-Shape"></path>
        </g>
    </g>
</svg>