<?xml version="1.0" encoding="UTF-8"?>
<svg width="34px" height="34px" viewBox="0 0 34 34" version="1.1" xmlns="http://www.w3.org/2000/svg" xmlns:xlink="http://www.w3.org/1999/xlink">
    <!-- Generator: Sketch 54.1 (76490) - https://sketchapp.com -->
    <title>Artboard</title>
    <desc>Created with Sketch.</desc>
    <g id="Artboard" stroke="none" stroke-width="1" fill="none" fill-rule="evenodd">
        <path d="M30.2470098,16.2604566 C28.4026019,14.4160013 26.6665493,12.8026447 25.0388519,11.4203868 L25.7253269,10.7338763 C26.2668273,10.1960816 26.4794417,9.40979696 26.2827596,8.67239479 C26.0860775,7.93499263 25.5101225,7.35903762 24.7727203,7.16235552 C24.0353181,6.96567343 23.2490335,7.17828784 22.7112388,7.71978816 L21.6602993,8.77069211 C18.1289835,6.24946053 15.1685756,5 12.7236901,5 L12.6556572,5 C12.3695824,5.0028364 12.1131127,5.17696869 12.004932,5.44181543 C11.8967514,5.70666217 11.9579638,6.01055654 12.1602427,6.21286842 L18.1890585,12.2416842 L4.62429404,25.8065197 C4.08587268,26.3449411 3.87559519,27.1297073 4.07267107,27.8652045 C4.26974696,28.6007018 4.8442357,29.1751905 5.57973294,29.3722664 C6.31523018,29.5693423 7.09999639,29.3590648 7.63841773,28.8206434 L21.203644,15.2560921 L26.2275269,20.279975 C26.3607333,20.4132478 26.5414398,20.4881252 26.729869,20.4881252 C26.9182983,20.4881252 27.0990048,20.4132478 27.2322111,20.279975 L30.2470098,17.2650342 C30.38025,17.1318321 30.4551067,16.9511485 30.4551067,16.7627454 C30.4551067,16.5743423 30.38025,16.3936586 30.2470098,16.2604566 L30.2470098,16.2604566 Z M23.7157454,8.72450789 C23.8940772,8.53950799 24.1583988,8.46520758 24.4070022,8.53019659 C24.6556056,8.59518561 24.8497496,8.78933647 24.9147298,9.03794215 C24.97971,9.28654784 24.9054003,9.55086678 24.720394,9.72919211 L23.9396322,10.5099539 C23.5586954,10.2013724 23.183869,9.90639737 22.8151533,9.62502895 L23.7157454,8.72450789 Z M6.63302299,27.8159592 C6.35220667,28.0844595 5.9098301,28.0844595 5.62901378,27.8159592 C5.35216131,27.5382681 5.35216131,27.0889306 5.62901378,26.8112395 L19.1938848,13.2463329 L20.1989598,14.2514079 L6.63302299,27.8159592 Z M26.729869,18.7729132 L14.6402638,6.68330789 C18.1835519,7.59974474 22.827623,10.9240132 28.738598,16.7641132 L26.729869,18.7729132 Z" id="tool-keeper-loop" fill="#393939" fill-rule="nonzero"></path>
    </g>
</svg>