<?xml version="1.0" encoding="UTF-8"?>
<svg width="34px" height="34px" viewBox="0 0 34 34" version="1.1" xmlns="http://www.w3.org/2000/svg" xmlns:xlink="http://www.w3.org/1999/xlink">
    <!-- Generator: Sketch 54.1 (76490) - https://sketchapp.com -->
    <title>Artboard</title>
    <desc>Created with Sketch.</desc>
    <g id="Artboard" stroke="none" stroke-width="1" fill="none" fill-rule="evenodd">
        <path d="M31.8477353,26.1849155 L28.6667662,22.2211982 L28.6667662,6.67588326 C28.6667662,6.3027957 28.3681024,6 28.000106,6 L6.00031962,6 C5.63232319,6 5.33365943,6.3027957 5.33365943,6.67588326 L5.33365943,22.2211982 L2.15235699,26.1849155 C1.98802525,26.3870046 1.95369225,26.6668203 2.06369118,26.9030415 C2.17402345,27.1399386 2.40868783,27.2903226 2.66668533,27.2903226 L31.3334069,27.2903226 C31.5910711,27.2903226 31.8264021,27.1399386 31.9364011,26.9030415 C32.0464,26.6661444 32.0117337,26.3866667 31.8477353,26.1849155 Z M6.66697981,7.35176651 L27.3334458,7.35176651 L27.3334458,21.8832565 L6.66697981,21.8832565 L6.66697981,7.35176651 Z M17.7228724,26.2764977 C17.4378752,26.2764977 16.562217,26.2764977 16.2768865,26.2764977 C15.743225,26.2764977 15.3115625,25.8334562 15.2825628,25.2704455 L4.67199919,25.2704455 L6.33364972,23.235023 L27.6667759,23.235023 L29.3334263,25.2704455 L18.6668633,25.2704455 C18.6381969,25.83447 18.2565339,26.2764977 17.7228724,26.2764977 Z" id="up-to-15-laptop-compatible" stroke="#393939" stroke-width="0.4" fill="#393939" fill-rule="nonzero"></path>
    </g>
</svg>