<?xml version="1.0" encoding="UTF-8"?>
<svg width="34px" height="34px" viewBox="0 0 34 34" version="1.1" xmlns="http://www.w3.org/2000/svg" xmlns:xlink="http://www.w3.org/1999/xlink">
    <!-- Generator: Sketch 54.1 (76490) - https://sketchapp.com -->
    <title>Artboard</title>
    <desc>Created with Sketch.</desc>
    <g id="Artboard" stroke="none" stroke-width="1" fill="none" fill-rule="evenodd">
        <g id="upf" transform="translate(3.000000, 3.000000)" fill="#393939" stroke="#393939" stroke-width="0.4">
            <path d="M13.8503448,8.1828069 C10.6158621,8.1828069 7.98482759,10.8138414 7.98482759,14.0483241 C7.98482759,17.2828069 10.6158621,19.9138414 13.8503448,19.9138414 C17.0848276,19.9138414 19.7158621,17.2828069 19.7158621,14.0483241 C19.7158621,10.8138414 17.0848276,8.1828069 13.8503448,8.1828069 M13.8503448,21.2172897 C9.89751724,21.2172897 6.68137931,18.0011517 6.68137931,14.0483241 C6.68137931,10.0954966 9.89751724,6.87935862 13.8503448,6.87935862 C17.8031724,6.87935862 21.0193103,10.0954966 21.0193103,14.0483241 C21.0193103,18.0011517 17.8031724,21.2172897 13.8503448,21.2172897" id="Fill-1"></path>
            <path d="M26.9762621,14.7724138 L23.6452276,14.7724138 C23.2450207,14.7724138 22.9210897,14.4484828 22.9210897,14.0482759 C22.9210897,13.648069 23.2450207,13.3241379 23.6452276,13.3241379 L26.9762621,13.3241379 C27.3759862,13.3241379 27.7004,13.648069 27.7004,14.0482759 C27.7004,14.4484828 27.3759862,14.7724138 26.9762621,14.7724138" id="Fill-3"></path>
            <path d="M23.5648966,24.2050345 C23.38,24.2050345 23.1941379,24.1345517 23.0526897,23.9931034 L20.6977931,21.6377241 C20.4148966,21.3548276 20.4148966,20.8962069 20.6977931,20.6137931 C20.9802069,20.3304138 21.4388276,20.3304138 21.7217241,20.6137931 L24.0771034,22.9686897 C24.3595172,23.2515862 24.3595172,23.7106897 24.0771034,23.9931034 C23.9356552,24.1345517 23.7502759,24.2050345 23.5648966,24.2050345" id="Fill-6"></path>
            <path d="M14.1345931,28.0963586 C13.7343862,28.0963586 13.4104552,27.7724276 13.4104552,27.3722207 L13.4104552,24.041669 C13.4104552,23.6409793 13.7343862,23.317531 14.1345931,23.317531 C14.5348,23.317531 14.858731,23.6409793 14.858731,24.041669 L14.858731,27.3722207 C14.858731,27.7724276 14.5348,28.0963586 14.1345931,28.0963586" id="Fill-8"></path>
            <path d="M4.75570345,24.1710966 C4.5708069,24.1710966 4.38542759,24.1006138 4.24349655,23.9591655 C3.96108276,23.676269 3.96108276,23.2176483 4.24349655,22.934269 L6.59887586,20.5793724 C6.88128966,20.2964759 7.3403931,20.2964759 7.62328966,20.5793724 C7.90570345,20.862269 7.90618621,21.3204069 7.62328966,21.6037862 L5.2683931,23.9591655 C5.12646207,24.1006138 4.94108276,24.1710966 4.75570345,24.1710966" id="Fill-10"></path>
            <path d="M4.75570345,24.2050345 C4.5708069,24.2050345 4.38542759,24.1345517 4.24349655,23.9931034 C3.96108276,23.7106897 3.96108276,23.2515862 4.24349655,22.9686897 L6.59887586,20.6137931 C6.88128966,20.3304138 7.3403931,20.3304138 7.62328966,20.6137931 C7.90570345,20.8962069 7.90618621,21.3548276 7.62328966,21.6377241 L5.2683931,23.9931034 C5.12646207,24.1345517 4.94108276,24.2050345 4.75570345,24.2050345" id="Fill-12"></path>
            <path d="M14.1855241,28.0963586 C13.7853172,28.0963586 13.4613862,27.7724276 13.4613862,27.3722207 L13.4613862,24.041669 C13.4613862,23.6409793 13.7853172,23.317531 14.1855241,23.317531 C14.585731,23.317531 14.9096621,23.6409793 14.9096621,24.041669 L14.9096621,27.3722207 C14.9096621,27.7724276 14.585731,28.0963586 14.1855241,28.0963586" id="Fill-14"></path>
            <path d="M23.5648966,24.1710966 C23.38,24.1710966 23.1941379,24.1006138 23.0526897,23.9591655 L20.6977931,21.6037862 C20.4148966,21.3204069 20.4148966,20.862269 20.6977931,20.5793724 C20.9802069,20.2964759 21.4388276,20.2964759 21.7217241,20.5793724 L24.0771034,22.934269 C24.3595172,23.2176483 24.3595172,23.676269 24.0771034,23.9591655 C23.9356552,24.1006138 23.7502759,24.1710966 23.5648966,24.1710966" id="Fill-16"></path>
            <path d="M4.05512414,14.7724138 L0.724089655,14.7724138 C0.323882759,14.7724138 -4.82758622e-05,14.4484828 -4.82758622e-05,14.0482759 C-4.82758622e-05,13.648069 0.323882759,13.3241379 0.724089655,13.3241379 L4.05512414,13.3241379 C4.45533103,13.3241379 4.77926207,13.648069 4.77926207,14.0482759 C4.77926207,14.4484828 4.45533103,14.7724138 4.05512414,14.7724138" id="Fill-18"></path>
            <path d="M6.49155862,7.69483448 C6.30617931,7.69483448 6.1208,7.62435172 5.97935172,7.48290345 L3.62397241,5.12704138 C3.34107586,4.84414483 3.34155862,4.3860069 3.62397241,4.10311034 C3.90686897,3.82021379 4.3650069,3.82021379 4.64838621,4.10311034 L7.00376552,6.45848966 C7.28617931,6.74138621 7.28617931,7.2000069 7.00376552,7.48290345 C6.86183448,7.62435172 6.67693793,7.69531724 6.49155862,7.69483448" id="Fill-21"></path>
            <path d="M13.5660483,4.77921379 C13.1658414,4.77921379 12.8419103,4.45528276 12.8419103,4.05507586 L12.8419103,0.724041379 C12.8419103,0.323834483 13.1658414,-9.65517241e-05 13.5660483,-9.65517241e-05 C13.9662552,-9.65517241e-05 14.2901862,0.323834483 14.2901862,0.724041379 L14.2901862,4.05507586 C14.2901862,4.4548 13.9657724,4.77921379 13.5660483,4.77921379" id="Fill-23"></path>
            <path d="M20.5896069,7.72901379 C20.4047103,7.72901379 20.2188483,7.65853103 20.0774,7.51708276 C19.7949862,7.23418621 19.7949862,6.77556552 20.0774,6.49266897 L22.4327793,4.13728966 C22.7151931,3.8543931 23.1742966,3.8543931 23.4567103,4.13728966 C23.7396069,4.42018621 23.7400897,4.87832414 23.4567103,5.16122069 L21.1018138,7.51708276 C20.9603655,7.65853103 20.7749862,7.72949655 20.5896069,7.72901379" id="Fill-26"></path>
            <path d="M20.5896069,7.69483448 C20.4047103,7.69483448 20.2188483,7.62435172 20.0774,7.48290345 C19.7949862,7.2000069 19.7949862,6.74138621 20.0774,6.45848966 L22.4327793,4.10311034 C22.7151931,3.82021379 23.1742966,3.82021379 23.4567103,4.10311034 C23.7396069,4.3860069 23.7400897,4.84414483 23.4567103,5.12704138 L21.1018138,7.48290345 C20.9603655,7.62435172 20.7749862,7.69531724 20.5896069,7.69483448" id="Fill-28"></path>
            <path d="M13.5151172,4.77921379 C13.1149103,4.77921379 12.7909793,4.45528276 12.7909793,4.05507586 L12.7909793,0.724041379 C12.7909793,0.323834483 13.1149103,-9.65517241e-05 13.5151172,-9.65517241e-05 C13.9153241,-9.65517241e-05 14.2392552,0.323834483 14.2392552,0.724041379 L14.2392552,4.05507586 C14.2392552,4.4548 13.9148414,4.77921379 13.5151172,4.77921379" id="Fill-30"></path>
            <path d="M6.49155862,7.72901379 C6.30617931,7.72901379 6.1208,7.65853103 5.97935172,7.51708276 L3.62397241,5.16122069 C3.34107586,4.87832414 3.34155862,4.42018621 3.62397241,4.13728966 C3.90686897,3.8543931 4.3650069,3.8543931 4.64838621,4.13728966 L7.00376552,6.49266897 C7.28617931,6.77556552 7.28617931,7.23418621 7.00376552,7.51708276 C6.86183448,7.65853103 6.67693793,7.72949655 6.49155862,7.72901379" id="Fill-33"></path>
        </g>
    </g>
</svg>