<?xml version="1.0" encoding="UTF-8"?>
<svg width="34px" height="34px" viewBox="0 0 34 34" version="1.1" xmlns="http://www.w3.org/2000/svg" xmlns:xlink="http://www.w3.org/1999/xlink">
    <!-- Generator: Sketch 54.1 (76490) - https://sketchapp.com -->
    <title>Artboard</title>
    <desc>Created with Sketch.</desc>
    <g id="Artboard" stroke="none" stroke-width="1" fill="none" fill-rule="evenodd">
        <g id="waterproof" transform="translate(17.500000, 16.850000) scale(-1, 1) translate(-17.500000, -16.850000) translate(4.000000, 2.000000)" fill="#393939" fill-rule="nonzero">
            <path d="M21.1129895,4.10066231 C19.2191119,2.87727016 17.0388007,2.17904031 14.791923,2.07638371 L14.791923,0.708627904 C14.791923,0.330932567 14.4882708,0.02475 14.1136969,0.02475 C13.7391231,0.02475 13.4354709,0.330932567 13.4354709,0.708627904 L13.4354709,2.07638371 L13.4354709,2.07638371 C11.7556911,2.18258873 10.1074484,2.58535222 8.56580809,3.26633127 C4.02913308,5.38745549 1.15426802,10.0009231 1.22740255,15.0427088 C1.23353921,15.332867 1.41720854,15.5888786 1.68859624,15.685554 C1.96503747,15.781168 2.27113389,15.6874716 2.44820939,15.4530355 C3.30307268,14.3609953 4.59565463,13.7093185 5.9749847,13.674953 C7.35478491,13.707413 8.64812647,14.3594727 9.50176,15.4530355 C9.71410986,15.7314295 10.1010741,15.802373 10.3970184,15.6171662 C10.4452944,15.5899053 10.4907369,15.5578304 10.5326636,15.5214233 C11.3605335,14.729333 12.3517695,14.1315035 13.4354709,13.7706959 L13.4354709,25.9847552 C13.4354709,26.7401459 12.8281667,27.3525111 12.0790189,27.3525111 C11.3298711,27.3525111 10.7225668,26.7401459 10.7225668,25.9847552 C10.7225668,25.6070599 10.4189147,25.3008773 10.0443408,25.3008773 C9.66976693,25.3008773 9.3661148,25.6070599 9.3661148,25.9847552 C9.3661148,27.4955366 10.5807233,28.7202669 12.0790189,28.7202669 C13.5773144,28.7202669 14.791923,27.4955366 14.791923,25.9847552 L14.791923,13.7433408 C15.9136458,14.0673987 16.941746,14.65844 17.789682,15.4667131 L17.789682,15.4667131 C17.9139019,15.6067566 18.0916739,15.6864247 18.2780047,15.685554 L18.2780047,15.685554 C18.4154325,15.6798502 18.5478924,15.6321488 18.6578113,15.5487784 L18.7663274,15.439358 C19.7715304,14.5467774 20.9929217,13.9380707 22.3066673,13.674953 C23.6959195,13.7316018 24.9882551,14.4082141 25.8334426,15.5214233 C26.0299936,15.7173402 26.3233296,15.7764963 26.5794912,15.6718764 C26.8327581,15.5669671 26.9986246,15.3187916 26.9999913,15.0427088 C27.0158815,10.6219112 24.7969228,6.49757933 21.1129895,4.10066231 Z M9.3661148,10.8163433 C9.22658275,11.6433603 9.15399929,12.4804517 9.14908247,13.3193365 C8.21458507,12.6708289 7.10935734,12.3183998 5.9749847,12.3071972 C4.80995279,12.3238339 3.6745938,12.6801057 2.70593528,13.333014 C3.1757442,9.46663896 5.60606043,6.12495416 9.12195343,4.51098905 C10.2370375,4.02189319 11.4153467,3.69492761 12.6215997,3.53988243 C10.9826614,5.67263569 9.86714484,8.16597015 9.3661148,10.8163433 L9.3661148,10.8163433 Z M17.5997787,13.5518549 C16.5993266,12.8109664 15.4072164,12.3786105 14.167955,12.3071972 L14.167955,12.3071972 C12.8808293,12.405305 11.6502331,12.8807268 10.6276152,13.674953 C10.5752918,12.8031026 10.6070917,11.9281888 10.7225668,11.0625394 C11.2153285,8.37310286 12.3880343,5.85739204 14.1272615,3.75872336 C15.9141819,5.8124858 17.0855291,8.33597856 17.504827,11.0351843 C17.6404574,11.9080267 17.6904356,12.792224 17.6540368,13.674953 L17.5997787,13.5518549 Z M22.1845866,12.3071972 C21.0343392,12.5041713 19.9466596,12.9728652 19.0104888,13.674953 C19.0512341,12.7285588 19.0012657,11.7804085 18.8612791,10.8436984 C18.4708213,8.18301492 17.4003059,5.67061503 15.7550039,3.55355999 C17.4005633,3.79092527 18.9746861,4.38847465 20.3669409,5.30428742 C23.1745164,7.13066281 25.0595716,10.0940587 25.5350231,13.4287569 C24.5909734,12.6558859 23.3995994,12.257073 22.1845866,12.3071972 L22.1845866,12.3071972 Z" id="Shape"></path>
        </g>
    </g>
</svg>