<?xml version="1.0" encoding="UTF-8"?>
<svg width="34px" height="34px" viewBox="0 0 34 34" version="1.1" xmlns="http://www.w3.org/2000/svg" xmlns:xlink="http://www.w3.org/1999/xlink">
    <!-- Generator: Sketch 54.1 (76490) - https://sketchapp.com -->
    <title>Artboard</title>
    <desc>Created with Sketch.</desc>
    <g id="Artboard" stroke="none" stroke-width="1" fill="none" fill-rule="evenodd">
        <g id="water-resistant" transform="translate(8.000000, 6.000000)" fill="#393939" fill-rule="nonzero">
            <path d="M16.7089655,10.2724138 L16.6624138,10.197931 L9.75724138,0.527586207 C9.58243869,0.283218134 9.30045255,0.138225705 9,0.138225705 C8.69954745,0.138225705 8.41756131,0.283218134 8.24275862,0.527586207 L1.34068966,10.197931 L1.29413793,10.2724138 C-0.15128335,12.7839176 -0.127547488,15.8802609 1.3562069,18.3693103 C2.91534481,21.1251835 5.83675733,22.8289332 9.00310345,22.8289332 C12.1694496,22.8289332 15.0908621,21.1251835 16.65,18.3693103 C18.1327912,15.8796982 18.1553403,12.7833576 16.7089655,10.2724138 Z M15.0331034,17.4413793 C13.8063455,19.6200217 11.5002836,20.9680304 9,20.9680304 C6.49971643,20.9680304 4.19365451,19.6200217 2.96689655,17.4413793 C1.80630601,15.5436184 1.77299121,13.16399 2.88,11.2344828 L9,2.67206897 L15.1168966,11.2437931 C16.2199472,13.1695924 16.1878417,15.5430178 15.0331034,17.4382759 L15.0331034,17.4413793 Z" id="Shape"></path>
            <path d="M6.91758621,16.7431034 C6.46922828,16.7414019 6.10618433,16.3783579 6.10448276,15.93 C6.10448276,15.4158039 5.68764442,14.9989655 5.17344828,14.9989655 C4.65925213,14.9989655 4.24241379,15.4158039 4.24241379,15.93 C4.24241379,17.4091709 5.44151874,18.6082759 6.92068966,18.6082759 C7.4348858,18.6082759 7.85172414,18.1914375 7.85172414,17.6772414 C7.85172414,17.1630452 7.4348858,16.7462069 6.92068966,16.7462069 L6.91758621,16.7431034 Z" id="Path"></path>
        </g>
    </g>
</svg>