<?xml version="1.0" encoding="UTF-8"?>
<svg width="34px" height="34px" viewBox="0 0 34 34" version="1.1" xmlns="http://www.w3.org/2000/svg" xmlns:xlink="http://www.w3.org/1999/xlink">
    <!-- Generator: Sketch 54.1 (76490) - https://sketchapp.com -->
    <title>Artboard</title>
    <desc>Created with Sketch.</desc>
    <g id="Artboard" stroke="none" stroke-width="1" fill="none" fill-rule="evenodd">
        <path d="M19.2649597,5.27032967 C20.307769,6.39450549 23.3158728,9.76703297 23.2757648,11.6065934 L23.2757648,28.6395604 C23.2757648,30.8879121 21.1500381,32.6934066 18.5029067,32.6934066 L14.772858,32.6934066 C12.1257267,32.6934066 10,30.8879121 10,28.6395604 L10,11.6065934 C10,9.8010989 12.9679957,6.42857143 14.0108051,5.3043956 C14.0108051,5.27032967 14.0108051,5.27032967 14.0108051,5.27032967 L14.0108051,3.15824176 C14.0108051,2.51098901 14.6124258,2 15.3744788,2 L17.941394,2 C18.6633389,2 19.3050677,2.51098901 19.2649597,3.15824176 L19.2649597,5.27032967 C19.3050677,5.27032967 19.3050677,5.27032967 19.2649597,5.27032967 Z M11.1631335,14.7065934 L11.1631335,22.7120879 L22.1527393,22.7120879 L22.1527393,14.7065934 L11.1631335,14.7065934 Z M15.3744788,2.98791209 C15.2541546,2.98791209 15.1739385,3.05604396 15.1739385,3.15824176 L15.1739385,4.75934066 L18.1419343,4.75934066 L18.1419343,3.15824176 C18.1419343,3.05604396 18.0617182,2.98791209 17.941394,2.98791209 L15.3744788,2.98791209 Z M15.0536144,5.74725275 C13.8102648,7.04175824 11.1631335,10.1758242 11.1631335,11.5725275 L11.1631335,13.7527473 L22.1527393,13.7527473 L22.1527393,11.5725275 C22.1527393,10.1758242 19.505608,7.04175824 18.2622584,5.74725275 L15.0536144,5.74725275 Z M18.5430148,31.6714286 C20.5484173,31.6714286 22.1527393,30.3087912 22.1928474,28.6395604 L22.1928474,23.7 L11.2032415,23.7 L11.2032415,28.6054945 C11.2032415,30.2747253 12.8075635,31.6714286 14.8129661,31.6714286 L18.5430148,31.6714286 Z M17.1120879,16.1788462 C17.4186813,16.5876374 18.4747253,17.9502747 18.4747253,18.7337912 C18.4747253,19.6876374 17.6912088,20.4711538 16.7373626,20.4711538 C15.7835165,20.4711538 15,19.6876374 15,18.7337912 C15,17.9502747 16.056044,16.5876374 16.3626374,16.1788462 C16.532967,15.9403846 16.9417582,15.9403846 17.1120879,16.1788462 Z M16.7373626,19.5173077 C17.1461538,19.5173077 17.4868132,19.1766484 17.4868132,18.7678571 C17.4868132,18.5293956 17.1461538,17.9162088 16.7373626,17.3370879 C16.3285714,17.9162088 15.9879121,18.5293956 15.9879121,18.7678571 C15.9879121,19.1766484 16.3285714,19.5173077 16.7373626,19.5173077 Z" id="water-bottle" stroke="#393939" stroke-width="0.5" fill="#393939" fill-rule="nonzero"></path>
    </g>
</svg>