<?xml version="1.0" encoding="UTF-8"?>
<svg width="34px" height="34px" viewBox="0 0 34 34" version="1.1" xmlns="http://www.w3.org/2000/svg" xmlns:xlink="http://www.w3.org/1999/xlink">
    <!-- Generator: Sketch 54.1 (76490) - https://sketchapp.com -->
    <title>Artboard</title>
    <desc>Created with Sketch.</desc>
    <g id="Artboard" stroke="none" stroke-width="1" fill="none" fill-rule="evenodd">
        <g id="wind-protection" transform="translate(17.000000, 17.000000) scale(-1, 1) translate(-17.000000, -17.000000) translate(1.000000, 5.000000)" fill="#393939" fill-rule="nonzero">
            <path d="M22.336,13.3879518 L0.0284444444,13.3879518 L0.0284444444,14.8337349 L22.3288889,14.8337349 C23.104,14.8337349 23.8506667,15.1518072 24.3982222,15.7084337 C25.2657778,16.5903614 25.2657778,18.0144578 24.3982222,18.8963855 C23.7582222,19.539759 22.7271111,19.539759 22.0942222,18.8963855 C21.6391111,18.4337349 21.6391111,17.6891566 22.0942222,17.226506 L21.0915556,16.2072289 C20.0817778,17.2337349 20.0817778,18.8963855 21.0915556,19.9228916 C22.2862222,21.1301205 24.2133333,21.1301205 25.408,19.9228916 C26.8231111,18.4771084 26.8231111,16.1349398 25.408,14.6891566 C24.5902222,13.8578313 23.488,13.3879518 22.336,13.3879518 Z" id="Path"></path>
            <path d="M11.1857778,17.7325301 L4.29511111,17.7325301 L4.29511111,19.1783133 L11.1857778,19.1783133 C11.7617778,19.1783133 12.3164444,19.4168675 12.7217778,19.8289157 C13.3475556,20.4722892 13.3475556,21.5060241 12.7217778,22.1493976 C12.2737778,22.6048193 11.5484444,22.6048193 11.1004444,22.1493976 C11.1004444,22.1493976 11.1004444,22.1493976 11.1004444,22.1493976 C10.7946667,21.8385542 10.7946667,21.339759 11.1004444,21.0361446 L10.0977778,20.0168675 C9.23733333,20.8915663 9.23733333,22.3012048 10.0977778,23.1759036 C11.1004444,24.1951807 12.7288889,24.1951807 13.7315556,23.1759036 C13.7315556,23.1759036 13.7315556,23.1759036 13.7315556,23.1759036 C14.912,21.9686747 14.912,20.0168675 13.7315556,18.8096386 C13.056,18.1228916 12.1386667,17.7325301 11.1857778,17.7325301 Z" id="Path"></path>
            <path d="M21.2195556,5.19036145 C22.4,3.98313253 22.4,2.0313253 21.2195556,0.824096386 C20.2168889,-0.195180723 18.5884444,-0.195180723 17.5857778,0.824096386 C16.7253333,1.69879518 16.7253333,3.10843373 17.5857778,3.98313253 L18.5884444,2.96385542 C18.2826667,2.65301205 18.2826667,2.15421687 18.5884444,1.85060241 C19.0364444,1.39518072 19.7617778,1.39518072 20.2097778,1.85060241 C20.8355556,2.4939759 20.8355556,3.52771084 20.2097778,4.17108434 C19.8044444,4.58313253 19.2497778,4.82168675 18.6737778,4.82168675 L7.424,4.82168675 L7.424,6.26746988 L18.688,6.26746988 C19.6337778,6.26746988 20.5511111,5.87710843 21.2195556,5.19036145 Z" id="Path"></path>
            <path d="M30.8337778,3.54216867 C29.5608889,2.24819277 27.4986667,2.24819277 26.2257778,3.54216867 C25.152,4.63373494 25.152,6.40481928 26.2257778,7.49638554 L27.2284444,6.47710843 C26.7093333,5.94939759 26.7093333,5.09638554 27.2284444,4.5686747 C27.2284444,4.5686747 27.2284444,4.5686747 27.2284444,4.5686747 C27.9466667,3.83855422 29.1128889,3.83855422 29.8311111,4.5686747 C30.7982222,5.55180723 30.7982222,7.14216867 29.8311111,8.1253012 C29.2266667,8.74698795 28.4017778,9.0939759 27.5413333,9.10120482 L3.47022222,9.10120482 L3.47022222,10.546988 L27.5413333,10.546988 C28.7786667,10.539759 29.9591111,10.0409639 30.8337778,9.15180723 C32.3484444,7.59759036 32.3484444,5.08915663 30.8337778,3.54216867 Z" id="Path"></path>
        </g>
    </g>
</svg>