<?xml version="1.0" encoding="UTF-8"?>
<svg width="34px" height="34px" viewBox="0 0 34 34" version="1.1" xmlns="http://www.w3.org/2000/svg" xmlns:xlink="http://www.w3.org/1999/xlink">
    <!-- Generator: Sketch 54.1 (76490) - https://sketchapp.com -->
    <title>Artboard</title>
    <desc>Created with Sketch.</desc>
    <g id="Artboard" stroke="none" stroke-width="1" fill="none" fill-rule="evenodd">
        <g id="women-specific-fit" transform="translate(10.000000, 1.000000)" fill="#393939" fill-rule="nonzero">
            <path d="M7.29166667,1.65064935 C6.29166667,1.65064935 5.45833333,2.45584416 5.45833333,3.42207792 C5.45833333,4.38831169 6.29166667,5.19350649 7.29166667,5.19350649 C8.29166667,5.19350649 9.125,4.38831169 9.125,3.42207792 C9.125,2.41558442 8.33333333,1.65064935 7.29166667,1.65064935 M7.29166667,6.72337662 C5.375,6.72337662 3.83333333,5.23376623 3.83333333,3.38181818 C3.83333333,1.52987013 5.375,0.0402597403 7.29166667,0.0402597403 C9.20833333,0.0402597403 10.75,1.52987013 10.75,3.38181818 C10.7916667,5.23376623 9.20833333,6.72337662 7.29166667,6.72337662" id="Shape"></path>
            <path d="M14.75,18.1168831 L13.125,18.1168831 L13.125,10.2662338 C13.125,9.98441558 12.875,9.74285714 12.5833333,9.74285714 L2.29166667,9.74285714 C2,9.74285714 1.75,9.98441558 1.75,10.2662338 L1.75,18.1168831 L0.125,18.1168831 L0.125,10.2662338 C0.125,9.0987013 1.125,8.13246753 2.33333333,8.13246753 L12.5833333,8.13246753 C13.7916667,8.13246753 14.7916667,9.0987013 14.7916667,10.2662338 L14.7916667,18.1168831 L14.75,18.1168831 Z" id="Path"></path>
            <path d="M10.9166667,23.7532468 L3.91666667,23.7532468 C3.33333333,23.7532468 2.75,23.5116883 2.375,23.0688312 C2,22.6662338 1.83333333,22.0623377 1.95833333,21.4987013 L3.33333333,13.4064935 L5,13.4064935 L3.54166667,21.7805195 C3.54166667,21.9012987 3.54166667,21.9818182 3.58333333,22.0623377 C3.625,22.1428571 3.75,22.1831169 3.875,22.1831169 L10.875,22.1831169 C11,22.1831169 11.0833333,22.1428571 11.1666667,22.0623377 C11.2083333,21.9818182 11.25,21.9012987 11.2083333,21.7805195 L9.79166667,13.4064935 L11.4583333,13.4064935 L12.875,21.4987013 C12.9583333,22.0623377 12.8333333,22.625974 12.4583333,23.0688312 C12.0833333,23.5116883 11.5416667,23.7532468 10.9166667,23.7532468" id="Path"></path>
            <path d="M8.5,31 L8.5,31 L6.33333333,31 C5.16666667,31 4.125,30.074026 4.04166667,28.9467532 L3.33333333,24.5584416 L5,24.5584416 L5.75,28.8662338 C5.75,29.1883117 6.04166667,29.4298701 6.375,29.4298701 L8.54166667,29.4298701 C8.875,29.4298701 9.16666667,29.1480519 9.16666667,28.8662338 L9.875,24.5584416 L11.5,24.5584416 L10.75,28.9467532 C10.7083333,30.074026 9.70833333,31 8.5,31" id="Path"></path>
        </g>
    </g>
</svg>