<?xml version="1.0" encoding="UTF-8"?>
<svg width="34px" height="34px" viewBox="0 0 34 34" version="1.1" xmlns="http://www.w3.org/2000/svg" xmlns:xlink="http://www.w3.org/1999/xlink">
    <!-- Generator: Sketch 54.1 (76490) - https://sketchapp.com -->
    <title>Artboard</title>
    <desc>Created with Sketch.</desc>
    <defs>
        <polygon id="path-1" points="0 0 8.08536533 0 8.08536533 28 0 28"></polygon>
        <polygon id="path-3" points="0 28 8.08606738 28 8.08606738 0 0 0"></polygon>
    </defs>
    <g id="Artboard" stroke="none" stroke-width="1" fill="none" fill-rule="evenodd">
        <g id="zip-snap-in-compatible" transform="translate(13.000000, 3.000000)">
            <g id="Group-3">
                <mask id="mask-2" fill="white">
                    <use xlink:href="#path-1"></use>
                </mask>
                <g id="Clip-2"></g>
                <path d="M3.31110834,0 L3.31110834,1.30232558 L1.10762009,1.30232558 L1.10762009,2.60465116 L3.31110834,2.60465116 L3.31110834,3.90697674 L1.10762009,3.90697674 L1.10762009,5.20930233 L3.31110834,5.20930233 L3.31110834,6.51162791 L1.10762009,6.51162791 L1.10762009,7.81395349 L3.31110834,7.81395349 L3.31110834,9.11627907 L1.10762009,9.11627907 L1.10762009,10.4186047 L3.31110834,10.4186047 L3.31110834,11.7209302 L1.10762009,11.7209302 L1.10762009,13.0232558 L3.31110834,13.0232558 L3.31110834,14.3255814 L1.10762009,14.3255814 C0.702178256,14.3255814 0.37312401,14.6173023 0.37312401,14.9767442 L0.37312401,18.8837209 C0.376061995,19.1995349 0.636808104,19.4671628 0.989366224,19.5140465 L0.0345213159,24.9994419 C-0.212269368,26.4209302 0.888005765,27.7512558 2.49141071,27.9693953 C2.64124792,27.9895814 2.79255411,28 2.9438603,28 L5.14734855,28 C6.7698504,28 8.08533289,26.8344186 8.08533289,25.3953488 C8.08606738,25.2631628 8.07431544,25.1309767 8.05154607,24.9994419 L7.09670116,19.5140465 C7.45146277,19.4684651 7.71514686,19.2008372 7.71808484,18.8837209 L7.71808484,14.9767442 C7.71808484,14.6173023 7.38976509,14.3255814 6.98358876,14.3255814 L4.78010051,14.3255814 L4.78010051,13.0232558 L6.98358876,13.0232558 L6.98358876,11.7209302 L4.78010051,11.7209302 L4.78010051,10.4186047 L6.98358876,10.4186047 L6.98358876,9.11627907 L4.78010051,9.11627907 L4.78010051,7.81395349 L6.98358876,7.81395349 L6.98358876,6.51162791 L4.78010051,6.51162791 L4.78010051,5.20930233 L6.98358876,5.20930233 L6.98358876,3.90697674 L4.78010051,3.90697674 L4.78010051,2.60465116 L6.98358876,2.60465116 L6.98358876,1.30232558 L4.78010051,1.30232558 L4.78010051,0 L3.31110834,0 Z M6.6016508,25.2 C6.72357715,25.9110698 6.17197059,26.5752558 5.36990087,26.6833488 C5.29571676,26.6924651 5.22226715,26.6976744 5.14734855,26.6976744 L2.9438603,26.6976744 C2.13297663,26.6976744 1.47486814,26.1148837 1.47486814,25.3953488 C1.47486814,25.3295814 1.4807441,25.2644651 1.49176155,25.2 L2.47231382,19.5348837 L5.61889504,19.5348837 L6.6016508,25.2 Z M4.78010051,15.627907 L6.24909268,15.627907 L6.24909268,18.2325581 L1.84211618,18.2325581 L1.84211618,15.627907 L3.31110834,15.627907 L3.31110834,16.9302326 L4.78010051,16.9302326 L4.78010051,15.627907 Z" id="Fill-1" fill="#393939" mask="url(#mask-2)"></path>
            </g>
            <mask id="mask-4" fill="white">
                <use xlink:href="#path-3"></use>
            </mask>
            <g id="Clip-5"></g>
            <polygon id="Fill-4" fill="#393939" mask="url(#mask-4)" points="3.31110834 25.3953488 4.78010051 25.3953488 4.78010051 24.0930233 3.31110834 24.0930233"></polygon>
        </g>
    </g>
</svg>