<svg width="119" height="42" xmlns="http://www.w3.org/2000/svg" xmlns:xlink="http://www.w3.org/1999/xlink"><defs><path id="a" d="M0 .083h42.944V41.86H0z"/><path id="c" d="M.099.189h27.618v26.134H.099z"/></defs><g fill="none" fill-rule="evenodd"><path fill="#FFF" d="M23.563 28.655h.442v-.227h-.442zM17.01 21.16h.231V20.7h-.23z"/><mask id="b" fill="#fff"><use xlink:href="#a"/></mask><path d="M32.598 23.303l.214-1.114v-1.574h.458v1.574l-.227 1.114h-.445zm4.706-3.13v.211c0 6.578-3.436 11.512-10.31 14.801-.508.896-2.003 1.342-4.476 1.342h-1.576c-.553-.6-1.748-.978-3.588-1.129C10.184 32.18 6.6 27.552 6.6 21.518v-1.806c0-4.242 2.094-8.12 6.276-11.633 0-.778 1.124-1.528 3.362-2.245v.442l1.786-.442V8.75c-5.53 2.865-8.293 6.672-8.293 11.424v.441h.46v.672h-.46v.23c0 2.725 1.418 5.557 4.264 8.503 2.557 1.795 5.019 2.69 7.39 2.69h.903c3.951 0 7.012-1.716 9.181-5.146 1.652-1.933 2.474-4.102 2.474-6.507V18.6h-.232v.44h-.441l-.227-1.342h.442v.672h.226v-.672l-.226-.885-.215.212h-.227c-.65-1.697-1.47-2.965-2.462-3.8v.671h-.227c-2.24-1.945-3.586-2.918-4.033-2.918v-.442h.23l2.228.902v-.23c-.858-.966-2.206-1.938-4.033-2.917v-.442l.23.23h.673V6.276l.442-.442c3.797 1.153 6.787 3.471 8.968 6.947.834 1.298 1.585 3.385 2.245 6.26l-.228.902.228.23zm-13.23 17.47h-1.115v-.23l1.115-.212v.442zM5.486 23.533h.442l.902 3.59c-.496 0-.943-1.198-1.344-3.59zm-.458-2.246h.458v-1.575h-.458v1.575zm-.673 2.69l-.214-1.56h.443l.23 1.56h-.459zm-.445-6.493h.445v-.459H3.91v.46zm.23-.9h.443v-.442h-.442v.442zm0-3.13h.444v.213l-.443.46v-.673zm7.166-5.163h.227v.23l-4.487 6.047H6.83c0-1.91 1.491-4.003 4.476-6.277zm-3.133-.883L9.52 6.276v.228L8.386 7.62h-.213v-.211zm12.098 2.014v.214l-.442.459-.23-.23-1.575.442v-.443l1.575-.442h.672zm.23-.902h.673v-.44H20.5v.44zm-.23 23.076v.229l-.228.213h-.214c-2.287 0-4.379-1.121-6.277-3.358v-.214h.443c3.298 2.086 5.391 3.13 6.276 3.13zm.902.9h.885v-.457h-.885v.458zM14.666 19.04c0-1.496.819-2.84 2.455-4.029h.461v.228c-1.214 1.58-1.96 2.846-2.247 3.801h-.669zm1.572 7.182h.212v-.443h-.212v.443zm4.704 1.573v.441l-1.574-.23v-.442l1.574.23zm.907-1.805h.67v-.442h-.67v.442zm.439-3.129l.671-.672.443.442-.672.672-.442-.442zm3.591 3.59v.212c0 .248-.448.547-1.344.901l-.461-.441-.211.21h-.231l-.23-.21v-.901c2.393-1.593 3.592-3.385 3.592-5.377v-.23c-.805-3.135-2.372-4.703-4.706-4.703v.23l-.23-.23h-.443c-3.133.848-4.705 2.193-4.705 4.03v.232h.211v-.462h.461l-.46 1.133c.308 1.19.607 1.786.902 1.786h.234v-.214l-.234-.228v-.23l.234-.23h.438c.85 1.355 1.747 2.033 2.689 2.033h.903c1.183 0 2-.824 2.458-2.475l-.211-1.113h.211c-.389-.967-.763-1.492-1.114-1.574v.44h-.23c-.897-.293-1.344-.665-1.344-1.111h-.21c-1.17 0-2.222.67-3.152 2.014h-.227l-.445-.44v-.674c1.344-1.202 2.543-1.804 3.591-1.804h.443l1.344.23.903-.23c.412 0 .936.526 1.574 1.575v.23l-.671.21.671 2.69.212.23v.457l-.672.674-.211-.23h-.232c0 .836-1.042 1.51-3.127 2.017-.689 0-1.812-.524-3.38-1.575l-.675-.212-.212.212v.46l.442.441.445-.442h.227l1.133 1.116v.228h-.902v.213c.604 0 1.047.302 1.344.903v.67l-.442.441h-.23c-2.995-1.532-4.491-4.072-4.491-7.62.211-.011.66-.907 1.342-2.688 1.427-1.426 3.002-2.32 4.723-2.687 0-.295.448-.519 1.345-.671.896.304 1.345.607 1.345.901l-.231.23c2.229 0 3.797 1.864 4.706 5.586v.673c0 2.229-.897 3.95-2.689 5.165l.23.228zm3.36-6.277l-.23-1.134v-.21h.442l.23 1.113v.23h-.442zm.212 1.786h.457v-.673h-.457v.673zm.903-1.345h.442v-.442h-.442v.442zm-8.505-10.08h.67c2.852 0 5.54 1.42 8.062 4.263.675 0 1.193.744 1.56 2.227h-.446l.23 1.132-.23.213h-1.57c-2.111-3.586-4.277-5.375-6.493-5.375v-.214l-.23.214h-.212l-2.248-.214c-2.57 0-4.739 1.717-6.506 5.148-.296.552-.52 1.672-.676 3.358l.464.442-.23.902c.283 1.78 1.703 3.571 4.264 5.375 0 .342.893.644 2.684.902h.907v-.442h.67v.442h.67l.443-.442 3.131-1.574-.442-.67c1.19-1.11 1.783-1.859 1.783-2.245h.464v.227l-.676 2.018h.212l1.804-2.688.888-.231c.753.188 1.13.412 1.13.674-2.001 4.783-5.07 7.178-9.196 7.178h-1.345c-4.186 0-7.245-2.395-9.177-7.178-.753-.45-1.133-1.198-1.133-2.248v-1.345c.895-2.534 1.87-4.619 2.92-6.257 2.414-2.394 5.035-3.591 7.854-3.591zm.209-1.113h.901v-.459h-.901v.46zM21.53.083C9.062.083 0 9.49 0 20.971v.115C0 32.57 8.947 41.86 21.415 41.86c12.466 0 21.53-9.405 21.53-20.889v-.115C42.944 9.375 33.996.083 21.53.083z" fill="#FFF" mask="url(#b)"/><path d="M48.433 10.683h8.775v3.509c1.616-2.078 3.926-4.063 7.482-4.063 5.311 0 8.498 3.509 8.498 9.188v16.345h-8.776V22.133c0-2.724-1.431-4.201-3.51-4.201-2.124 0-3.694 1.477-3.694 4.201v13.53h-8.775v-24.98zm28.496 17.222V17.747h-2.956v-7.064h2.956V4.357h8.775v6.326h5.819v7.064h-5.82v8.45c0 1.754.786 2.493 2.402 2.493 1.155 0 2.264-.323 3.326-.831v6.88c-1.57.877-3.649 1.431-6.097 1.431-5.265 0-8.405-2.308-8.405-8.265" fill="#FFF"/><g transform="translate(91.199 9.94)"><mask id="d" fill="#fff"><use xlink:href="#c"/></mask><path d="M19.173 13.349v-.093c0-3.047-2.217-5.633-5.311-5.633-3.187 0-5.22 2.54-5.22 5.54v.093c0 3.048 2.218 5.633 5.312 5.633 3.187 0 5.219-2.54 5.219-5.54m-19.074 0v-.093C.099 6.146 5.918.19 13.954.19c7.99 0 13.763 5.864 13.763 12.975v.092c0 7.11-5.82 13.067-13.855 13.067C5.872 26.323.099 20.46.099 13.35" fill="#FFF" mask="url(#d)"/></g></g></svg>