<svg viewBox="0 0 1152 576" xmlns="http://www.w3.org/2000/svg"><g fill="#6ccdf0"><path d="m261.84 282.61h2.12v4.23h-2.12z"/><path d="m325.62 358.72h4.05v2.09h-4.05z"/><path d="m306.34 96.34c-114.37 0-197.5 86.3-197.5 191.65v1.06c0 105.37 82.08 190.61 196.44 190.61s197.49-86.3 197.49-191.66v-1.05c0-105.36-82.07-190.61-196.43-190.61zm4.84 81.48h8.27v4.18h-8.27zm-1.92 14.43h6.14q39.25 0 74 39.11c6.19 0 10.94 6.81 14.31 20.43h-4.09l2.11 10.39-2.11 1.95h-14.4q-29.06-49.35-59.56-49.32v-2l-2.11 2h-1.95l-20.61-2q-35.37 0-59.68 47.23-4.08 7.59-6.21 30.81l4.26 4.06-2.11 8.28q3.9 24.48 39.11 49.31c0 3.14 8.19 5.91 24.63 8.28h8.31v-4.05h6.14v4.05h6.16l4.06-4.05 28.72-14.45-4.06-6.15c10.93-10.18 16.36-17.05 16.36-20.6h4.25v2.09l-6.2 18.51h1.95l16.55-24.66 8.15-2.12q10.35 2.58 10.35 6.18-27.53 65.83-84.35 65.86h-12.38q-57.58 0-84.18-65.86c-6.9-4.13-10.39-11-10.39-20.62v-12.3q12.33-34.87 26.78-57.42 33.23-32.94 72.05-32.94zm82.08 88.43v4.05h-4.07v-4.05zm-12.34 10.21h4.19v6.17h-4.19zm-1.95-10.21-2.11-10.4v-1.94h4.06l2.11 10.22v2.12zm-30.82 57.58v2q0 3.4-12.33 8.27l-4.23-4.05-1.94 1.93h-2.11l-2.11-1.93v-8.27q32.92-21.93 32.94-49.33v-2.11q-11.06-43.16-43.16-43.15v2.1l-2.11-2.1h-4.06q-43.12 11.63-43.12 36.94v2.12h1.94v-4.24h4.22l-4.22 10.4c2.83 10.92 5.57 16.39 8.27 16.39h2.15v-2l-2.15-2.09v-2.11l2.15-2.11h4q11.64 18.68 24.64 18.68h8.29q16.27 0 22.55-22.71l-1.94-10.21h1.94c-3.57-8.87-7-13.69-10.22-14.44v4h-2.11q-12.35-4-12.33-10.2h-1.92q-16.1 0-28.92 18.48h-2.08l-4.09-4v-6.18q18.49-16.54 32.95-16.55h4.06l12.33 2.11 8.28-2.11q5.67 0 14.44 14.45v2.1l-6.16 1.94 6.16 24.72 1.94 2.11v4.2l-6.17 6.13-1.94-2.1h-2.06q0 11.49-28.69 18.5-9.47 0-31-14.45l-6.19-1.95-1.95 1.95v4.21l4.05 4.06 4.09-4.06h2.08l10.4 10.24v2.09h-8.28v2c5.54 0 9.61 2.76 12.33 8.28v6.15l-4.05 4.05h-2.11q-41.22-21.09-41.2-69.93 2.91-.13 12.31-24.65 19.63-19.64 43.33-24.66 0-4.06 12.33-6.16 12.33 4.2 12.33 8.28l-2.11 2.11q30.66 0 43.16 51.25v6.17q0 30.68-24.66 47.39zm-32.94-32.92 6.16-6.17 4.06 4.06-6.17 6.16zm2.11 24.66v4h-6.14v-4zm-14.4 20.6v4l-14.45-2.11v-4.05zm-41.21-18.5v4.07h-1.95v-4.07zm-16.37-61.82q0-20.59 22.53-37h4.22v2.09q-16.69 21.73-20.61 34.88zm67.81 119.26v4.21h-8.11v-4.21zm-16.39-4.06v2.1l-2.09 2h-2q-31.49 0-57.59-30.82v-2h4.06q45.38 28.71 57.57 28.72zm2.06-215.78h6.17v4.05h-6.17zm-2.11 12.3v2l-4.05 4.21-2.11-2.11-14.46 4v-4l14.46-4.1zm-111-18.49 12.34-10.38v2.1l-10.39 10.23h-2zm28.73 8.11h2.08v2.1l-41.16 55.5h-2q.06-26.22 41.11-57.57zm-65.69 47.38h4.06v2l-4.06 4.22zm0 24.66h4.06v4.06h-4.06zm-2.12 8.11h4.09v4.23h-4.09zm4.09 63.78-2-14.31h4.06l2.14 14.33zm6.2-39.11h4.2v14.45h-4.2zm4.2 35.07h4.05l8.28 32.93q-6.85 0-12.36-32.93zm170.47 129.49h-10.22v-2.11l10.22-1.94zm121.33-160.32v1.93q0 90.52-94.58 135.8-7 12.33-41.05 12.32h-14.37q-7.62-8.26-32.91-10.36-98.7-44.31-98.7-127.37v-16.56q0-58.38 57.56-106.74c0-7.14 10.32-14 30.84-20.6v4.06l16.38-4.06v26.76q-76.1 39.44-76.07 104.82v4.05h4.22v6.16h-4.22v2.11q0 37.49 39.11 78 35.19 24.73 67.79 24.7h8.29q54.36 0 84.22-47.21 22.73-26.61 22.69-59.71v-22.54h-2.13v4h-4l-2.07-12.24h4v6.17h2.07v-6.17l-2.07-8.16-2 1.95h-2q-9-23.35-22.59-34.87v6.16h-2.09q-30.81-26.78-37-26.78v-4.05h2.11l20.45 8.27v-2.1c-7.88-8.87-20.25-17.79-37-26.77v-4.05l2.11 2.1h6.17v-16.54l4.05-4.06q52.24 15.89 82.27 63.75 11.44 17.85 20.52 57.43l-2.09 8.28zm-43.17 28.71 2-10.22v-14.44h4.17v14.44l-2 10.22z"/><path d="m559 221.86h60.27v24.14c11.1-14.28 27-27.92 51.39-27.92 36.48 0 58.37 24.11 58.37 63.13v112.3h-60.23v-93c0-18.72-9.84-28.87-24.11-28.87-14.6 0-25.38 10.15-25.38 28.87v93h-60.31z"/><path d="m754.76 340.18v-69.79h-20.3v-48.53h20.3v-43.46h60.24v43.46h40v48.53h-40v58.06c0 12.05 5.39 17.13 16.49 17.13 7.93 0 15.55-2.22 22.84-5.71v47.26c-10.78 6-25.06 9.84-41.87 9.84-36.12.03-57.7-15.86-57.7-56.79z"/><path d="m853.46 308.46v-.63c0-48.86 40-89.78 95.16-89.78 54.88 0 94.54 40.29 94.54 89.14v.64c0 48.85-40 89.77-95.17 89.77-54.88 0-94.53-40.29-94.53-89.14zm131 0v-.63c0-20.94-15.23-38.71-36.48-38.71-21.89 0-35.85 17.45-35.85 38.07v.64c0 20.93 15.23 38.7 36.48 38.7 21.9 0 35.86-17.45 35.86-38.07z"/></g></svg>