<svg height="1365.3333" viewBox="0 0 1365.3333 1365.3333" width="1365.3333" xmlns="http://www.w3.org/2000/svg"><path d="m10240 5120c0 2827.7-2292.3 5120-5120 5120s-5120-2292.3-5120-5120c0-2555.54 1872.31-4673.699 4320-5057.8008v3577.8008h-1300v1480h1300v1128c0 1283.2 764.38 1992 1933.9 1992 560.17 0 1146.1-100 1146.1-100v-1260h-645.62c-636.03 0-834.38-394.67-834.38-799.57v-960.43h1420l-227-1480h-1193v-3577.8008c2447.69 384.1018 4320 2502.2608 4320 5057.8008" fill="#fff" transform="matrix(.13333333 0 0 -.13333333 0 1365.3333)"/></svg>