<svg height="1750" viewBox=".5 .5 999 699.242" width="2500" xmlns="http://www.w3.org/2000/svg"><path d="m416.224 76.763c32.219-33.57 77.074-54.391 126.682-54.391 65.946 0 123.48 36.772 154.12 91.361 26.626-11.896 56.098-18.514 87.106-18.514 118.94 0 215.368 97.268 215.368 217.247 0 119.993-96.428 217.261-215.368 217.261a213.735 213.735 0 0 1 -42.422-4.227c-26.981 48.128-78.397 80.646-137.412 80.646-24.705 0-48.072-5.706-68.877-15.853-27.352 64.337-91.077 109.448-165.348 109.448-77.344 0-143.261-48.939-168.563-117.574-11.057 2.348-22.513 3.572-34.268 3.572-92.087.001-166.742-75.422-166.742-168.477 0-62.359 33.542-116.807 83.378-145.937-10.26-23.608-15.967-49.665-15.967-77.06 0-107.015 86.879-193.765 194.037-193.765 62.914 0 118.827 29.913 154.276 76.263" fill="#fff"/></svg>