<svg width="48" height="48" viewBox="0 0 48 48" fill="none" xmlns="http://www.w3.org/2000/svg">
<rect width="48" height="48" rx="24" fill="#EAF5FE"/>
<path d="M21.0174 30.6103C21.5836 30.6103 22.0426 29.9456 22.0426 29.1256C22.0426 28.3056 21.5836 27.6409 21.0174 27.6409C20.4512 27.6409 19.9921 28.3056 19.9921 29.1256C19.9921 29.9456 20.4512 30.6103 21.0174 30.6103Z" fill="#0176D3"/>
<path d="M27.3045 30.6103C27.8707 30.6103 28.3297 29.9456 28.3297 29.1256C28.3297 28.3056 27.8707 27.6409 27.3045 27.6409C26.7383 27.6409 26.2792 28.3056 26.2792 29.1256C26.2792 29.9456 26.7383 30.6103 27.3045 30.6103Z" fill="#0176D3"/>
<path d="M29.0743 33.5943C28.5783 33.1638 27.3669 32.2429 25.7206 31.8484C25.4534 32.2562 24.9068 32.5361 24.2752 32.5361C23.6435 32.5361 23.0638 32.2389 22.8058 31.8124C21.7991 32.031 20.7207 32.5121 19.605 33.3811C19.3271 33.597 19.1436 33.9368 19.1449 34.3033C19.1449 36.7236 21.6515 34.7671 24.1555 34.8071C26.7153 34.8484 29.4028 36.5357 29.4028 34.3447C29.4188 34.0554 29.2858 33.7796 29.0743 33.5956V33.5943Z" fill="#0176D3"/>
<path d="M20.1079 35.7267C19.818 35.7267 19.5694 35.6654 19.3672 35.5095C19.0747 35.2829 18.9337 34.8884 18.9337 34.3007C18.9324 33.8848 19.1345 33.477 19.4763 33.2105C20.5321 32.3882 21.6372 31.8471 22.7621 31.6032C22.8499 31.5832 22.9417 31.6232 22.9882 31.7005C23.2169 32.0776 23.7222 32.3229 24.2754 32.3229C24.8286 32.3229 25.3087 32.091 25.544 31.7311C25.5932 31.6565 25.6837 31.6205 25.7701 31.6418C27.4868 32.0537 28.7501 33.0319 29.2129 33.4344C29.4828 33.6689 29.6331 34.0128 29.6145 34.3553C29.6145 34.8524 29.4815 35.2069 29.2062 35.4282C28.665 35.8626 27.7023 35.6454 26.5879 35.3948C25.8326 35.2243 24.9762 35.0323 24.1518 35.019C23.3007 35.0057 22.447 35.2309 21.6903 35.4295C21.0787 35.5894 20.5454 35.7294 20.1066 35.7294L20.1079 35.7267ZM22.7129 32.0497C21.6983 32.2936 20.697 32.7973 19.7356 33.5463C19.4975 33.7316 19.3553 34.0141 19.3566 34.2993C19.3566 34.7471 19.4444 35.0337 19.6252 35.1736C19.9683 35.4402 20.717 35.2429 21.5826 35.0163C22.3659 34.8111 23.2502 34.5752 24.1584 34.5925C25.0268 34.6072 25.9057 34.8044 26.681 34.979C27.689 35.2056 28.5586 35.4015 28.9416 35.095C29.1092 34.9604 29.1916 34.7138 29.1916 34.342C29.2036 34.1181 29.1078 33.9035 28.9363 33.7542C28.5081 33.3837 27.3632 32.4948 25.8073 32.0883C25.4709 32.4988 24.8991 32.748 24.2754 32.748C23.6518 32.748 23.0441 32.4841 22.7129 32.051V32.0497Z" fill="#0176D3"/>
<path d="M16.8844 34.362C14.8153 35.5694 12.923 34.5419 12.2063 34.0128C13.4137 33.1812 13.8286 32.8893 13.8831 32.2696C12.2435 32.3309 11.04 32.1923 9.45496 29.5055C11.1039 29.019 10.7342 28.6498 13.4336 27.7756C13.3592 27.3051 11.2528 27.6116 10.5135 26.8613C11.1571 26.3882 11.8525 24.3771 12.5813 24.0505C11.6956 24.0612 10.81 24.0719 9.92437 24.0839C10.4403 22.3153 12.0188 20.752 13.5839 19.7831C13.3432 19.4646 12.6637 19.1834 12.3419 18.9475C13.4682 17.8786 16.2222 17.1189 17.3738 17.9959C17.1969 15.1785 19.536 14.4175 19.516 12.389C20.7155 12.7569 22.4735 14.3508 22.7407 15.5796C23.52 14.6081 26.012 13.6378 27.5372 13.2527C28.0997 13.5232 28.4654 14.1016 28.629 14.704C28.7926 15.3064 28.7806 16.7258 28.7686 17.3508C32.8244 15.7022 35.1635 17.7533 35.9813 18.8302C35.7526 19.2527 35.0132 19.911 34.613 20.2002C36.1489 21.0559 37.0438 21.9755 37.4654 23.5161C36.4773 23.8053 35.851 23.9093 34.8497 24.3011C35.3111 24.8902 36.359 25.1687 37.1023 25.4699C36.6316 27.0146 35.6595 26.6507 34.9348 26.7933C35.9906 28.8377 37.4095 28.9164 38.5451 29.1256C37.8683 31.0608 35.992 32.6707 33.9268 32.6281C34.0531 32.9919 34.5452 33.6903 34.9255 33.7436C33.7859 34.971 32.8178 34.8817 31.4096 34.5939C33.7194 30.2784 31.8537 25.6991 30.9947 24.509C30.8604 24.9995 30.6423 25.4579 29.9136 25.5392C28.8138 23.732 25.7833 22.1687 23.7208 21.7129C23.5479 22.7631 23.8591 23.8839 24.5479 24.6956C23.4469 24.6823 20.9602 23.8213 20.137 23.0883C17.1464 25.366 14.4323 28.0434 16.8857 34.362H16.8844Z" fill="#0176D3"/>
<path d="M14.8685 35.2416C13.4922 35.2416 12.4151 34.5552 12.0215 34.2647C11.9403 34.2047 11.8925 34.1087 11.8938 34.0074C11.8951 33.9061 11.9457 33.8115 12.0294 33.7542C12.8858 33.1638 13.2874 32.8786 13.4603 32.5921C11.955 32.5961 10.701 32.2322 9.18638 29.664C9.13718 29.5814 9.1292 29.4801 9.1651 29.3895C9.201 29.2989 9.27547 29.2309 9.36723 29.2042C10.0747 28.995 10.3792 28.8164 10.7648 28.5898C11.1372 28.3713 11.58 28.1114 12.4909 27.7702C12.4443 27.7649 12.3978 27.7595 12.3552 27.7542C11.6491 27.6716 10.7715 27.569 10.2914 27.0812C10.2276 27.0159 10.1943 26.9266 10.2023 26.8359C10.2103 26.7453 10.2555 26.6614 10.3287 26.608C10.5667 26.4321 10.8632 25.9137 11.1478 25.4126C11.3619 25.0354 11.5707 24.6702 11.7887 24.373L9.92706 24.3957C9.83398 24.3957 9.73424 24.3517 9.6744 24.2717C9.61457 24.1931 9.59595 24.0892 9.62387 23.9945C10.068 22.4699 11.3419 20.9039 13.064 19.7444C12.9284 19.6538 12.7688 19.5645 12.6265 19.4859C12.451 19.3872 12.2861 19.294 12.1571 19.2007C12.0813 19.146 12.0348 19.0607 12.0294 18.9674C12.0241 18.8741 12.0587 18.7835 12.1265 18.7195C13.1504 17.7493 15.5906 16.939 17.0547 17.4734C17.1172 16.1287 17.7395 15.2584 18.2967 14.4788C18.786 13.7937 19.2089 13.2033 19.2009 12.3917C19.2009 12.2917 19.2461 12.1971 19.3259 12.1371C19.4057 12.0771 19.5094 12.0598 19.6052 12.0891C20.7461 12.4397 22.3073 13.7617 22.8711 15.0039C23.9682 14.0776 26.1716 13.2713 27.4588 12.9474C27.5293 12.9288 27.6051 12.9368 27.6703 12.9688C28.262 13.254 28.7208 13.8564 28.9282 14.6214C29.0612 15.1118 29.0905 16.0554 29.0851 16.8937C33.3271 15.389 35.6143 17.8319 36.2274 18.6409C36.3018 18.7395 36.3125 18.8715 36.254 18.9808C36.0518 19.3539 35.5532 19.8337 35.1649 20.1616C36.6143 21.0492 37.379 22.0221 37.7659 23.4348C37.8111 23.6 37.7154 23.7706 37.5518 23.8186C37.2313 23.9119 36.9521 23.9852 36.6821 24.0572C36.2619 24.1678 35.883 24.2677 35.4441 24.4183C35.7978 24.6529 36.2806 24.8302 36.722 24.9928C36.8949 25.0567 37.0625 25.118 37.218 25.1807C37.3683 25.242 37.4468 25.4072 37.4002 25.5632C36.9667 26.9839 36.0904 27.0332 35.4455 27.0625C36.3005 28.4232 37.3231 28.5992 38.3164 28.7684C38.4122 28.7844 38.5079 28.8017 38.601 28.8177C38.6914 28.8337 38.7686 28.8897 38.8151 28.9683C38.8603 29.047 38.8696 29.1429 38.8404 29.2295C38.1356 31.2433 36.3364 32.7227 34.4348 32.9199C34.613 33.1798 34.8444 33.4157 34.9707 33.433C35.0864 33.449 35.1822 33.529 35.2221 33.6383C35.2606 33.7489 35.2354 33.8715 35.1569 33.9568C33.9096 35.3015 32.7912 35.1962 31.3498 34.9004C31.2527 34.8804 31.1716 34.8164 31.129 34.7258C31.0865 34.6365 31.0904 34.5312 31.137 34.4446C33.1676 30.6516 31.8431 26.728 31.0466 25.2007C30.8458 25.5205 30.52 25.7857 29.9495 25.8497C29.8298 25.863 29.7115 25.8057 29.6476 25.7018C28.6769 24.1078 26.04 22.6431 23.9934 22.1007C23.9429 22.9603 24.2288 23.8333 24.7873 24.4917C24.8671 24.5849 24.8844 24.7169 24.8325 24.8275C24.7807 24.9381 24.6703 25.0074 24.5493 25.0074C24.5493 25.0074 24.5466 25.0074 24.5453 25.0074C23.4841 24.9954 21.1703 24.2344 20.1344 23.4841C17.2182 25.7351 14.8738 28.31 17.1783 34.246C17.2342 34.3899 17.1783 34.5525 17.044 34.6312C16.2781 35.079 15.5387 35.2402 14.8698 35.2402L14.8685 35.2416ZM12.7675 34.0061C13.4975 34.4352 14.9204 35.007 16.4962 34.2167C14.1584 27.9315 16.915 25.1487 19.9483 22.839C20.0666 22.7484 20.2328 22.7551 20.3459 22.8537C20.9855 23.4228 22.7355 24.0785 23.8937 24.3024C23.4429 23.5108 23.2647 22.5658 23.4136 21.6622C23.4269 21.5769 23.4761 21.5023 23.5466 21.453C23.6171 21.405 23.7062 21.3877 23.79 21.4063C24.8937 21.6502 26.1876 22.1753 27.3378 22.8484C28.2115 23.3588 29.371 24.1705 30.0652 25.194C30.4389 25.0954 30.5811 24.8382 30.6942 24.425C30.7261 24.3091 30.8218 24.2211 30.9402 24.1998C31.0585 24.1785 31.1782 24.2264 31.2487 24.3251C32.2992 25.7791 33.8471 30.2491 31.8777 34.3646C32.9388 34.5525 33.6316 34.5125 34.4042 33.8195C34.0226 33.5077 33.7167 32.9772 33.6316 32.7307C33.5984 32.6334 33.6144 32.5268 33.6742 32.4428C33.734 32.3602 33.8285 32.3135 33.9335 32.3135C35.6436 32.3468 37.3497 31.1287 38.1143 29.3682C37.0119 29.1776 35.6689 28.8964 34.6569 26.9372C34.6117 26.8493 34.6104 26.7453 34.6529 26.6574C34.6955 26.5694 34.7779 26.5054 34.875 26.4854C35.0505 26.4508 35.2314 26.4428 35.4069 26.4348C35.9548 26.4095 36.3989 26.3895 36.7061 25.6525C36.6409 25.6285 36.5758 25.6045 36.5093 25.5792C35.8138 25.3233 35.0266 25.0327 34.605 24.4943C34.5439 24.4157 34.5239 24.3144 34.5492 24.2184C34.5745 24.1225 34.6449 24.0452 34.7367 24.0092C35.4348 23.736 35.9641 23.596 36.5252 23.4481C36.7021 23.4015 36.8829 23.3535 37.0758 23.3002C36.6728 22.0927 35.9162 21.2811 34.4628 20.4721C34.3697 20.4201 34.3085 20.3242 34.3019 20.2162C34.2952 20.1096 34.3444 20.0056 34.4308 19.943C34.7779 19.6911 35.3258 19.1993 35.5957 18.8448C34.863 17.9759 32.7194 16.0794 28.887 17.6374C28.7899 17.6773 28.6782 17.6653 28.5918 17.6054C28.5054 17.5454 28.4535 17.4468 28.4562 17.3402C28.4814 16.1074 28.4349 15.1744 28.3285 14.7813C28.1809 14.2375 27.8817 13.8057 27.4987 13.5805C25.7966 14.027 23.6238 14.9745 22.9855 15.7702C22.9097 15.8648 22.7873 15.9061 22.6703 15.8795C22.5533 15.8515 22.4615 15.7595 22.4363 15.6409C22.2528 14.7986 20.9881 13.3832 19.7993 12.8288C19.6796 13.6205 19.2382 14.2389 18.8086 14.8386C18.2129 15.6716 17.5972 16.5325 17.6876 17.9705C17.6956 18.0932 17.6305 18.2091 17.5227 18.2664C17.415 18.325 17.2834 18.3144 17.185 18.2398C16.2967 17.5627 14.0839 18.0425 12.8818 18.9048C12.8991 18.9141 12.9164 18.9248 12.9337 18.9341C13.2794 19.1287 13.6385 19.3299 13.8339 19.5885C13.8871 19.6591 13.9084 19.7484 13.8925 19.835C13.8765 19.9217 13.8246 19.9976 13.7488 20.0443C12.1371 21.0425 10.9018 22.4059 10.3659 23.76L12.5786 23.732C12.7316 23.732 12.8566 23.8333 12.8885 23.9785C12.9204 24.1238 12.8459 24.2717 12.7103 24.3317C12.4058 24.469 12.0095 25.162 11.693 25.7191C11.4576 26.1323 11.2316 26.5294 10.9975 26.816C11.3778 27.0039 11.9497 27.0705 12.4297 27.1278C13.1252 27.2091 13.6744 27.2744 13.7448 27.7222C13.7688 27.8742 13.6784 28.0221 13.5321 28.0701C12.084 28.5392 11.552 28.8511 11.0826 29.1269C10.7502 29.3215 10.4563 29.4948 9.93105 29.6787C11.3153 31.879 12.3592 32.0097 13.8725 31.9523C13.9629 31.9497 14.0494 31.9843 14.1105 32.0496C14.1717 32.1149 14.2036 32.2042 14.1956 32.2935C14.1345 32.9812 13.7236 33.3357 12.7661 34.0034L12.7675 34.0061Z" fill="#0176D3"/>
</svg>
