<svg width="16" height="16" viewBox="0 0 16 16" fill="currentColor" xmlns="http://www.w3.org/2000/svg">
<path id="genai" d="M10.9552 8.39458L8.69127 9.52505C8.01127 9.86364 7.46234 10.4152 7.12097 11.0951L5.99036 13.3588C5.82923 13.681 5.3677 13.681 5.20657 13.3588L4.07596 11.0951C3.73732 10.4152 3.18567 9.86637 2.50566 9.52505L0.24169 8.39458C-0.0805633 8.23347 -0.0805633 7.77199 0.24169 7.61089L2.50566 6.48042C3.18567 6.14182 3.73459 5.59024 4.07596 4.91032L5.20657 2.64664C5.3677 2.32443 5.82923 2.32443 5.99036 2.64664L7.12097 4.91032C7.45961 5.59024 8.01127 6.13909 8.69127 6.48042L10.9552 7.61089C11.2775 7.77199 11.2775 8.23347 10.9552 8.39458ZM15.8955 13.4325L14.9261 12.9465C14.6338 12.8018 14.399 12.5642 14.2542 12.2748L13.7681 11.3054C13.6999 11.1661 13.5005 11.1661 13.4322 11.3054L12.9461 12.2748C12.8014 12.5669 12.5638 12.8018 12.2743 12.9465L11.3048 13.4325C11.1655 13.5008 11.1655 13.7002 11.3048 13.7684L12.2743 14.2545C12.5665 14.3992 12.8014 14.6367 12.9461 14.9262L13.4322 15.8956C13.5005 16.0348 13.6999 16.0348 13.7681 15.8956L14.2542 14.9262C14.399 14.634 14.6366 14.3992 14.9261 14.2545L15.8955 13.7684C16.0348 13.7002 16.0348 13.5008 15.8955 13.4325ZM15.8955 2.23159L14.9261 1.74554C14.6338 1.60082 14.399 1.36326 14.2542 1.07381L13.7681 0.104446C13.6999 -0.0348153 13.5005 -0.0348153 13.4322 0.104446L12.9461 1.07381C12.8014 1.36599 12.5638 1.60082 12.2743 1.74554L11.3048 2.23159C11.1655 2.29986 11.1655 2.49919 11.3048 2.56746L12.2743 3.0535C12.5665 3.19823 12.8014 3.43579 12.9461 3.72523L13.4322 4.6946C13.5005 4.83386 13.6999 4.83386 13.7681 4.6946L14.2542 3.72523C14.399 3.43306 14.6366 3.19823 14.9261 3.0535L15.8955 2.56746C16.0348 2.49919 16.0348 2.29986 15.8955 2.23159Z" />
</svg>
