<?xml version="1.0" standalone="no"?>
<svg version="1.0" xmlns="http://www.w3.org/2000/svg"
     width="945.000000pt" height="586.000000pt" viewBox="0 0 945.000000 586.000000"
     preserveAspectRatio="xMidYMid meet">

    <g transform="translate(0.000000,586.000000) scale(0.100000,-0.100000)"
       fill="#000000" stroke="none">
        <path d="M595 5851 c-188 -6 -191 -6 -255 -38 -125 -61 -227 -161 -285 -280
-21 -43 -28 -78 -35 -166 -6 -65 -10 -1139 -10 -2540 l0 -2428 26 -52 c62
-122 189 -266 257 -291 147 -55 465 -59 4882 -54 l3880 4 45 23 c131 68 232
167 292 285 27 53 32 78 41 186 15 188 14 4756 0 4884 -14 112 -37 169 -108
258 -57 73 -140 138 -232 183 l-72 35 -4118 -2 c-2265 -1 -4203 -4 -4308 -7z
m4717 -941 c263 -25 522 -132 741 -304 104 -81 301 -283 351 -359 51 -78 137
-263 169 -362 35 -110 45 -162 57 -314 34 -419 -106 -779 -425 -1096 -207
-205 -455 -346 -745 -422 -94 -25 -101 -26 -575 -30 -596 -6 -705 1 -871 55
-272 89 -471 215 -661 416 -229 241 -362 552 -379 883 -35 649 317 1213 901
1446 99 39 218 72 310 86 82 12 1007 13 1127 1z m1429 -2997 c1 -54 5 -305 8
-558 l6 -460 42 -6 c90 -12 66 -33 -48 -43 -89 -7 -206 2 -216 17 -8 14 17 27
55 27 l32 0 0 464 c0 255 -3 478 -6 495 -5 22 -16 37 -38 48 l-31 16 28 21
c26 19 142 75 160 76 4 0 8 -44 8 -97z m1072 -10 c4 -54 7 -180 7 -280 0 -101
2 -183 5 -183 2 0 28 15 57 34 107 67 201 77 288 30 198 -108 213 -412 31
-595 -93 -93 -197 -118 -351 -84 -36 8 -84 14 -106 15 -38 0 -42 2 -48 31 -3
17 -6 181 -6 364 0 182 -3 394 -7 470 l-6 139 -34 37 -33 37 37 17 c88 42 139
64 149 64 7 1 13 -36 17 -96z m-5305 7 c31 -29 30 -83 -3 -115 -32 -32 -50
-31 -86 4 -34 35 -37 68 -8 105 25 32 66 34 97 6z m3827 -15 c50 -14 95 -32
102 -38 14 -15 34 -165 26 -195 -8 -31 -16 -28 -43 19 -72 119 -85 134 -144
164 -56 28 -67 30 -171 30 -108 0 -113 -1 -187 -38 -122 -60 -203 -165 -228
-297 -14 -75 -12 -214 5 -293 30 -141 129 -263 269 -333 72 -35 87 -39 155
-38 131 1 224 61 293 192 30 55 58 69 58 28 0 -42 -30 -169 -45 -192 -21 -32
-124 -63 -255 -76 -215 -21 -355 21 -488 146 -272 258 -211 717 118 890 103
54 163 66 315 62 104 -3 148 -9 220 -31z m-4419 -43 c223 -119 315 -254 317
-467 1 -155 -45 -269 -153 -377 -79 -79 -177 -131 -280 -148 -83 -14 -521 -24
-580 -13 -55 10 -55 26 1 34 56 8 76 34 84 112 4 34 5 229 3 432 -3 418 -3
417 -72 437 -64 18 -85 41 -48 52 9 3 153 3 319 1 l301 -5 108 -58z m598 -363
c3 -34 6 -155 6 -269 0 -114 3 -235 6 -269 7 -60 7 -61 38 -61 17 0 38 -5 46
-10 31 -21 -15 -30 -150 -30 -135 0 -181 9 -150 30 8 5 30 10 48 10 l32 0 0
261 0 261 -32 29 c-19 18 -27 34 -22 39 11 11 143 68 160 69 6 1 14 -25 18
-60z m1995 50 c56 -20 70 -91 26 -134 -28 -29 -30 -29 -85 -10 -57 20 -103 19
-123 -3 -28 -31 -37 -102 -37 -303 l0 -196 61 -6 c60 -5 90 -19 75 -34 -4 -5
-76 -8 -159 -8 -212 1 -285 19 -167 42 l45 9 3 244 2 245 -46 29 -47 29 79 40
c108 55 131 60 144 37 6 -10 10 -37 10 -60 l0 -42 63 55 c93 81 102 85 156 66z
m478 -21 c37 -17 64 -72 61 -123 -4 -56 -26 -55 -63 2 -38 61 -102 96 -160 89
-47 -6 -105 -61 -105 -101 0 -41 55 -90 161 -145 155 -80 199 -128 199 -220 0
-147 -196 -250 -364 -192 -27 9 -58 28 -68 42 -32 45 -46 170 -18 170 5 0 21
-25 35 -54 57 -121 187 -162 265 -85 65 65 33 127 -108 210 -120 71 -148 94
-171 143 -48 98 -12 213 84 264 58 31 186 31 252 0z m-1747 3 c81 -42 97 -107
107 -425 l6 -216 32 0 c34 0 65 -25 49 -39 -5 -5 -77 -3 -164 4 -178 15 -160
12 -160 25 0 5 23 12 50 16 l50 7 0 218 c0 249 -7 283 -67 320 -44 27 -106 23
-186 -14 l-57 -26 0 -255 0 -256 33 0 c18 0 42 -6 52 -14 18 -13 18 -14 -5
-21 -30 -10 -261 -9 -291 0 -22 7 -22 8 -4 21 10 8 33 14 51 14 l32 0 4 193
c5 253 1 278 -45 325 -20 21 -37 43 -37 49 0 12 116 58 173 68 38 7 39 7 49
-58 3 -15 8 -14 43 10 51 35 158 72 210 73 22 0 56 -8 75 -19z m647 -17 c65
-40 106 -108 111 -184 l4 -58 -220 -4 c-121 -1 -223 -6 -227 -9 -10 -11 25
-160 50 -208 42 -83 104 -121 197 -121 52 0 80 12 152 63 14 11 30 17 36 15
18 -6 -31 -69 -85 -110 -138 -105 -296 -86 -397 47 -52 68 -72 150 -66 262 7
117 34 185 95 245 79 76 137 99 236 94 53 -3 77 -9 114 -32z m3173 6 c7 -12
14 -125 18 -274 6 -218 10 -256 25 -280 39 -59 132 -61 225 -3 l57 35 3 220 2
220 -49 17 c-27 9 -55 22 -61 30 -16 19 46 35 152 38 l83 2 6 -130 c4 -71 7
-210 8 -307 l1 -178 39 0 c43 0 58 -11 38 -29 -18 -14 -185 -53 -197 -46 -6 3
-10 31 -10 62 l0 55 -37 -23 c-192 -116 -282 -127 -362 -45 -41 42 -50 103
-51 328 0 86 -5 180 -11 208 -10 46 -15 54 -46 67 -50 21 -31 34 64 43 43 4
81 8 85 9 4 0 12 -8 18 -19z"/>
        <path d="M4295 4790 c-300 -26 -601 -173 -814 -395 -108 -114 -176 -212 -246
-356 -97 -203 -133 -381 -122 -619 7 -153 27 -259 73 -393 69 -198 164 -348
319 -502 189 -188 431 -318 673 -360 112 -20 392 -20 504 0 231 40 474 166
659 343 481 457 554 1150 182 1711 -114 172 -326 354 -516 445 -209 100 -473
147 -712 126z m-175 -1315 c0 -886 11 -802 -100 -737 -90 51 -265 227 -318
317 -120 205 -144 500 -59 709 74 181 216 348 373 440 44 25 85 46 92 46 9 0
12 -162 12 -775z m756 713 c148 -100 233 -195 304 -336 124 -246 118 -533 -16
-794 -63 -123 -304 -346 -388 -360 -14 -2 -22 5 -28 27 -6 17 -11 332 -11 735
-2 747 0 780 43 780 10 0 53 -24 96 -52z"/>
        <path d="M7881 1426 c-25 -13 -49 -34 -54 -47 -5 -13 -7 -109 -5 -214 3 -181
4 -192 28 -235 31 -55 78 -75 155 -66 73 8 123 47 164 128 30 59 34 75 33 145
0 220 -168 371 -321 289z"/>
        <path d="M1486 1848 c-18 -14 -18 -32 -13 -424 3 -227 10 -427 16 -449 16 -64
49 -85 131 -85 253 0 399 133 441 401 20 133 -16 279 -96 388 -81 110 -201
168 -370 178 -69 4 -94 2 -109 -9z"/>
        <path d="M3671 1473 c-41 -20 -93 -98 -89 -133 l3 -25 127 0 c144 0 153 4 152
66 -3 87 -104 135 -193 92z"/>
    </g>
</svg>
